STARTFONT 2.1
COMMENT
COMMENT Converted from OpenType font "OldStandard-Regular.ttf" by "otf2bdf 3.0".
COMMENT
FONT -FreeType-Old Standard TT-Medium-R-Normal--41-410-72-72-P-216-ISO10646-1
SIZE 41 72 72
FONTBOUNDINGBOX 107 51 -33 -12
STARTPROPERTIES 19
FOUNDRY "FreeType"
FAMILY_NAME "Old Standard TT"
WEIGHT_NAME "Medium"
SLANT "R"
SETWIDTH_NAME "Normal"
ADD_STYLE_NAME ""
PIXEL_SIZE 41
POINT_SIZE 410
RESOLUTION_X 72
RESOLUTION_Y 72
SPACING "P"
AVERAGE_WIDTH 216
CHARSET_REGISTRY "ISO10646"
CHARSET_ENCODING "1"
FONT_ASCENT 39
FONT_DESCENT 12
COPYRIGHT "Copyright (C) 2006-2008 Alexey Kryukov <alexios@thessalonica.org.ru>"
_OTF_FONTFILE "OldStandard-Regular.ttf"
_OTF_PSNAME "OldStandardTT-Regular"
ENDPROPERTIES
CHARS 1456
STARTCHAR 0020
ENCODING 32
SWIDTH 268 0
DWIDTH 11 0
BBX 0 0 0 0
BITMAP
ENDCHAR
STARTCHAR 0021
ENCODING 33
SWIDTH 268 0
DWIDTH 11 0
BBX 5 28 3 0
BITMAP
70
F8
F8
F8
F8
F8
F8
F8
70
70
70
70
70
70
70
70
20
20
20
20
20
20
00
70
F8
F8
F8
70
ENDCHAR
STARTCHAR 0022
ENCODING 34
SWIDTH 414 0
DWIDTH 17 0
BBX 9 8 4 22
BITMAP
E380
E380
E380
E380
C180
4180
4100
4100
ENDCHAR
STARTCHAR 0023
ENCODING 35
SWIDTH 682 0
DWIDTH 28 0
BBX 22 28 3 0
BITMAP
00C0C0
00C0C0
00C0C0
00C080
008180
018180
018180
018180
FFFFFC
FFFFFC
018100
030300
030300
030300
030300
030300
020200
060600
FFFFFC
FFFFFC
060600
060600
060400
040C00
0C0C00
0C0C00
0C0C00
0C0C00
ENDCHAR
STARTCHAR 0024
ENCODING 36
SWIDTH 585 0
DWIDTH 24 0
BBX 18 34 3 -3
BITMAP
011000
011000
011000
03F800
0D1600
191100
311080
6110C0
6110C0
6111C0
6113C0
6113C0
711380
3D1000
3F9000
1FF000
0FFC00
03FE00
017F00
011F80
011380
2111C0
7110C0
F910C0
F110C0
F110C0
E11080
611180
611100
311300
0FBC00
01F000
011000
011000
ENDCHAR
STARTCHAR 0025
ENCODING 37
SWIDTH 878 0
DWIDTH 36 0
BBX 28 28 4 0
BITMAP
1F000600
31800400
60C00C00
60C00800
E0E01800
E0E03000
E0E02000
E0E06000
E0E04000
E0E08000
60C18000
60C10000
31830000
1F060000
00040F00
000C3080
000830C0
00106060
00306060
0020E070
0060E070
0040E070
0080E070
0180E070
01006060
02006060
060030C0
04001F80
ENDCHAR
STARTCHAR 0026
ENCODING 38
SWIDTH 780 0
DWIDTH 32 0
BBX 28 28 2 0
BITMAP
00F80000
038C0000
07040000
06020000
0E020000
0E020000
0E060000
0E040000
0F0C0000
07180000
07B00000
03E00000
01E03FF0
03E00780
06F00700
0C780600
187C0600
303C0400
701E0C00
701F1800
F00F9000
F007B000
F007E000
F003E000
F003F020
7806F820
3C0C7CC0
1FF03F80
ENDCHAR
STARTCHAR 0027
ENCODING 39
SWIDTH 243 0
DWIDTH 10 0
BBX 3 8 4 22
BITMAP
E0
E0
E0
E0
C0
40
40
40
ENDCHAR
STARTCHAR 0028
ENCODING 40
SWIDTH 365 0
DWIDTH 15 0
BBX 9 37 4 -7
BITMAP
0180
0300
0600
0E00
0C00
1800
1800
3000
3000
6000
6000
6000
6000
C000
C000
C000
C000
C000
C000
C000
C000
C000
C000
6000
6000
6000
6000
3000
3000
3800
1800
0C00
0C00
0600
0300
0380
0180
ENDCHAR
STARTCHAR 0029
ENCODING 41
SWIDTH 365 0
DWIDTH 15 0
BBX 9 37 2 -7
BITMAP
C000
6000
3000
3800
1800
0C00
0C00
0600
0600
0300
0300
0300
0300
0180
0180
0180
0180
0180
0180
0180
0180
0180
0180
0380
0300
0300
0300
0600
0600
0E00
0C00
1800
1800
3000
6000
E000
C000
ENDCHAR
STARTCHAR 002A
ENCODING 42
SWIDTH 512 0
DWIDTH 21 0
BBX 15 17 3 11
BITMAP
0380
03C0
0380
0380
E18E
F11E
F93E
1D70
03C0
03C0
1D78
F93E
F11E
E38E
0380
03C0
0380
ENDCHAR
STARTCHAR 002B
ENCODING 43
SWIDTH 951 0
DWIDTH 39 0
BBX 35 34 2 -6
BITMAP
0000C00000
0000C00000
0000C00000
0000C00000
0000C00000
0000C00000
0000C00000
0000C00000
0000C00000
0000C00000
0000C00000
0000C00000
0000C00000
0000C00000
0000C00000
0000C00000
FFFFFFFFE0
FFFFFFFFE0
0000C00000
0000C00000
0000C00000
0000C00000
0000C00000
0000C00000
0000C00000
0000C00000
0000C00000
0000C00000
0000C00000
0000C00000
0000C00000
0000C00000
0000C00000
0000C00000
ENDCHAR
STARTCHAR 002C
ENCODING 44
SWIDTH 268 0
DWIDTH 11 0
BBX 5 12 3 -7
BITMAP
70
F0
F8
F8
18
08
08
10
10
20
20
40
ENDCHAR
STARTCHAR 002D
ENCODING 45
SWIDTH 341 0
DWIDTH 14 0
BBX 10 2 2 9
BITMAP
FFC0
FFC0
ENDCHAR
STARTCHAR 002E
ENCODING 46
SWIDTH 268 0
DWIDTH 11 0
BBX 5 5 3 0
BITMAP
70
F8
F8
F8
70
ENDCHAR
STARTCHAR 002F
ENCODING 47
SWIDTH 439 0
DWIDTH 18 0
BBX 14 38 2 -8
BITMAP
000C
000C
000C
0008
0018
0018
0010
0030
0030
0020
0060
0060
0040
00C0
00C0
0080
0180
0180
0100
0300
0300
0200
0600
0600
0400
0C00
0C00
0800
1800
1800
1000
3000
3000
2000
6000
6000
4000
C000
ENDCHAR
STARTCHAR 0030
ENCODING 48
SWIDTH 585 0
DWIDTH 24 0
BBX 20 28 2 0
BITMAP
01F800
070C00
0C0700
1C0380
180180
3801C0
3801C0
7000E0
7000E0
7000E0
F000F0
F000F0
F000F0
F000F0
F000F0
F000F0
F000F0
F000F0
F000F0
7000E0
7000E0
7000E0
3801C0
3801C0
180180
0C0300
060600
03FC00
ENDCHAR
STARTCHAR 0031
ENCODING 49
SWIDTH 585 0
DWIDTH 24 0
BBX 14 28 5 0
BITMAP
0180
0180
0380
0780
FF80
0780
0780
0780
0780
0780
0780
0780
0780
0780
0780
0780
0780
0780
0780
0780
0780
0780
0780
0780
0780
0780
0780
FFFC
ENDCHAR
STARTCHAR 0032
ENCODING 50
SWIDTH 585 0
DWIDTH 24 0
BBX 17 28 3 0
BITMAP
07E000
183C00
201E00
400F00
C00F00
C00780
C00780
F00780
FC0780
FC0780
7C0780
180F00
000E00
001C00
003800
007000
00E000
01C000
030000
060000
0C0080
180080
300080
300180
700180
7FFF80
7FFF80
7FFF80
ENDCHAR
STARTCHAR 0033
ENCODING 51
SWIDTH 585 0
DWIDTH 24 0
BBX 17 28 3 0
BITMAP
0FE000
303800
601C00
600E00
F00F00
F80F00
F80F00
780F00
000F00
000F00
000E00
001C00
1C3800
1FE000
003C00
001E00
000F00
000700
000780
000780
780780
F80780
F80780
F80700
C00F00
C00E00
601C00
1FF000
ENDCHAR
STARTCHAR 0034
ENCODING 52
SWIDTH 585 0
DWIDTH 24 0
BBX 19 28 2 0
BITMAP
000C00
000C00
001C00
003C00
003C00
007C00
00FC00
00FC00
01BC00
033C00
033C00
063C00
0C3C00
0C3C00
183C00
303C00
203C00
603C00
C03C00
FFFFE0
003C00
003C00
003C00
003C00
003C00
003C00
003C00
07FFE0
ENDCHAR
STARTCHAR 0035
ENCODING 53
SWIDTH 585 0
DWIDTH 24 0
BBX 17 29 4 0
BITMAP
000200
780C00
7FF800
7FF000
6FC000
600000
600000
600000
600000
600000
67E000
683C00
701E00
600E00
600F00
600700
000780
000780
000780
100780
780780
FC0780
FC0780
F80F00
E00F00
E00E00
601C00
303800
1FF000
ENDCHAR
STARTCHAR 0036
ENCODING 54
SWIDTH 585 0
DWIDTH 24 0
BBX 17 28 3 0
BITMAP
01F800
030C00
0C0600
1C0700
180F00
381F00
301F00
700E00
700000
700000
F00000
F1F000
F61C00
FC0E00
F80700
F80700
F00780
F00780
F00780
F00780
700780
700780
700700
300700
380700
180E00
0C1C00
07F800
ENDCHAR
STARTCHAR 0037
ENCODING 55
SWIDTH 585 0
DWIDTH 24 0
BBX 16 28 4 0
BITMAP
FFFF
FFFF
FFFF
C003
8002
8002
8006
8004
000C
0008
0018
0030
0020
0060
00C0
00C0
0180
0380
0380
0780
0780
0780
0FC0
0FC0
0FC0
0FC0
0FC0
07C0
ENDCHAR
STARTCHAR 0038
ENCODING 56
SWIDTH 585 0
DWIDTH 24 0
BBX 20 28 2 0
BITMAP
03F800
0E0E00
380700
700380
7001C0
F001C0
F001C0
F001C0
F001C0
F80180
7E0380
7F8300
3FFC00
0FFC00
07FF00
187FC0
300FE0
7003E0
E001F0
E000F0
E000F0
E000E0
E000E0
E000E0
7001C0
300180
1C0700
0FFC00
ENDCHAR
STARTCHAR 0039
ENCODING 57
SWIDTH 585 0
DWIDTH 24 0
BBX 17 28 3 0
BITMAP
07E000
0C3800
380C00
380E00
700E00
700700
F00700
F00700
F00780
F00780
F00780
F00780
700F80
700F80
381B80
1C3380
07C780
000780
000700
000700
380700
7C0700
7C0E00
780E00
700C00
701800
303000
1FE000
ENDCHAR
STARTCHAR 003A
ENCODING 58
SWIDTH 268 0
DWIDTH 11 0
BBX 5 19 3 0
BITMAP
70
F8
F8
F8
70
00
00
00
00
00
00
00
00
00
70
F8
F8
F8
70
ENDCHAR
STARTCHAR 003B
ENCODING 59
SWIDTH 292 0
DWIDTH 12 0
BBX 6 26 3 -7
BITMAP
70
F8
F8
F8
70
00
00
00
00
00
00
00
00
00
70
F8
FC
7C
0C
0C
0C
08
18
30
20
40
ENDCHAR
STARTCHAR 003C
ENCODING 60
SWIDTH 951 0
DWIDTH 39 0
BBX 32 34 3 -6
BITMAP
00000002
00000007
0000001C
00000070
000001E0
00000780
00001E00
00007800
0001E000
00038000
000E0000
00380000
00F00000
03C00000
0F000000
3C000000
F0000000
E0000000
78000000
1E000000
07800000
01C00000
00700000
001C0000
00070000
0003C000
0000F000
00003C00
00000F00
00000380
000000E0
00000038
0000000E
00000006
ENDCHAR
STARTCHAR 003D
ENCODING 61
SWIDTH 951 0
DWIDTH 39 0
BBX 35 10 2 6
BITMAP
FFFFFFFFE0
FFFFFFFFE0
0000000000
0000000000
0000000000
0000000000
0000000000
0000000000
FFFFFFFFE0
FFFFFFFFE0
ENDCHAR
STARTCHAR 003E
ENCODING 62
SWIDTH 951 0
DWIDTH 39 0
BBX 32 34 3 -6
BITMAP
40000000
E0000000
38000000
0E000000
07800000
01E00000
00780000
001E0000
00078000
0001C000
00007000
00001C00
00000F00
000003C0
000000F0
0000003C
0000000F
00000007
0000001E
00000078
000001E0
00000380
00000E00
00003800
0000E000
0003C000
000F0000
003C0000
00F00000
01C00000
07000000
1C000000
70000000
60000000
ENDCHAR
STARTCHAR 003F
ENCODING 63
SWIDTH 487 0
DWIDTH 20 0
BBX 15 28 3 0
BITMAP
0FC0
3070
403C
C01C
C01E
F81E
F81E
701E
001C
003C
0078
00F0
01C0
0380
0600
0C00
0820
0820
0820
0C40
0780
0000
0000
0380
07C0
07C0
07C0
0380
ENDCHAR
STARTCHAR 0040
ENCODING 64
SWIDTH 804 0
DWIDTH 33 0
BBX 29 29 2 1
BITMAP
003FF800
01C00E00
03000300
06000180
0C0000C0
1807CE60
300C7C20
30383C30
60703C10
60E03818
60E03818
C1C03818
C1C03818
C1C03018
C3C07018
C3807018
C3807030
C380E030
C380E030
4381E060
6182E0C0
61C4E180
30783E00
30000000
18000000
0C000000
06000400
03801C00
007FF000
ENDCHAR
STARTCHAR 0041
ENCODING 65
SWIDTH 780 0
DWIDTH 32 0
BBX 29 29 2 0
BITMAP
00020000
00060000
00070000
00070000
000F8000
000F8000
000F8000
001FC000
0013C000
0033C000
0031E000
0021E000
0061E000
0060F000
0040F000
00C0F000
00C07800
00807800
01807800
01FFFC00
01003C00
03001C00
03001E00
06001E00
06000F00
06000F00
0E000F00
1E000F80
FFE0FFF8
ENDCHAR
STARTCHAR 0042
ENCODING 66
SWIDTH 682 0
DWIDTH 28 0
BBX 23 29 3 0
BITMAP
FFFF80
0F00E0
0F0078
0F003C
0F001C
0F001C
0F001E
0F001E
0F001C
0F001C
0F0038
0F0030
0F00E0
0FFF00
0F00E0
0F0070
0F0038
0F003C
0F001E
0F001E
0F001E
0F001E
0F001E
0F001E
0F003C
0F003C
0F0078
0F00E0
FFFF80
ENDCHAR
STARTCHAR 0043
ENCODING 67
SWIDTH 682 0
DWIDTH 28 0
BBX 22 29 3 1
BITMAP
01FE08
070398
0C00F8
1C00F8
180078
380038
780038
700018
700018
F00008
F00008
F00000
F00000
F00000
F00000
F00000
F00000
F00000
F00000
70000C
70000C
78000C
380018
380018
1C0018
0C0030
060060
0300C0
00FF80
ENDCHAR
STARTCHAR 0044
ENCODING 68
SWIDTH 780 0
DWIDTH 32 0
BBX 27 29 3 0
BITMAP
FFFFC000
0F007000
0F001C00
0F000E00
0F000700
0F000780
0F000380
0F0003C0
0F0003C0
0F0001C0
0F0001E0
0F0001E0
0F0001E0
0F0001E0
0F0001E0
0F0001E0
0F0001E0
0F0001E0
0F0001E0
0F0003C0
0F0003C0
0F0003C0
0F000380
0F000700
0F000700
0F000E00
0F001C00
0F007000
FFFFC000
ENDCHAR
STARTCHAR 0045
ENCODING 69
SWIDTH 707 0
DWIDTH 29 0
BBX 23 29 3 0
BITMAP
FFFFFE
0F003E
0F000E
0F000E
0F0006
0F0006
0F0002
0F0002
0F0102
0F0100
0F0100
0F0100
0F0300
0F0700
0FFF00
0F0700
0F0300
0F0100
0F0102
0F0102
0F0102
0F0002
0F0006
0F0006
0F0006
0F000E
0F001E
0F007E
FFFFFE
ENDCHAR
STARTCHAR 0046
ENCODING 70
SWIDTH 682 0
DWIDTH 28 0
BBX 23 29 3 0
BITMAP
FFFFFE
0F003E
0F000E
0F000E
0F0006
0F0006
0F0002
0F0002
0F0102
0F0100
0F0100
0F0100
0F0300
0F0700
0FFF00
0F0700
0F0300
0F0100
0F0100
0F0100
0F0100
0F0000
0F0000
0F0000
0F0000
0F0000
0F0000
0F0000
FFF000
ENDCHAR
STARTCHAR 0047
ENCODING 71
SWIDTH 707 0
DWIDTH 29 0
BBX 25 30 3 0
BITMAP
00100000
01FE0800
06039800
0C00F800
1C00F800
18007800
38003800
38003800
70001800
70001800
70000800
F0000800
F0000000
F0000000
F0000000
F007FF80
F0007800
F0007800
F0007800
F0007800
70007800
70007800
70007800
38007800
38007800
1800F800
1C00C800
0C018800
06030800
01FE0800
ENDCHAR
STARTCHAR 0048
ENCODING 72
SWIDTH 804 0
DWIDTH 33 0
BBX 28 29 3 0
BITMAP
FFF0FFF0
0F000F00
0F000F00
0F000F00
0F000F00
0F000F00
0F000F00
0F000F00
0F000F00
0F000F00
0F000F00
0F000F00
0F000F00
0FFFFF00
0F000F00
0F000F00
0F000F00
0F000F00
0F000F00
0F000F00
0F000F00
0F000F00
0F000F00
0F000F00
0F000F00
0F000F00
0F000F00
0F000F00
FFF0FFF0
ENDCHAR
STARTCHAR 0049
ENCODING 73
SWIDTH 414 0
DWIDTH 17 0
BBX 12 29 3 0
BITMAP
FFF0
0F00
0F00
0F00
0F00
0F00
0F00
0F00
0F00
0F00
0F00
0F00
0F00
0F00
0F00
0F00
0F00
0F00
0F00
0F00
0F00
0F00
0F00
0F00
0F00
0F00
0F00
0F00
FFF0
ENDCHAR
STARTCHAR 004A
ENCODING 74
SWIDTH 536 0
DWIDTH 22 0
BBX 19 29 2 0
BITMAP
01FFE0
001E00
001E00
001E00
001E00
001E00
001E00
001E00
001E00
001E00
001E00
001E00
001E00
001E00
001E00
001E00
001E00
001E00
001E00
001E00
781E00
F81E00
F81E00
F81E00
C01C00
C01C00
401800
603000
1FE000
ENDCHAR
STARTCHAR 004B
ENCODING 75
SWIDTH 780 0
DWIDTH 32 0
BBX 27 29 3 0
BITMAP
FFF1FFC0
0F007E00
0F003C00
0F003800
0F007000
0F006000
0F00C000
0F018000
0F030000
0F060000
0F0E0000
0F1E0000
0F3F0000
0F6F0000
0FCF8000
0F878000
0F07C000
0F03C000
0F03E000
0F03E000
0F01F000
0F01F000
0F00F800
0F00F800
0F007C00
0F007C00
0F003E00
0F003F00
FFF1FFE0
ENDCHAR
STARTCHAR 004C
ENCODING 76
SWIDTH 682 0
DWIDTH 28 0
BBX 23 29 3 0
BITMAP
FFF800
0F0000
0F0000
0F0000
0F0000
0F0000
0F0000
0F0000
0F0000
0F0000
0F0000
0F0000
0F0000
0F0000
0F0000
0F0000
0F0000
0F0000
0F0002
0F0002
0F0006
0F0006
0F0006
0F000E
0F000E
0F001E
0F003E
0F00FE
FFFFFE
ENDCHAR
STARTCHAR 004D
ENCODING 77
SWIDTH 853 0
DWIDTH 35 0
BBX 30 29 3 0
BITMAP
FF8003FC
0F8007C0
0FC007C0
0FC007C0
0FC00FC0
0DC00BC0
0DE00BC0
0DE00BC0
0CE01BC0
0CF013C0
0CF013C0
0C7033C0
0C7023C0
0C7823C0
0C7823C0
0C3863C0
0C3C43C0
0C3C43C0
0C1CC3C0
0C1C83C0
0C1E83C0
0C0E83C0
0C0F83C0
0C0F03C0
0C0F03C0
0C0703C0
0C0603C0
1E0603C0
FFC23FFC
ENDCHAR
STARTCHAR 004E
ENCODING 78
SWIDTH 780 0
DWIDTH 32 0
BBX 28 29 3 0
BITMAP
FF003FF0
0F800780
0F800300
0FC00300
0FE00300
0DE00300
0DF00300
0CF80300
0C780300
0C7C0300
0C3C0300
0C1E0300
0C1F0300
0C0F0300
0C078300
0C078300
0C03C300
0C03E300
0C01E300
0C00F300
0C00FB00
0C007B00
0C003F00
0C003F00
0C001F00
0C001F00
0C000F00
1E000700
FFC00700
ENDCHAR
STARTCHAR 004F
ENCODING 79
SWIDTH 707 0
DWIDTH 29 0
BBX 24 29 3 1
BITMAP
00FF00
0300C0
060060
0C0030
1C0038
38001C
38001C
78001E
70000E
70000E
F0000F
F0000F
F0000F
F0000F
F0000F
F0000F
F0000F
F0000F
F0000F
70000E
70000E
78001E
38001C
38001C
1C0038
0C0030
060060
0300C0
00FF00
ENDCHAR
STARTCHAR 0050
ENCODING 80
SWIDTH 682 0
DWIDTH 28 0
BBX 23 29 3 0
BITMAP
FFFF80
0F00E0
0F0078
0F003C
0F003C
0F001E
0F001E
0F001E
0F001E
0F001E
0F003C
0F003C
0F0078
0F00E0
0FFF80
0F0000
0F0000
0F0000
0F0000
0F0000
0F0000
0F0000
0F0000
0F0000
0F0000
0F0000
0F0000
0F0000
FFF800
ENDCHAR
STARTCHAR 0051
ENCODING 81
SWIDTH 707 0
DWIDTH 29 0
BBX 24 36 3 -6
BITMAP
00FF00
0300C0
060060
0C0030
1C0038
38001C
38001C
78001E
70000E
70000E
F0000F
F0000F
F0000F
F0000F
F0000F
F0000F
F0000F
F0000F
F0000F
70000E
78001E
78001E
383C1C
38631C
1CC338
0EC1B8
06C1F0
03C1E1
00F7C1
0009C1
0001C1
0001C3
0001E2
0001FE
0000FC
000038
ENDCHAR
STARTCHAR 0052
ENCODING 82
SWIDTH 707 0
DWIDTH 29 0
BBX 25 29 3 0
BITMAP
FFFF8000
0F01F000
0F007800
0F007800
0F003C00
0F003C00
0F003C00
0F003C00
0F003C00
0F007800
0F00F000
0F01E000
0FFF0000
0F038000
0F01C000
0F00E000
0F00E000
0F00F000
0F00F000
0F00F000
0F00F000
0F00F000
0F00F880
0F007880
0F007880
0F007980
0F007F00
0F003F00
FFF81E00
ENDCHAR
STARTCHAR 0053
ENCODING 83
SWIDTH 609 0
DWIDTH 25 0
BBX 19 29 4 1
BITMAP
0FF0C0
301CC0
600FC0
6007C0
C003C0
C001C0
C001C0
C000C0
E000C0
F000C0
780040
7F0000
3FC000
1FF800
0FFE00
01FF80
807F80
800FC0
8003E0
8001E0
C000E0
C00060
E00060
E00060
F00060
F800C0
9C0080
860100
83FE00
ENDCHAR
STARTCHAR 0054
ENCODING 84
SWIDTH 707 0
DWIDTH 29 0
BBX 24 29 3 0
BITMAP
FFFFFF
F83C1F
F03C0F
E03C07
C03C03
C03C03
C03C03
803C01
803C01
803C01
803C01
003C00
003C00
003C00
003C00
003C00
003C00
003C00
003C00
003C00
003C00
003C00
003C00
003C00
003C00
003C00
003C00
003C00
07FFE0
ENDCHAR
STARTCHAR 0055
ENCODING 85
SWIDTH 829 0
DWIDTH 34 0
BBX 29 29 3 0
BITMAP
FFF01FF8
0F0003C0
0F000180
0F000180
0F000180
0F000180
0F000180
0F000180
0F000180
0F000180
0F000180
0F000180
0F000180
0F000180
0F000180
0F000180
0F000180
0F000180
0F000180
0F000180
0F000180
0F000180
0F000180
07000100
07000300
03800200
01C00600
00E01800
003FF000
ENDCHAR
STARTCHAR 0056
ENCODING 86
SWIDTH 780 0
DWIDTH 32 0
BBX 29 29 2 0
BITMAP
FFF83FF8
0F8003C0
07800380
07800300
03C00300
03C00300
03C00200
01E00600
01E00600
01F00400
00F00C00
00F00C00
00F80800
00781800
00781800
003C1000
003C3000
003C3000
001E2000
001E6000
001F6000
000F4000
000FC000
000FC000
00078000
00078000
00078000
00030000
00030000
ENDCHAR
STARTCHAR 0057
ENCODING 87
SWIDTH 1073 0
DWIDTH 44 0
BBX 41 29 2 0
BITMAP
FFF1FFE3FF80
0F803F007C00
07801E003800
07801E003000
07801F003000
03C01F003000
03C01F006000
03C037006000
01E037806000
01E037804000
01E02780C000
01E063C0C000
00F063C08000
00F043C18000
00F0C1C18000
0078C1E10000
0078C1E30000
007881E30000
007D80F20000
003D80F60000
003D00F60000
003D00740000
001F007C0000
001F007C0000
001E003C0000
000E00380000
000E00380000
000C00380000
000C00100000
ENDCHAR
STARTCHAR 0058
ENCODING 88
SWIDTH 756 0
DWIDTH 31 0
BBX 28 29 2 0
BITMAP
FFF8FFE0
07C01E00
07C01C00
03E01800
01E01800
01F03000
00F02000
00F86000
0078C000
007C8000
003D8000
003F0000
001E0000
000F0000
000F0000
000F8000
001F8000
0033C000
0033E000
0061E000
00C1F000
00C0F000
0180F800
03007800
03007C00
06003C00
0E003E00
1F003F00
FFE1FFF0
ENDCHAR
STARTCHAR 0059
ENCODING 89
SWIDTH 731 0
DWIDTH 30 0
BBX 27 29 2 0
BITMAP
FFF87FE0
0F801F00
0F800E00
07800C00
03C00C00
03C00800
01E01800
01F01000
00F03000
00F82000
00786000
003C4000
003CC000
001E8000
001F0000
000F0000
000F0000
000F0000
000F0000
000F0000
000F0000
000F0000
000F0000
000F0000
000F0000
000F0000
000F0000
000F0000
01FFF800
ENDCHAR
STARTCHAR 005A
ENCODING 90
SWIDTH 658 0
DWIDTH 27 0
BBX 22 29 3 0
BITMAP
3FFFFC
3E0078
3C00F8
3800F0
3001E0
3003E0
6003C0
600780
400F80
400F00
001F00
003E00
003C00
007C00
007800
00F000
01F000
01E000
03E004
07C004
07800C
0F800C
1F000C
1F001C
3E001C
3C003C
7C0078
F800F8
FFFFF8
ENDCHAR
STARTCHAR 005B
ENCODING 91
SWIDTH 390 0
DWIDTH 16 0
BBX 8 37 5 -8
BITMAP
FF
F0
E0
E0
E0
E0
E0
E0
E0
E0
E0
E0
E0
E0
E0
E0
E0
E0
E0
E0
E0
E0
E0
E0
E0
E0
E0
E0
E0
E0
E0
E0
E0
E0
E0
F0
FF
ENDCHAR
STARTCHAR 005C
ENCODING 92
SWIDTH 439 0
DWIDTH 18 0
BBX 14 38 2 -8
BITMAP
C000
4000
6000
6000
2000
3000
3000
1000
1800
1800
0800
0C00
0C00
0400
0400
0600
0200
0200
0300
0300
0100
0180
0180
0080
00C0
00C0
0040
0060
0060
0020
0030
0030
0010
0018
0018
0008
000C
000C
ENDCHAR
STARTCHAR 005D
ENCODING 93
SWIDTH 390 0
DWIDTH 16 0
BBX 8 37 3 -8
BITMAP
FF
0F
07
07
07
07
07
07
07
07
07
07
07
07
07
07
07
07
07
07
07
07
07
07
07
07
07
07
07
07
07
07
07
07
07
0F
FF
ENDCHAR
STARTCHAR 005E
ENCODING 94
SWIDTH 585 0
DWIDTH 24 0
BBX 18 14 3 15
BITMAP
00C000
01C000
01E000
033000
033000
061800
0C0C00
0C0C00
180600
300600
300300
600180
E00180
C000C0
ENDCHAR
STARTCHAR 005F
ENCODING 95
SWIDTH 512 0
DWIDTH 21 0
BBX 21 2 0 -6
BITMAP
FFFFF8
FFFFF8
ENDCHAR
STARTCHAR 0060
ENCODING 96
SWIDTH 439 0
DWIDTH 18 0
BBX 7 7 3 21
BITMAP
C0
E0
70
38
18
0C
02
ENDCHAR
STARTCHAR 0061
ENCODING 97
SWIDTH 512 0
DWIDTH 21 0
BBX 18 19 2 0
BITMAP
0FC000
387000
203800
601C00
781C00
781C00
381C00
001C00
00FC00
0F1C00
381C00
701C00
E01C00
E01C40
E03C40
E03C40
E05CC0
709F80
1F0F00
ENDCHAR
STARTCHAR 0062
ENCODING 98
SWIDTH 512 0
DWIDTH 21 0
BBX 18 29 1 0
BITMAP
FC0000
1C0000
1C0000
1C0000
1C0000
1C0000
1C0000
1C0000
1C0000
1C0000
1C7800
1C8E00
1D0700
1E0380
1E0380
1C0380
1C03C0
1C03C0
1C03C0
1C03C0
1C03C0
1C03C0
1C03C0
1C0380
1C0380
1E0380
1B0700
118E00
10F800
ENDCHAR
STARTCHAR 0063
ENCODING 99
SWIDTH 439 0
DWIDTH 18 0
BBX 15 19 2 0
BITMAP
07E0
1C10
3808
300C
701C
703C
F03C
F018
F000
F000
F000
F000
F006
7004
7004
300C
3808
0C30
07E0
ENDCHAR
STARTCHAR 0064
ENCODING 100
SWIDTH 512 0
DWIDTH 21 0
BBX 18 29 2 0
BITMAP
00FE00
000E00
000E00
000E00
000E00
000E00
000E00
000E00
000E00
000E00
0F8E00
1C4E00
382E00
701E00
701E00
700E00
F00E00
F00E00
F00E00
F00E00
F00E00
F00E00
F00E00
700E00
700E00
701E00
383E00
186E00
07CFC0
ENDCHAR
STARTCHAR 0065
ENCODING 101
SWIDTH 463 0
DWIDTH 19 0
BBX 15 19 2 0
BITMAP
07C0
0C70
3838
301C
701C
701C
F01E
F01E
FFFE
F000
F000
F000
F006
7004
7004
3804
3808
1C10
07E0
ENDCHAR
STARTCHAR 0066
ENCODING 102
SWIDTH 341 0
DWIDTH 14 0
BBX 14 29 1 0
BITMAP
01F0
0718
0E18
0C3C
1C3C
1C38
1C00
1C00
1C00
1C00
FFC0
1C00
1C00
1C00
1C00
1C00
1C00
1C00
1C00
1C00
1C00
1C00
1C00
1C00
1C00
1C00
1C00
1C00
FFC0
ENDCHAR
STARTCHAR 0067
ENCODING 103
SWIDTH 536 0
DWIDTH 22 0
BBX 20 28 2 -9
BITMAP
07E1C0
1C3A60
381EF0
701EF0
700EE0
F00F00
F00F00
F00F00
700E00
701E00
381C00
1C3800
07E000
380000
400000
C00000
F00000
FFFE00
3FFF00
0F0780
7001C0
4000C0
C000C0
C000C0
C00180
600180
380600
07F800
ENDCHAR
STARTCHAR 0068
ENCODING 104
SWIDTH 536 0
DWIDTH 22 0
BBX 20 29 1 0
BITMAP
FC0000
1C0000
1C0000
1C0000
1C0000
1C0000
1C0000
1C0000
1C0000
1C0000
1C3C00
1CC700
1D0300
1D0380
1E0380
1E0380
1C0380
1C0380
1C0380
1C0380
1C0380
1C0380
1C0380
1C0380
1C0380
1C0380
1C0380
1C0380
FF9FF0
ENDCHAR
STARTCHAR 0069
ENCODING 105
SWIDTH 268 0
DWIDTH 11 0
BBX 8 28 1 0
BITMAP
18
3C
3C
18
00
00
00
00
00
FC
1C
1C
1C
1C
1C
1C
1C
1C
1C
1C
1C
1C
1C
1C
1C
1C
1C
FF
ENDCHAR
STARTCHAR 006A
ENCODING 106
SWIDTH 341 0
DWIDTH 14 0
BBX 11 37 -1 -9
BITMAP
00C0
01E0
01E0
00C0
0000
0000
0000
0000
0000
0FE0
00E0
00E0
00E0
00E0
00E0
00E0
00E0
00E0
00E0
00E0
00E0
00E0
00E0
00E0
00E0
00E0
00E0
00E0
00E0
00E0
00E0
E0E0
F0E0
E0C0
C180
6380
3E00
ENDCHAR
STARTCHAR 006B
ENCODING 107
SWIDTH 512 0
DWIDTH 21 0
BBX 19 29 1 0
BITMAP
FC0000
1C0000
1C0000
1C0000
1C0000
1C0000
1C0000
1C0000
1C0000
1C0000
1C3FC0
1C0E00
1C0C00
1C0800
1C1000
1C3000
1C6000
1CC000
1CE000
1DE000
1EF000
1E7800
1C3C00
1C3C00
1C1E00
1C0F00
1C0F00
1C0F80
FF3FE0
ENDCHAR
STARTCHAR 006C
ENCODING 108
SWIDTH 268 0
DWIDTH 11 0
BBX 9 29 1 0
BITMAP
FC00
1C00
1C00
1C00
1C00
1C00
1C00
1C00
1C00
1C00
1C00
1C00
1C00
1C00
1C00
1C00
1C00
1C00
1C00
1C00
1C00
1C00
1C00
1C00
1C00
1C00
1C00
1C00
FF80
ENDCHAR
STARTCHAR 006D
ENCODING 109
SWIDTH 804 0
DWIDTH 33 0
BBX 31 19 1 0
BITMAP
FC7C0F80
1CC718C0
1D0720E0
1F03E070
1E03C070
1C038070
1C038070
1C038070
1C038070
1C038070
1C038070
1C038070
1C038070
1C038070
1C038070
1C038070
1C038070
1C038070
FF9FF3FE
ENDCHAR
STARTCHAR 006E
ENCODING 110
SWIDTH 536 0
DWIDTH 22 0
BBX 20 19 1 0
BITMAP
FC3C00
1CC700
1D0300
1F0380
1E0380
1E0380
1C0380
1C0380
1C0380
1C0380
1C0380
1C0380
1C0380
1C0380
1C0380
1C0380
1C0380
1C0380
FF9FF0
ENDCHAR
STARTCHAR 006F
ENCODING 111
SWIDTH 512 0
DWIDTH 21 0
BBX 17 19 2 0
BITMAP
03E000
0C3800
181C00
380E00
700E00
700700
F00700
F00700
F00780
F00780
F00780
F00700
F00700
700700
700E00
380E00
181C00
0C3800
03E000
ENDCHAR
STARTCHAR 0070
ENCODING 112
SWIDTH 512 0
DWIDTH 21 0
BBX 18 28 1 -9
BITMAP
FC7800
1D8E00
1F0700
1E0380
1E0380
1C0380
1C03C0
1C03C0
1C03C0
1C03C0
1C03C0
1C03C0
1C03C0
1C0380
1C0380
1E0380
1F0700
1D8600
1C7800
1C0000
1C0000
1C0000
1C0000
1C0000
1C0000
1C0000
1C0000
FF8000
ENDCHAR
STARTCHAR 0071
ENCODING 113
SWIDTH 512 0
DWIDTH 21 0
BBX 18 28 2 -9
BITMAP
078200
1C6200
383600
701600
701E00
700E00
F00E00
F00E00
F00E00
F00E00
F00E00
F00E00
F00E00
700E00
700E00
701E00
383E00
186E00
07CE00
000E00
000E00
000E00
000E00
000E00
000E00
000E00
000E00
007FC0
ENDCHAR
STARTCHAR 0072
ENCODING 114
SWIDTH 390 0
DWIDTH 16 0
BBX 15 19 1 0
BITMAP
FC38
1CC4
1C8E
1D1E
1F1C
1E0C
1E00
1E00
1C00
1C00
1C00
1C00
1C00
1C00
1C00
1C00
1C00
1C00
FF80
ENDCHAR
STARTCHAR 0073
ENCODING 115
SWIDTH 439 0
DWIDTH 18 0
BBX 14 19 2 0
BITMAP
1F10
60D0
4070
C030
C010
E010
F000
7E00
3F80
1FE0
03F8
80FC
C01C
C00C
E00C
E00C
F008
8C18
83E0
ENDCHAR
STARTCHAR 0074
ENCODING 116
SWIDTH 341 0
DWIDTH 14 0
BBX 12 27 1 0
BITMAP
0400
0400
0400
0400
0400
0C00
0C00
1C00
FFE0
1C00
1C00
1C00
1C00
1C00
1C00
1C00
1C00
1C00
1C00
1C00
1C10
1C10
1C10
1C30
1E20
0FE0
07C0
ENDCHAR
STARTCHAR 0075
ENCODING 117
SWIDTH 536 0
DWIDTH 22 0
BBX 20 19 1 0
BITMAP
FC1F80
1C0380
1C0380
1C0380
1C0380
1C0380
1C0380
1C0380
1C0380
1C0380
1C0380
1C0380
1C0380
1C0780
1C0780
1C0F80
0C0B80
0E3380
03C3F0
ENDCHAR
STARTCHAR 0076
ENCODING 118
SWIDTH 512 0
DWIDTH 21 0
BBX 20 19 1 0
BITMAP
FF0FF0
3C0380
1C0300
1C0300
0E0200
0E0200
0F0600
070400
070400
038C00
038800
03C800
01D800
01D000
00F000
00F000
006000
006000
006000
ENDCHAR
STARTCHAR 0077
ENCODING 119
SWIDTH 756 0
DWIDTH 31 0
BBX 30 19 1 0
BITMAP
FF1FF3FC
3C0780E0
1C0380C0
1C0380C0
0E03C080
0E03C080
0F07C180
0705E100
0704E100
038CE300
03887200
01C87200
01D87600
01F03C00
00F03C00
00F03C00
00601800
00601800
00201800
ENDCHAR
STARTCHAR 0078
ENCODING 120
SWIDTH 512 0
DWIDTH 21 0
BBX 18 19 1 0
BITMAP
FF1FC0
1E0E00
1E0C00
0E0800
0F1800
071000
03A000
03E000
01C000
01E000
01E000
017000
037800
023800
041C00
0C1C00
180E00
180F00
FE3FC0
ENDCHAR
STARTCHAR 0079
ENCODING 121
SWIDTH 536 0
DWIDTH 22 0
BBX 20 28 1 -9
BITMAP
FF8FF0
1E0180
1E0180
0E0100
0E0100
0F0300
070200
070200
038600
038400
038400
01CC00
01C800
01C800
00F800
00F000
00F000
007000
006000
006000
006000
004000
304000
78C000
788000
718000
330000
1E0000
ENDCHAR
STARTCHAR 007A
ENCODING 122
SWIDTH 439 0
DWIDTH 18 0
BBX 14 19 2 0
BITMAP
FFFC
E03C
C038
C078
80F0
80E0
81E0
01C0
0380
0780
0700
0F00
1E04
1C04
3C04
380C
700C
F01C
FFFC
ENDCHAR
STARTCHAR 007B
ENCODING 123
SWIDTH 414 0
DWIDTH 17 0
BBX 10 37 4 -8
BITMAP
01C0
0600
0C00
0800
1800
1800
1800
1C00
1C00
0C00
0E00
0E00
0E00
0600
0600
0600
0400
0800
F000
1800
0C00
0400
0600
0600
0E00
0E00
0E00
0C00
1C00
1C00
1800
1800
1800
0800
0C00
0600
01C0
ENDCHAR
STARTCHAR 007C
ENCODING 124
SWIDTH 292 0
DWIDTH 12 0
BBX 2 38 5 -8
BITMAP
C0
C0
C0
C0
C0
C0
C0
C0
C0
C0
C0
C0
C0
C0
C0
C0
C0
C0
C0
C0
C0
C0
C0
C0
C0
C0
C0
C0
C0
C0
C0
C0
C0
C0
C0
C0
C0
C0
ENDCHAR
STARTCHAR 007D
ENCODING 125
SWIDTH 414 0
DWIDTH 17 0
BBX 10 37 3 -8
BITMAP
E000
1800
0C00
0400
0600
0600
0600
0E00
0E00
0C00
1C00
1C00
1C00
1800
1800
1800
0800
0400
03C0
0600
0800
1800
1800
1800
1C00
1C00
1C00
0C00
0E00
0E00
0600
0600
0600
0400
0C00
1800
E000
ENDCHAR
STARTCHAR 007E
ENCODING 126
SWIDTH 658 0
DWIDTH 27 0
BBX 23 8 2 7
BITMAP
1E0008
7FC004
FFF002
C7FE02
80FF86
803FFE
C00FFC
6001F8
ENDCHAR
STARTCHAR 00A0
ENCODING 160
SWIDTH 268 0
DWIDTH 11 0
BBX 0 0 0 0
BITMAP
ENDCHAR
STARTCHAR 00A1
ENCODING 161
SWIDTH 268 0
DWIDTH 11 0
BBX 5 28 3 -9
BITMAP
70
F8
F8
F8
70
00
20
20
20
20
20
20
70
70
70
70
70
70
70
70
F8
F8
F8
F8
F8
F8
F8
70
ENDCHAR
STARTCHAR 00A2
ENCODING 162
SWIDTH 585 0
DWIDTH 24 0
BBX 14 28 5 -4
BITMAP
0080
0080
0080
0080
0080
07E0
0C98
1888
388C
709C
70BC
F0BC
F098
F080
F080
F080
F080
F084
7084
7084
3884
1888
0E90
03E0
0080
0080
0080
0080
ENDCHAR
STARTCHAR 00A3
ENCODING 163
SWIDTH 731 0
DWIDTH 30 0
BBX 23 28 3 0
BITMAP
0003F0
000618
001C0C
00180E
00303E
00703E
00703E
007018
007000
00F000
00F000
00F000
1FF000
20FF80
00F000
00F000
00F000
00F000
00F000
00F000
00E000
00E000
3EE002
43C002
80E004
817F3C
C23FF8
3C0FF0
ENDCHAR
STARTCHAR 00A4
ENCODING 164
SWIDTH 585 0
DWIDTH 24 0
BBX 20 20 2 4
BITMAP
400020
E1F870
77FEE0
3E07C0
180180
3000C0
3000C0
600060
600060
600060
600060
600060
600060
3000C0
3000C0
180180
3E07C0
77FEE0
E1F870
400020
ENDCHAR
STARTCHAR 00A5
ENCODING 165
SWIDTH 585 0
DWIDTH 24 0
BBX 22 28 1 0
BITMAP
FF83FC
3E0070
1E0060
0E0040
0F0040
0F0080
078080
078100
03C100
03C200
01E200
01E400
00FC00
00F800
007800
1FFFC0
007800
007800
1FFFC0
007800
007800
007800
007800
007800
007800
007800
007800
07FF80
ENDCHAR
STARTCHAR 00A6
ENCODING 166
SWIDTH 292 0
DWIDTH 12 0
BBX 2 37 5 -7
BITMAP
C0
C0
C0
C0
C0
C0
C0
C0
C0
C0
C0
C0
C0
C0
C0
00
00
00
00
00
00
00
C0
C0
C0
C0
C0
C0
C0
C0
C0
C0
C0
C0
C0
C0
C0
ENDCHAR
STARTCHAR 00A7
ENCODING 167
SWIDTH 634 0
DWIDTH 26 0
BBX 15 36 4 -8
BITMAP
07C0
0C20
1830
3078
3078
3070
3800
3800
1C00
1E00
0F00
1FC0
23E0
61F0
40F8
C03C
C01E
C00E
E006
F006
7806
3C04
1F0C
0F98
07E0
03E0
00E0
0070
0070
0038
3838
3C38
3830
3030
1860
0780
ENDCHAR
STARTCHAR 00A8
ENCODING 168
SWIDTH 439 0
DWIDTH 18 0
BBX 12 4 3 22
BITMAP
6060
F0F0
F0F0
6060
ENDCHAR
STARTCHAR 00A9
ENCODING 169
SWIDTH 829 0
DWIDTH 34 0
BBX 30 29 2 1
BITMAP
007FF800
01C00E00
03000300
04000080
08000040
1007C420
20186C10
20303C10
40701C08
40E00C08
C0E00C08
81E00404
81E00004
81E00004
81E00004
81E00004
81E00004
81E00404
C0E00408
40E00808
40700808
20701810
30183030
100FC020
08000040
04000080
03000300
01C00E00
007FF800
ENDCHAR
STARTCHAR 00AA
ENCODING 170
SWIDTH 390 0
DWIDTH 16 0
BBX 11 14 3 14
BITMAP
3C00
6600
4300
6300
6300
0700
1B00
6300
C300
C320
E720
79C0
0000
7FC0
ENDCHAR
STARTCHAR 00AB
ENCODING 171
SWIDTH 463 0
DWIDTH 19 0
BBX 10 16 4 1
BITMAP
1840
30C0
2080
6180
6100
C300
C300
C300
C300
C300
C300
6180
6180
3080
1040
0800
ENDCHAR
STARTCHAR 00AC
ENCODING 172
SWIDTH 585 0
DWIDTH 24 0
BBX 20 8 2 7
BITMAP
FFFFF0
FFFFF0
000030
000030
000030
000030
000030
000030
ENDCHAR
STARTCHAR 00AD
ENCODING 173
SWIDTH 341 0
DWIDTH 14 0
BBX 10 2 2 9
BITMAP
FFC0
FFC0
ENDCHAR
STARTCHAR 00AE
ENCODING 174
SWIDTH 829 0
DWIDTH 34 0
BBX 30 29 2 1
BITMAP
007FF800
01C00E00
03000300
04000080
08000040
13FFC020
2070F030
20707810
40707808
40707808
C0707808
80707004
8070E004
807F8004
8070E004
80707004
80707004
80707804
80707808
40707888
40707888
20703890
20703910
13FC1E20
08000040
04000080
03000300
01C00E00
007FF800
ENDCHAR
STARTCHAR 00AF
ENCODING 175
SWIDTH 463 0
DWIDTH 19 0
BBX 11 2 4 23
BITMAP
FFE0
FFE0
ENDCHAR
STARTCHAR 00B0
ENCODING 176
SWIDTH 560 0
DWIDTH 23 0
BBX 11 10 6 18
BITMAP
1F00
6080
4040
8020
8020
8020
8020
4040
6080
1F00
ENDCHAR
STARTCHAR 00B1
ENCODING 177
SWIDTH 951 0
DWIDTH 39 0
BBX 35 28 2 -2
BITMAP
0000C00000
0000C00000
0000C00000
0000C00000
0000C00000
0000C00000
0000C00000
0000C00000
0000C00000
0000C00000
0000C00000
FFFFFFFFE0
FFFFFFFFE0
0000C00000
0000C00000
0000C00000
0000C00000
0000C00000
0000C00000
0000C00000
0000C00000
0000C00000
0000C00000
0000C00000
0000000000
0000000000
FFFFFFFFC0
FFFFFFFFC0
ENDCHAR
STARTCHAR 00B2
ENCODING 178
SWIDTH 439 0
DWIDTH 18 0
BBX 11 17 4 11
BITMAP
1F00
63C0
81C0
80E0
C0E0
E0E0
70E0
01C0
0180
0300
0C00
1800
2020
4020
4060
FFE0
FFE0
ENDCHAR
STARTCHAR 00B3
ENCODING 179
SWIDTH 439 0
DWIDTH 18 0
BBX 11 17 5 11
BITMAP
1F00
61C0
C0C0
E0E0
F0E0
00E0
00C0
6180
7E00
0180
00C0
00E0
E0E0
F0E0
E0C0
81C0
7F00
ENDCHAR
STARTCHAR 00B4
ENCODING 180
SWIDTH 439 0
DWIDTH 18 0
BBX 7 7 8 21
BITMAP
06
0E
1C
38
30
60
80
ENDCHAR
STARTCHAR 00B5
ENCODING 181
SWIDTH 609 0
DWIDTH 25 0
BBX 21 30 3 -11
BITMAP
600600
E00F00
F00F00
F00F00
F00F00
E00F00
E00F00
E00F00
E00F00
E00F00
E00600
400600
400600
400600
600C08
600E18
5839F8
4FF1F8
43E070
C00000
C00000
C00000
C00000
C00000
E00000
E00000
F00000
F00000
700000
700000
ENDCHAR
STARTCHAR 00B6
ENCODING 182
SWIDTH 560 0
DWIDTH 23 0
BBX 17 35 3 -6
BITMAP
0FFF80
3F8C00
7F8C00
7F8C00
FF8C00
FF8C00
FF8C00
FF8C00
FF8C00
7F8C00
7F8C00
3F8C00
078C00
018C00
018C00
018C00
018C00
018C00
018C00
018C00
018C00
018C00
018C00
018C00
018C00
018C00
018C00
018C00
018C00
018C00
018C00
018C00
018C00
018C00
018C00
ENDCHAR
STARTCHAR 00B7
ENCODING 183
SWIDTH 268 0
DWIDTH 11 0
BBX 5 5 3 10
BITMAP
70
F8
F8
F8
70
ENDCHAR
STARTCHAR 00B8
ENCODING 184
SWIDTH 439 0
DWIDTH 18 0
BBX 8 8 5 -8
BITMAP
30
20
3C
06
07
07
0F
FC
ENDCHAR
STARTCHAR 00B9
ENCODING 185
SWIDTH 463 0
DWIDTH 19 0
BBX 9 17 5 11
BITMAP
0400
0C00
1C00
FC00
1C00
1C00
1C00
1C00
1C00
1C00
1C00
1C00
1C00
1C00
1C00
1C00
FF80
ENDCHAR
STARTCHAR 00BA
ENCODING 186
SWIDTH 390 0
DWIDTH 16 0
BBX 10 14 3 14
BITMAP
1E00
3300
6180
C0C0
C0C0
C0C0
C0C0
C0C0
C1C0
6180
2300
1E00
0000
FFC0
ENDCHAR
STARTCHAR 00BB
ENCODING 187
SWIDTH 487 0
DWIDTH 20 0
BBX 10 16 5 1
BITMAP
8600
C300
4100
6180
20C0
30C0
30C0
30C0
30C0
30C0
30C0
6180
6180
4300
8200
0400
ENDCHAR
STARTCHAR 00BC
ENCODING 188
SWIDTH 853 0
DWIDTH 35 0
BBX 27 28 5 0
BITMAP
04000C00
0C000800
1C001800
FC001000
1C002000
1C006000
1C004000
1C00C000
1C008000
1C018000
1C030000
1C020000
1C060700
1C040F00
1C0C0F00
1C181700
FF901700
00302700
00204700
00604700
00C08700
00810700
0181FFE0
01000700
03000700
06000700
06000700
0C003FE0
ENDCHAR
STARTCHAR 00BD
ENCODING 189
SWIDTH 853 0
DWIDTH 35 0
BBX 27 28 5 0
BITMAP
04000400
0C000C00
1C000800
FC001000
1C003000
1C002000
1C006000
1C004000
1C008000
1C018000
1C010000
1C031F00
1C0663C0
1C0481C0
1C0C80E0
1C08C0E0
FF98E0E0
0030F0E0
002001C0
00600180
00400300
00C00C00
01801800
01002020
03004020
02004060
0600FFE0
0C00FFE0
ENDCHAR
STARTCHAR 00BE
ENCODING 190
SWIDTH 878 0
DWIDTH 36 0
BBX 28 28 5 0
BITMAP
1F000600
61C00400
C0E00800
E0E01800
F0E01000
00C03000
01806000
7E004000
6180C000
00C08000
00E18000
60E30380
F0E20380
E0E60780
81C40780
43880B80
3E181380
00101380
00302380
00606380
00404380
00C08380
0080FFF0
01800380
03000380
02000380
06000380
04001FF0
ENDCHAR
STARTCHAR 00BF
ENCODING 191
SWIDTH 463 0
DWIDTH 19 0
BBX 15 28 1 -9
BITMAP
0380
07C0
07C0
07C0
0380
0000
0380
0440
0820
0820
0860
0060
00C0
0180
0700
0E00
1C00
3800
7800
F03C
F03E
F03E
F006
F006
7006
780C
1C18
07E0
ENDCHAR
STARTCHAR 00C0
ENCODING 192
SWIDTH 780 0
DWIDTH 32 0
BBX 29 38 2 0
BITMAP
00E00000
00F00000
00700000
00380000
000C0000
00060000
00020000
00000000
00000000
00020000
00060000
00070000
00070000
000F8000
000F8000
000F8000
001FC000
0013C000
0033C000
0031E000
0021E000
0061E000
0060F000
0040F000
00C0F000
00C07800
00807800
01807800
01FFFC00
01003C00
03001C00
03001E00
06001E00
06000F00
06000F00
0E000F00
1E000F80
FFE0FFF8
ENDCHAR
STARTCHAR 00C1
ENCODING 193
SWIDTH 780 0
DWIDTH 32 0
BBX 29 38 2 0
BITMAP
00003000
00007000
0000F000
0000E000
00018000
00030000
00060000
00000000
00000000
00020000
00060000
00070000
00070000
000F8000
000F8000
000F8000
001FC000
0013C000
0033C000
0031E000
0021E000
0061E000
0060F000
0040F000
00C0F000
00C07800
00807800
01807800
01FFFC00
03003C00
03001E00
03001E00
06001E00
06000F00
06000F00
0E000F00
1F001FC0
FFE0FFF8
ENDCHAR
STARTCHAR 00C2
ENCODING 194
SWIDTH 780 0
DWIDTH 32 0
BBX 29 38 2 0
BITMAP
00060000
00070000
000F8000
001D8000
0038C000
00603000
00800800
00000000
00000000
00020000
00060000
00070000
00070000
000F8000
000F8000
000F8000
001FC000
0013C000
0033C000
0031E000
0021E000
0061E000
0060F000
0040F000
00C0F000
00C07800
00807800
01807800
01FFFC00
01003C00
03001C00
03001E00
06001E00
06000F00
06000F00
0E000F00
1E000F80
FFE0FFF8
ENDCHAR
STARTCHAR 00C3
ENCODING 195
SWIDTH 780 0
DWIDTH 32 0
BBX 29 37 2 0
BITMAP
003C0800
007F1800
00CFF000
0081F000
00000000
00000000
00000000
00000000
00020000
00060000
00070000
00070000
000F8000
000F8000
000F8000
001FC000
0013C000
0033C000
0031E000
0021E000
0061E000
0060F000
0040F000
00C0F000
00C07800
00807800
01807800
01FFFC00
03003C00
03001E00
03001E00
06001E00
06000F00
06000F00
0E000F00
1F001FC0
FFE0FFF8
ENDCHAR
STARTCHAR 00C4
ENCODING 196
SWIDTH 780 0
DWIDTH 32 0
BBX 29 37 2 0
BITMAP
00603000
00F07800
00F07800
00603000
00000000
00000000
00000000
00000000
00020000
00060000
00070000
00070000
000F8000
000F8000
001F8000
001FC000
0013C000
0033C000
0031E000
0021E000
0061E000
0060F000
0040F000
00C07000
00C07800
00807800
01803800
01FFFC00
01001C00
03001C00
03001E00
06001E00
06000F00
06000F00
0E000F00
1F000F80
FFE0FFF8
ENDCHAR
STARTCHAR 00C5
ENCODING 197
SWIDTH 780 0
DWIDTH 32 0
BBX 29 39 2 0
BITMAP
000F0000
00108000
00204000
00204000
00204000
00204000
00108000
000F0000
00000000
00000000
00020000
00060000
00070000
00070000
000F8000
000F8000
001F8000
001FC000
0013C000
0033C000
0033E000
0021E000
0061E000
0061F000
0040F000
00C0F000
00C0F800
00807800
01807800
01FFFC00
01003C00
03003C00
02003E00
06001E00
06001F00
06001F00
0E000F00
1E000F80
FFE0FFF8
ENDCHAR
STARTCHAR 00C6
ENCODING 198
SWIDTH 1000 0
DWIDTH 41 0
BBX 37 29 1 0
BITMAP
0003FFFFF8
00007C00F8
00007C0038
00007C0038
0000FC0018
0001BC0018
0001BC0008
00033C0008
00033C0408
00063C0400
00063C0400
000C3C0400
000C3C0C00
00183C1C00
00183FFC00
00303C1C00
00303C0C00
00603C0400
00603C0408
00FFFC0408
00803C0408
01803C0008
01003C0018
03003C0018
02003C0018
06003C0038
0E003C0078
1F003C01F8
FFE1FFFFF8
ENDCHAR
STARTCHAR 00C7
ENCODING 199
SWIDTH 682 0
DWIDTH 28 0
BBX 22 38 3 -8
BITMAP
01FF0C
07018C
0E00FC
1C007C
18003C
38003C
38001C
70001C
70000C
70000C
F00008
F00000
F00000
F00000
F00000
F00000
F00000
F00000
F00000
700004
700004
78000C
380008
380008
1C0010
0C0010
0E0020
0300C0
01F780
003800
002000
003800
000E00
000700
000700
000700
010E00
00FC00
ENDCHAR
STARTCHAR 00C8
ENCODING 200
SWIDTH 707 0
DWIDTH 29 0
BBX 23 38 3 0
BITMAP
018000
01C000
01E000
00E000
003000
001800
000C00
000000
000000
FFFFFE
0F003E
0F000E
0F000E
0F0006
0F0006
0F0002
0F0002
0F0102
0F0100
0F0100
0F0100
0F0300
0F0700
0FFF00
0F0700
0F0300
0F0100
0F0102
0F0102
0F0102
0F0002
0F0006
0F0006
0F0006
0F000E
0F001E
0F007E
FFFFFE
ENDCHAR
STARTCHAR 00C9
ENCODING 201
SWIDTH 707 0
DWIDTH 29 0
BBX 23 38 3 0
BITMAP
0000C0
0001E0
0003C0
000380
000600
000C00
000800
000000
000000
FFFFFE
0F003E
0F000E
0F000E
0F0006
0F0006
0F0002
0F0002
0F0102
0F0100
0F0100
0F0100
0F0300
0F0700
0FFF00
0F0700
0F0300
0F0100
0F0102
0F0102
0F0102
0F0002
0F0006
0F0006
0F0006
0F000E
0F001E
0F007E
FFFFFE
ENDCHAR
STARTCHAR 00CA
ENCODING 202
SWIDTH 707 0
DWIDTH 29 0
BBX 23 38 3 0
BITMAP
000800
001C00
003E00
003700
006380
0180C0
020020
000000
000000
FFFFFE
0F003E
0F000E
0F000E
0F0006
0F0006
0F0002
0F0002
0F0102
0F0100
0F0100
0F0100
0F0300
0F0700
0FFF00
0F0700
0F0300
0F0100
0F0102
0F0102
0F0102
0F0002
0F0006
0F0006
0F0006
0F000E
0F001E
0F007E
FFFFFE
ENDCHAR
STARTCHAR 00CB
ENCODING 203
SWIDTH 707 0
DWIDTH 29 0
BBX 23 37 3 0
BITMAP
0180C0
03C1E0
03C1E0
0180C0
000000
000000
000000
000000
FFFFFE
0F003E
0F000E
0F000E
0F0006
0F0006
0F0002
0F0002
0F0102
0F0100
0F0100
0F0300
0F0300
0F0700
0FFF00
0F0700
0F0300
0F0300
0F0102
0F0102
0F0102
0F0002
0F0006
0F0006
0F0006
0F000E
0F001E
0F007E
FFFFFE
ENDCHAR
STARTCHAR 00CC
ENCODING 204
SWIDTH 414 0
DWIDTH 17 0
BBX 12 38 3 0
BITMAP
C000
E000
7000
3800
1800
0C00
0200
0000
0000
FFF0
0F00
0F00
0F00
0F00
0F00
0F00
0F00
0F00
0F00
0F00
0F00
0F00
0F00
0F00
0F00
0F00
0F00
0F00
0F00
0F00
0F00
0F00
0F00
0F00
0F00
0F00
0F00
FFF0
ENDCHAR
STARTCHAR 00CD
ENCODING 205
SWIDTH 414 0
DWIDTH 17 0
BBX 12 38 3 0
BITMAP
0030
0070
00E0
01C0
0380
0200
0400
0000
0000
FFF0
0F00
0F00
0F00
0F00
0F00
0F00
0F00
0F00
0F00
0F00
0F00
0F00
0F00
0F00
0F00
0F00
0F00
0F00
0F00
0F00
0F00
0F00
0F00
0F00
0F00
0F00
0F00
FFF0
ENDCHAR
STARTCHAR 00CE
ENCODING 206
SWIDTH 414 0
DWIDTH 17 0
BBX 12 38 3 0
BITMAP
0600
0E00
0F00
1B80
30C0
6060
8010
0000
0000
FFF0
0F00
0F00
0F00
0F00
0F00
0F00
0F00
0F00
0F00
0F00
0F00
0F00
0F00
0F00
0F00
0F00
0F00
0F00
0F00
0F00
0F00
0F00
0F00
0F00
0F00
0F00
0F00
FFF0
ENDCHAR
STARTCHAR 00CF
ENCODING 207
SWIDTH 365 0
DWIDTH 15 0
BBX 12 37 2 0
BITMAP
6060
F0F0
F0F0
6060
0000
0000
0000
0000
FFF0
0F00
0F00
0F00
0F00
0F00
0F00
0F00
0F00
0F00
0F00
0F00
0F00
0F00
0F00
0F00
0F00
0F00
0F00
0F00
0F00
0F00
0F00
0F00
0F00
0F00
0F00
0F00
FFF0
ENDCHAR
STARTCHAR 00D0
ENCODING 208
SWIDTH 780 0
DWIDTH 32 0
BBX 27 29 3 0
BITMAP
FFFFC000
0F007000
0F001C00
0F000E00
0F000700
0F000780
0F000380
0F0003C0
0F0003C0
0F0001C0
0F0001E0
0F0001E0
0F0001E0
FFF001E0
0F0001E0
0F0001E0
0F0001E0
0F0001E0
0F0001E0
0F0003C0
0F0003C0
0F0003C0
0F000380
0F000700
0F000700
0F000E00
0F001C00
0F007000
FFFFC000
ENDCHAR
STARTCHAR 00D1
ENCODING 209
SWIDTH 780 0
DWIDTH 32 0
BBX 28 37 3 0
BITMAP
003C0800
007F9800
0047F000
0041F000
00000000
00000000
00000000
00000000
FF003FF0
0F800780
0F800300
0FC00300
0FE00300
0DE00300
0DF00300
0CF80300
0C780300
0C7C0300
0C3C0300
0C1E0300
0C1F0300
0C0F0300
0C078300
0C078300
0C03C300
0C03E300
0C01E300
0C00F300
0C00FB00
0C007B00
0C003F00
0C003F00
0C001F00
0C001F00
0C000F00
1E000700
FFC00700
ENDCHAR
STARTCHAR 00D2
ENCODING 210
SWIDTH 707 0
DWIDTH 29 0
BBX 24 38 3 1
BITMAP
038000
03C000
01C000
00E000
007000
003000
000800
000000
000000
00FF00
0300C0
060060
0C0030
1C0038
38001C
38001C
78001E
70000E
70000E
F0000F
F0000F
F0000F
F0000F
F0000F
F0000F
F0000F
F0000F
F0000F
70000E
70000E
78001E
38001C
38001C
1C0038
0C0030
060060
0300C0
00FF00
ENDCHAR
STARTCHAR 00D3
ENCODING 211
SWIDTH 707 0
DWIDTH 29 0
BBX 24 38 3 1
BITMAP
0001C0
0003C0
000380
000700
000E00
000C00
001000
000000
000000
00FF00
0300C0
060060
0C0030
1C0038
38001C
38001C
78001E
70000E
70000E
F0000F
F0000F
F0000F
F0000F
F0000F
F0000F
F0000F
F0000F
F0000F
70000E
70000E
78001E
38001C
38001C
1C0038
0C0030
060060
0300C0
00FF00
ENDCHAR
STARTCHAR 00D4
ENCODING 212
SWIDTH 707 0
DWIDTH 29 0
BBX 24 38 3 0
BITMAP
001800
001800
003C00
007E00
00C300
018180
060060
000000
000000
00FF00
0300C0
060060
0C0030
1C0038
38001C
38001C
78001E
70000E
70000E
F0000F
F0000F
F0000F
F0000F
F0000F
F0000F
F0000F
F0000F
F0000F
70000E
70000E
78001E
38001C
38001C
1C0038
0C0030
060060
0300C0
00FF00
ENDCHAR
STARTCHAR 00D5
ENCODING 213
SWIDTH 707 0
DWIDTH 29 0
BBX 24 37 3 0
BITMAP
01F020
03FC40
023FC0
020780
000000
000000
000000
000000
00FF00
0300C0
060060
0C0030
1C0038
38001C
38001C
78001E
70000E
70000E
F0000F
F0000F
F0000F
F0000F
F0000F
F0000F
F0000F
F0000F
F0000F
70000E
70000E
78001E
38001C
38001C
1C0038
0C0030
060060
0300C0
00FF00
ENDCHAR
STARTCHAR 00D6
ENCODING 214
SWIDTH 707 0
DWIDTH 29 0
BBX 24 37 3 0
BITMAP
018180
03C3C0
03C3C0
018180
000000
000000
000000
000000
00FF00
0300C0
060060
0C0030
1C0038
38001C
38001C
78001E
70000E
70000E
F0000F
F0000F
F0000F
F0000F
F0000F
F0000F
F0000F
F0000F
F0000F
70000E
70000E
78001E
38001C
38001C
1C0038
0C0030
060060
0300C0
00FF00
ENDCHAR
STARTCHAR 00D7
ENCODING 215
SWIDTH 951 0
DWIDTH 39 0
BBX 25 25 7 -2
BITMAP
C0000180
E0000300
70000600
38000C00
1C001800
0E003000
07006000
0380C000
01C18000
00E30000
00760000
003C0000
001C0000
003E0000
00670000
00C38000
0181C000
0300E000
06007000
0C003800
18001C00
30000E00
60000700
C0000380
80000100
ENDCHAR
STARTCHAR 00D8
ENCODING 216
SWIDTH 707 0
DWIDTH 29 0
BBX 24 29 3 1
BITMAP
00FF83
0300E6
06007C
0C003C
1C0038
38003C
38007C
7800FE
7000CE
70018E
F0030F
F0060F
F00E0F
F00C0F
F0180F
F0300F
F0600F
F0E00F
F0C00F
71800E
73000E
7E001E
3E001C
3C001C
1C0038
3C0030
3E0060
6700C0
C1FF00
ENDCHAR
STARTCHAR 00D9
ENCODING 217
SWIDTH 829 0
DWIDTH 34 0
BBX 29 38 3 1
BITMAP
00700000
00700000
00380000
001C0000
000E0000
00020000
00010000
00000000
00000000
FFF01FF8
0F0003C0
0F000180
0F000180
0F000180
0F000180
0F000180
0F000180
0F000180
0F000180
0F000180
0F000180
0F000180
0F000180
0F000180
0F000180
0F000180
0F000180
0F000180
0F000180
0F000180
0F000180
0F000180
07000100
07000300
03800200
01C00600
00E01800
003FF000
ENDCHAR
STARTCHAR 00DA
ENCODING 218
SWIDTH 829 0
DWIDTH 34 0
BBX 29 38 3 1
BITMAP
00003800
00007800
0000F000
0000E000
00018000
00030000
00020000
00000000
00000000
FFF01FF8
0F0003C0
0F000180
0F000180
0F000180
0F000180
0F000180
0F000180
0F000180
0F000180
0F000180
0F000180
0F000180
0F000180
0F000180
0F000180
0F000180
0F000180
0F000180
0F000180
0F000180
0F000180
0F000180
07000100
07000300
03800200
01C00600
00E01800
003FF000
ENDCHAR
STARTCHAR 00DB
ENCODING 219
SWIDTH 829 0
DWIDTH 34 0
BBX 29 38 3 0
BITMAP
00030000
00070000
00078000
000DC000
00186000
00603000
00C00800
00000000
00000000
FFF01FF8
0F0003C0
0F000180
0F000180
0F000180
0F000180
0F000180
0F000180
0F000180
0F000180
0F000180
0F000180
0F000180
0F000180
0F000180
0F000180
0F000180
0F000180
0F000180
0F000180
0F000180
0F000180
0F000180
07000300
07000300
03800600
01C00E00
00E01800
003FF000
ENDCHAR
STARTCHAR 00DC
ENCODING 220
SWIDTH 829 0
DWIDTH 34 0
BBX 29 37 3 0
BITMAP
00303000
00787800
00787800
00303000
00000000
00000000
00000000
00000000
FFF01FF8
0F0003C0
0F000180
0F000180
0F000180
0F000180
0F000180
0F000180
0F000180
0F000180
0F000180
0F000180
0F000180
0F000180
0F000180
0F000180
0F000180
0F000180
0F000180
0F000180
0F000180
0F000180
0F000180
07000100
07000300
03800200
01C00600
00E01800
003FF000
ENDCHAR
STARTCHAR 00DD
ENCODING 221
SWIDTH 731 0
DWIDTH 30 0
BBX 27 38 2 0
BITMAP
00003000
00007000
0000E000
0000C000
00018000
00030000
00020000
00000000
00000000
FFF87FE0
0F801F00
0F800E00
07800C00
03C00C00
03C00800
01E01800
01F01000
00F03000
00F82000
00786000
003C4000
003CC000
001E8000
001F0000
000F0000
000F0000
000F0000
000F0000
000F0000
000F0000
000F0000
000F0000
000F0000
000F0000
000F0000
000F0000
000F0000
01FFF800
ENDCHAR
STARTCHAR 00DE
ENCODING 222
SWIDTH 682 0
DWIDTH 28 0
BBX 23 29 3 0
BITMAP
FFF800
0F0000
0F0000
0F0000
0F0000
0FFF80
0F00E0
0F0078
0F003C
0F003C
0F001E
0F001E
0F001E
0F001E
0F001E
0F003C
0F003C
0F0078
0F00E0
0FFF80
0F0000
0F0000
0F0000
0F0000
0F0000
0F0000
0F0000
0F0000
FFF800
ENDCHAR
STARTCHAR 00DF
ENCODING 223
SWIDTH 536 0
DWIDTH 22 0
BBX 19 29 1 0
BITMAP
00FC00
030E00
060700
0E0780
0C0780
1C0780
1C0780
1C0700
1C0E00
1C1C00
1CE000
1C1800
1C0600
1C0700
1C0380
1C0380
1C01C0
1C01C0
1C01C0
1C01E0
1C01E0
1C01E0
1C01E0
1CE1C0
1DE1C0
1DE1C0
1C8380
1CC700
FC3C00
ENDCHAR
STARTCHAR 00E0
ENCODING 224
SWIDTH 512 0
DWIDTH 21 0
BBX 18 28 2 1
BITMAP
700000
780000
3C0000
1C0000
060000
030000
010000
000000
000000
0FC000
387000
203800
601C00
781C00
781C00
381C00
001C00
00FC00
0F1C00
381C00
701C00
E01C00
E01C40
E03C40
E03C40
E05CC0
709F80
1F0F00
ENDCHAR
STARTCHAR 00E1
ENCODING 225
SWIDTH 512 0
DWIDTH 21 0
BBX 18 28 2 1
BITMAP
001C00
003C00
007800
007000
00C000
018000
010000
000000
000000
0FC000
387000
203800
601C00
781C00
781C00
381C00
001C00
00FC00
0F1C00
381C00
701C00
E01C00
E01C40
E03C40
E03C40
E05CC0
709F80
1F0F00
ENDCHAR
STARTCHAR 00E2
ENCODING 226
SWIDTH 512 0
DWIDTH 21 0
BBX 18 28 2 0
BITMAP
038000
038000
078000
06C000
0C6000
183000
201800
000000
000000
0FC000
387000
203800
601C00
781C00
781C00
381C00
001C00
00FC00
0F1C00
381C00
701C00
E01C00
E01C40
E03C40
E03C40
E05CC0
709F80
1F0F00
ENDCHAR
STARTCHAR 00E3
ENCODING 227
SWIDTH 512 0
DWIDTH 21 0
BBX 18 27 2 0
BITMAP
1E0800
3F8800
27F800
40F000
000000
000000
000000
000000
0FC000
387000
203800
601C00
781C00
781C00
381C00
001C00
00FC00
0F1C00
381C00
701C00
E01C00
E01C40
E03C40
E03C40
E05CC0
709F80
1F0F00
ENDCHAR
STARTCHAR 00E4
ENCODING 228
SWIDTH 512 0
DWIDTH 21 0
BBX 18 27 2 0
BITMAP
383000
787800
787800
383000
000000
000000
000000
000000
0FC000
187000
203800
601C00
701C00
781C00
381C00
001C00
00FC00
0F1C00
381C00
701C00
E01C00
E01C40
E03C40
E03C40
E05CC0
709F80
1F0F00
ENDCHAR
STARTCHAR 00E5
ENCODING 229
SWIDTH 512 0
DWIDTH 21 0
BBX 18 28 2 0
BITMAP
078000
084000
102000
102000
102000
084000
078000
000000
000000
0FC000
387000
203800
601C00
701C00
781C00
381C00
001C00
00FC00
0F1C00
381C00
701C00
E01C00
E01C40
E03C40
E05C40
E09CC0
709F80
1F0F00
ENDCHAR
STARTCHAR 00E6
ENCODING 230
SWIDTH 707 0
DWIDTH 29 0
BBX 25 19 2 0
BITMAP
0FC1F000
38731C00
201E0E00
601E0700
781C0700
781C0700
381C0780
001C0780
03FFFF80
1C1C0000
701C0000
701C0000
E01C0180
E01C0100
E03E0100
E02E0100
E0460200
70830400
1F00F800
ENDCHAR
STARTCHAR 00E7
ENCODING 231
SWIDTH 439 0
DWIDTH 18 0
BBX 15 27 2 -8
BITMAP
07E0
1C10
3808
300C
701C
703C
F03C
F018
F000
F000
F000
F000
F006
7004
7004
300C
3808
1C30
07E0
0100
0200
01C0
0060
0070
0070
08F0
07C0
ENDCHAR
STARTCHAR 00E8
ENCODING 232
SWIDTH 463 0
DWIDTH 19 0
BBX 15 28 2 1
BITMAP
3800
3C00
1C00
0E00
0700
0300
0080
0000
0000
07C0
0C70
3838
301C
701C
701C
F01E
F01E
FFFE
F000
F000
F000
F002
7004
7004
3804
3808
1C10
07E0
ENDCHAR
STARTCHAR 00E9
ENCODING 233
SWIDTH 463 0
DWIDTH 19 0
BBX 15 28 2 1
BITMAP
001C
003C
0038
0070
00E0
00C0
0100
0000
0000
07C0
0C70
3838
301C
701C
701C
F01E
F01E
FFFE
F000
F000
F000
F002
7004
7004
3804
3808
1C10
07E0
ENDCHAR
STARTCHAR 00EA
ENCODING 234
SWIDTH 463 0
DWIDTH 19 0
BBX 15 28 2 0
BITMAP
0180
0380
03C0
07C0
0660
0830
1008
0000
0000
07C0
0C70
3838
301C
701C
701C
F01E
F01E
FFFE
F000
F000
F000
F006
7004
7004
3804
3808
1C10
07E0
ENDCHAR
STARTCHAR 00EB
ENCODING 235
SWIDTH 463 0
DWIDTH 19 0
BBX 15 27 2 0
BITMAP
1818
3C3C
3C3C
1818
0000
0000
0000
0000
07C0
0C70
3838
301C
701C
701C
F00E
F00E
FFFE
F000
F000
F000
F002
7004
7004
3804
3808
1C10
07E0
ENDCHAR
STARTCHAR 00EC
ENCODING 236
SWIDTH 268 0
DWIDTH 11 0
BBX 10 28 0 0
BITMAP
C000
E000
E000
7000
1800
0C00
0400
0000
0000
7E00
0E00
0E00
0E00
0E00
0E00
0E00
0E00
0E00
0E00
0E00
0E00
0E00
0E00
0E00
0E00
0E00
0E00
7FC0
ENDCHAR
STARTCHAR 00ED
ENCODING 237
SWIDTH 268 0
DWIDTH 11 0
BBX 10 28 1 0
BITMAP
00C0
01C0
0380
0700
0600
0C00
1000
0000
0000
FC00
1C00
1C00
1C00
1C00
1C00
1C00
1C00
1C00
1C00
1C00
1C00
1C00
1C00
1C00
1C00
1C00
1C00
FF80
ENDCHAR
STARTCHAR 00EE
ENCODING 238
SWIDTH 268 0
DWIDTH 11 0
BBX 11 28 0 0
BITMAP
0C00
0C00
1E00
1F00
3300
6080
8060
0000
0000
7E00
0E00
0E00
0E00
0E00
0E00
0E00
0E00
0E00
0E00
0E00
0E00
0E00
0E00
0E00
0E00
0E00
0E00
7FC0
ENDCHAR
STARTCHAR 00EF
ENCODING 239
SWIDTH 317 0
DWIDTH 13 0
BBX 11 26 1 0
BITMAP
60C0
F1E0
F1E0
60C0
0000
0000
0000
3E00
0E00
0E00
0E00
0E00
0E00
0E00
0E00
0E00
0E00
0E00
0E00
0E00
0E00
0E00
0E00
0E00
0E00
3FC0
ENDCHAR
STARTCHAR 00F0
ENCODING 240
SWIDTH 512 0
DWIDTH 21 0
BBX 17 29 2 0
BITMAP
1E0400
0F0C00
07B000
03E000
01E000
06E000
0CF000
107800
003800
001C00
03FE00
0C3E00
181E00
380F00
700F00
700700
F00700
F00780
F00780
F00780
F00700
F00700
F00700
700700
700E00
380E00
181C00
0C3800
03E000
ENDCHAR
STARTCHAR 00F1
ENCODING 241
SWIDTH 536 0
DWIDTH 22 0
BBX 20 26 1 0
BITMAP
03E100
07FE00
047E00
000000
000000
000000
000000
FC3C00
1CC700
1D0300
1F0380
1E0380
1E0380
1C0380
1C0380
1C0380
1C0380
1C0380
1C0380
1C0380
1C0380
1C0380
1C0380
1C0380
1C0380
FF9FF0
ENDCHAR
STARTCHAR 00F2
ENCODING 242
SWIDTH 512 0
DWIDTH 21 0
BBX 17 28 2 1
BITMAP
380000
3C0000
1E0000
0E0000
030000
018000
008000
000000
000000
03E000
0C3800
181C00
380E00
700E00
700700
F00700
F00700
F00780
F00780
F00780
F00700
F00700
700700
700E00
380E00
181C00
0C3800
03E000
ENDCHAR
STARTCHAR 00F3
ENCODING 243
SWIDTH 512 0
DWIDTH 21 0
BBX 17 28 2 1
BITMAP
001C00
001C00
003800
007000
006000
00C000
018000
000000
000000
03E000
0C3800
181C00
380E00
700E00
700700
F00700
F00700
F00780
F00780
F00780
F00700
F00700
700700
700E00
380E00
181C00
0C3800
03E000
ENDCHAR
STARTCHAR 00F4
ENCODING 244
SWIDTH 512 0
DWIDTH 21 0
BBX 17 28 2 0
BITMAP
018000
01C000
03C000
036000
062000
0C1000
100C00
000000
000000
03E000
0C3800
181C00
380E00
700E00
700700
F00700
F00700
F00780
F00780
F00780
F00700
F00700
700700
700E00
380E00
181C00
0C3800
03E000
ENDCHAR
STARTCHAR 00F5
ENCODING 245
SWIDTH 512 0
DWIDTH 21 0
BBX 17 27 2 0
BITMAP
0F0400
1FCC00
13F800
10F000
000000
000000
000000
000000
03E000
0C3800
181C00
380E00
700E00
700700
F00700
F00700
F00780
F00780
F00780
F00700
F00700
700700
700E00
380E00
181C00
0C3800
03E000
ENDCHAR
STARTCHAR 00F6
ENCODING 246
SWIDTH 512 0
DWIDTH 21 0
BBX 17 27 2 0
BITMAP
181800
3C3C00
3C3C00
181800
000000
000000
000000
000000
03E000
0C3800
181C00
380E00
700E00
700700
F00700
F00700
F00780
F00780
F00780
F00700
F00700
700700
700E00
380E00
181C00
0C3800
03E000
ENDCHAR
STARTCHAR 00F7
ENCODING 247
SWIDTH 951 0
DWIDTH 39 0
BBX 35 26 2 -2
BITMAP
0000E00000
0001F00000
0001F00000
0001F00000
0000E00000
0000000000
0000000000
0000000000
0000000000
0000000000
0000000000
0000000000
FFFFFFFFE0
FFFFFFFFE0
0000000000
0000000000
0000000000
0000000000
0000000000
0000000000
0000000000
0000E00000
0001F00000
0001F00000
0001F00000
0000E00000
ENDCHAR
STARTCHAR 00F8
ENCODING 248
SWIDTH 512 0
DWIDTH 21 0
BBX 17 19 2 0
BITMAP
03E100
0C3B00
181E00
380E00
700E00
701F00
F03700
F06700
F0C780
F08780
F10780
F20700
F40700
7C0700
780E00
380E00
781C00
4C3800
83E000
ENDCHAR
STARTCHAR 00F9
ENCODING 249
SWIDTH 536 0
DWIDTH 22 0
BBX 20 28 1 1
BITMAP
0E0000
0F0000
070000
038000
01C000
004000
002000
000000
000000
FC1F80
1C0380
1C0380
1C0380
1C0380
1C0380
1C0380
1C0380
1C0380
1C0380
1C0380
1C0380
1C0380
1C0780
1C0780
1C0F80
0C0B80
0E3380
03C3F0
ENDCHAR
STARTCHAR 00FA
ENCODING 250
SWIDTH 536 0
DWIDTH 22 0
BBX 20 28 1 1
BITMAP
000700
000F00
001E00
001800
003000
006000
004000
000000
000000
FC1F80
1C0380
1C0380
1C0380
1C0380
1C0380
1C0380
1C0380
1C0380
1C0380
1C0380
1C0380
1C0380
1C0780
1C0780
1C0F80
0C0B80
0E3380
03C3F0
ENDCHAR
STARTCHAR 00FB
ENCODING 251
SWIDTH 536 0
DWIDTH 22 0
BBX 20 28 1 0
BITMAP
006000
00E000
00F000
01B000
031800
020400
040200
000000
000000
FC1F80
1C0380
1C0380
1C0380
1C0380
1C0380
1C0380
1C0380
1C0380
1C0380
1C0380
1C0380
1C0380
1C0780
1C0780
1C0F80
0C0B80
0E3380
03C3F0
ENDCHAR
STARTCHAR 00FC
ENCODING 252
SWIDTH 536 0
DWIDTH 22 0
BBX 20 27 1 0
BITMAP
060600
0F0F00
0F0F00
060600
000000
000000
000000
000000
FC0F80
1C0380
1C0380
1C0380
1C0380
1C0380
1C0380
1C0380
1C0380
1C0380
1C0380
1C0380
1C0380
1C0780
1C0780
1C0F80
0C0B80
0E3380
03C3F0
ENDCHAR
STARTCHAR 00FD
ENCODING 253
SWIDTH 536 0
DWIDTH 22 0
BBX 20 37 1 -8
BITMAP
000300
000700
000F00
001C00
001800
003000
000000
000000
000000
FF8FF0
1E0180
1E0180
0E0100
0E0100
0F0300
070200
070200
038600
038400
038400
01CC00
01C800
01C800
00F800
00F000
00F000
007000
006000
006000
006000
004000
304000
78C000
788000
718000
330000
1E0000
ENDCHAR
STARTCHAR 00FE
ENCODING 254
SWIDTH 512 0
DWIDTH 21 0
BBX 18 38 1 -10
BITMAP
0C0000
3C0000
FC0000
1C0000
1C0000
1C0000
1C0000
1C0000
1C0000
1C1E00
1C7F00
1CC780
1D0380
1F03C0
1E03C0
1E0380
1C0380
1C0380
1C0700
1C0700
1C0600
1C0C00
1C1C00
1C1800
1C3000
1CC000
1D8000
1E0000
1C0000
1C0000
1C0000
1C0000
1C0000
1C0000
1C0000
1C0000
380000
C00000
ENDCHAR
STARTCHAR 00FF
ENCODING 255
SWIDTH 512 0
DWIDTH 21 0
BBX 19 36 1 -9
BITMAP
030600
078F00
078F00
030600
000000
000000
000000
000000
FF8FE0
1E0380
1E0100
0E0300
0E0200
070200
070200
070600
038400
038400
038C00
01C800
01C800
01C800
00F000
00F000
00F000
006000
006000
006000
004000
004000
304000
784000
788000
798000
3B0000
1E0000
ENDCHAR
STARTCHAR 0100
ENCODING 256
SWIDTH 780 0
DWIDTH 32 0
BBX 29 35 2 0
BITMAP
007FF000
007FF000
00000000
00000000
00000000
00000000
00020000
00060000
00070000
00070000
000F8000
000F8000
000F8000
001FC000
001BC000
0033C000
0031E000
0031E000
0061E000
0060F000
0060F000
00C0F000
00C07800
00C07800
01807800
01FFFC00
01803C00
03003C00
03001E00
07001E00
06001F00
06000F00
0E000F00
1F000F80
FFE0FFF8
ENDCHAR
STARTCHAR 0101
ENCODING 257
SWIDTH 512 0
DWIDTH 21 0
BBX 18 26 2 0
BITMAP
3FF800
3FF800
000000
000000
000000
000000
000000
0FC000
387000
203800
601C00
781C00
781C00
381C00
001C00
00FC00
0F1C00
381C00
701C00
E01C00
E01C40
E03C40
E03C40
E05CC0
709F80
1F0F00
ENDCHAR
STARTCHAR 0102
ENCODING 258
SWIDTH 780 0
DWIDTH 32 0
BBX 29 37 2 0
BITMAP
00801000
00C03000
00402000
00706000
003FC000
001F8000
00000000
00000000
00020000
00060000
00070000
00070000
000F8000
000F8000
000F8000
001FC000
0013C000
0033C000
0033E000
0021E000
0061E000
0061F000
0040F000
00C0F000
00C07800
00807800
01807800
01FFFC00
01003C00
03003C00
03003E00
06001E00
06001F00
06001F00
0E001F00
1E001F80
FFE0FFF8
ENDCHAR
STARTCHAR 0103
ENCODING 259
SWIDTH 512 0
DWIDTH 21 0
BBX 18 28 2 0
BITMAP
200800
200800
201800
183000
0FE000
07C000
000000
000000
000000
0FC000
387000
203800
601C00
781C00
781C00
381C00
001C00
00FC00
0F1C00
381C00
701C00
E01C00
E01C40
E03C40
E03C40
E05CC0
709F80
1F0F00
ENDCHAR
STARTCHAR 0104
ENCODING 260
SWIDTH 780 0
DWIDTH 32 0
BBX 29 38 2 -9
BITMAP
00020000
00060000
00070000
00070000
000F8000
000F8000
001F8000
001BC000
0013C000
0033C000
0031E000
0021E000
0060E000
0040F000
0040F000
00C07000
00807800
00803800
01FFF800
01003C00
01001C00
03001C00
02001E00
06000E00
06000F00
06000F00
0E000F00
1E000F80
FFE0FFF8
00000600
00000800
00003800
00003000
00007000
00007000
00007080
00003F00
00001E00
ENDCHAR
STARTCHAR 0105
ENCODING 261
SWIDTH 512 0
DWIDTH 21 0
BBX 18 28 2 -9
BITMAP
0FC000
187000
203800
601C00
701C00
781C00
381C00
001C00
007C00
0F9C00
381C00
701C00
E01C00
E01C00
E03C40
E03C40
E05C40
709C80
1F0F80
000600
001800
003000
003000
006000
006000
006100
003F00
001C00
ENDCHAR
STARTCHAR 0106
ENCODING 262
SWIDTH 682 0
DWIDTH 28 0
BBX 22 38 3 1
BITMAP
000180
000380
000780
000600
000C00
001800
001000
000000
000000
01FE08
070398
0C00F8
1C00F8
180078
380038
780038
700018
700018
F00008
F00008
F00000
F00000
F00000
F00000
F00000
F00000
F00000
F00000
70000C
70000C
78000C
380018
380018
1C0018
0C0030
060060
0300C0
00FF80
ENDCHAR
STARTCHAR 0107
ENCODING 263
SWIDTH 439 0
DWIDTH 18 0
BBX 14 28 2 0
BITMAP
000C
001C
003C
0030
0060
00C0
0080
0000
0000
07E0
1C10
3808
300C
701C
703C
F03C
F018
F000
F000
F000
F000
F004
7004
7004
300C
3808
0C30
07E0
ENDCHAR
STARTCHAR 0108
ENCODING 264
SWIDTH 682 0
DWIDTH 28 0
BBX 22 38 3 0
BITMAP
001000
003800
007C00
006C00
00C600
030180
0600C0
000000
000000
01FE08
070398
0C00F8
1C00F8
180078
380038
780038
700018
700018
F00008
F00008
F00000
F00000
F00000
F00000
F00000
F00000
F00000
F00000
70000C
70000C
78000C
380018
380018
1C0018
0C0030
060060
0300C0
00FF80
ENDCHAR
STARTCHAR 0109
ENCODING 265
SWIDTH 439 0
DWIDTH 18 0
BBX 15 28 2 0
BITMAP
0180
01C0
01C0
0360
0620
0C10
1808
0000
0000
07E0
1C10
3808
300C
701C
703C
F03C
F018
F000
F000
F000
F000
F006
7004
7004
300C
3808
0C30
07E0
ENDCHAR
STARTCHAR 010A
ENCODING 266
SWIDTH 682 0
DWIDTH 28 0
BBX 22 37 3 0
BITMAP
001800
003C00
003C00
001800
000000
000000
000000
000000
01FE08
070398
0C00F8
1C00F8
180078
380038
780038
700018
700018
F00008
F00008
F00000
F00000
F00000
F00000
F00000
F00000
F00000
F00000
70000C
70000C
78000C
380018
380018
1C0018
0C0030
060060
0300C0
00FF80
ENDCHAR
STARTCHAR 010B
ENCODING 267
SWIDTH 439 0
DWIDTH 18 0
BBX 15 27 2 0
BITMAP
0180
03C0
03C0
0180
0000
0000
0000
0000
07E0
1C30
3818
300C
701C
703C
F03C
F018
F000
F000
F000
F000
F006
7004
7004
300C
3808
0C30
07E0
ENDCHAR
STARTCHAR 010C
ENCODING 268
SWIDTH 682 0
DWIDTH 28 0
BBX 22 37 3 0
BITMAP
0600C0
030180
01C700
00FE00
007C00
003800
000000
000000
01FE08
070398
0C00F8
1C00F8
180078
380038
780038
700018
700018
F00008
F00008
F00000
F00000
F00000
F00000
F00000
F00000
F00000
F00000
70000C
70000C
78000C
380018
380018
1C0018
0C0030
060060
0300C0
00FF80
ENDCHAR
STARTCHAR 010D
ENCODING 269
SWIDTH 439 0
DWIDTH 18 0
BBX 15 28 2 0
BITMAP
1000
1808
0C10
0670
03E0
03C0
01C0
0000
0000
07E0
1C10
3808
300C
701C
703C
F03C
F018
F000
F000
F000
F000
F006
7004
7004
300C
3808
0C30
07E0
ENDCHAR
STARTCHAR 010E
ENCODING 270
SWIDTH 780 0
DWIDTH 32 0
BBX 27 37 3 0
BITMAP
03006000
0181C000
00E38000
007F0000
003E0000
001C0000
00000000
00000000
FFFFC000
0F007000
0F001C00
0F000E00
0F000700
0F000780
0F000380
0F0003C0
0F0003C0
0F0001C0
0F0001E0
0F0001E0
0F0001E0
0F0001E0
0F0001E0
0F0001E0
0F0001E0
0F0001E0
0F0001E0
0F0003C0
0F0003C0
0F0003C0
0F000380
0F000700
0F000700
0F000E00
0F001C00
0F007000
FFFFC000
ENDCHAR
STARTCHAR 010F
ENCODING 271
SWIDTH 560 0
DWIDTH 23 0
BBX 21 29 2 0
BITMAP
00FE70
000E78
000E78
000E38
000E08
000E08
000E10
000E20
000E40
000E00
0F8E00
1C4E00
382E00
701E00
701E00
700E00
F00E00
F00E00
F00E00
F00E00
F00E00
F00E00
F00E00
700E00
700E00
701E00
383E00
186E00
07CFC0
ENDCHAR
STARTCHAR 0110
ENCODING 272
SWIDTH 780 0
DWIDTH 32 0
BBX 27 29 3 0
BITMAP
FFFFC000
0F007000
0F001C00
0F000E00
0F000700
0F000780
0F000380
0F0003C0
0F0003C0
0F0001C0
0F0001E0
0F0001E0
0F0001E0
FFF001E0
0F0001E0
0F0001E0
0F0001E0
0F0001E0
0F0001E0
0F0003C0
0F0003C0
0F0003C0
0F000380
0F000700
0F000700
0F000E00
0F001C00
0F007000
FFFFC000
ENDCHAR
STARTCHAR 0111
ENCODING 273
SWIDTH 512 0
DWIDTH 21 0
BBX 18 29 2 0
BITMAP
00FE00
000E00
000E00
000E00
000E00
0FFFC0
000E00
000E00
000E00
000E00
0F8E00
1C4E00
382E00
701E00
701E00
700E00
F00E00
F00E00
F00E00
F00E00
F00E00
F00E00
F00E00
700E00
700E00
701E00
383E00
186E00
07CFC0
ENDCHAR
STARTCHAR 0112
ENCODING 274
SWIDTH 707 0
DWIDTH 29 0
BBX 23 35 3 0
BITMAP
01FFC0
01FFC0
000000
000000
000000
000000
FFFFFE
0F003E
0F000E
0F000E
0F0006
0F0006
0F0002
0F0002
0F0102
0F0100
0F0100
0F0100
0F0300
0F0700
0FFF00
0F0700
0F0300
0F0100
0F0102
0F0102
0F0102
0F0002
0F0006
0F0006
0F0006
0F000E
0F001E
0F007E
FFFFFE
ENDCHAR
STARTCHAR 0113
ENCODING 275
SWIDTH 463 0
DWIDTH 19 0
BBX 15 26 2 0
BITMAP
3FF8
3FF8
0000
0000
0000
0000
0000
07C0
0C70
3838
303C
701C
701C
F01E
F01E
FFFE
F000
F000
F000
F004
7004
7004
380C
3808
1C30
07E0
ENDCHAR
STARTCHAR 0114
ENCODING 276
SWIDTH 707 0
DWIDTH 29 0
BBX 23 37 3 0
BITMAP
020040
030040
018080
01C180
00FF00
007E00
000000
000000
FFFFFE
0F003E
0F000E
0F000E
0F0006
0F0006
0F0002
0F0002
0F0102
0F0100
0F0100
0F0100
0F0300
0F0700
0FFF00
0F0700
0F0300
0F0100
0F0102
0F0102
0F0102
0F0002
0F0006
0F0006
0F0006
0F000E
0F001E
0F007E
FFFFFE
ENDCHAR
STARTCHAR 0115
ENCODING 277
SWIDTH 463 0
DWIDTH 19 0
BBX 15 28 2 0
BITMAP
2008
2008
3018
1830
0FE0
07C0
0000
0000
0000
07C0
0C70
3838
303C
701C
701C
F01E
F01E
FFFE
F000
F000
F000
F004
7004
700C
300C
3818
1C30
07E0
ENDCHAR
STARTCHAR 0116
ENCODING 278
SWIDTH 707 0
DWIDTH 29 0
BBX 23 37 3 0
BITMAP
001800
003C00
003C00
001800
000000
000000
000000
000000
FFFFFE
0F003E
0F000E
0F000E
0F0006
0F0006
0F0002
0F0002
0F0102
0F0100
0F0100
0F0100
0F0300
0F0700
0FFF00
0F0700
0F0300
0F0100
0F0102
0F0102
0F0102
0F0002
0F0006
0F0006
0F0006
0F000E
0F001E
0F007E
FFFFFE
ENDCHAR
STARTCHAR 0117
ENCODING 279
SWIDTH 463 0
DWIDTH 19 0
BBX 15 27 2 0
BITMAP
0180
03C0
03C0
0180
0000
0000
0000
0000
07C0
0C30
3818
301C
700C
700C
F00E
F00E
FFFE
F000
F000
F000
F002
7004
7004
3804
3808
1C10
07E0
ENDCHAR
STARTCHAR 0118
ENCODING 280
SWIDTH 707 0
DWIDTH 29 0
BBX 23 38 3 -9
BITMAP
FFFFFE
0F003E
0F000E
0F0006
0F0006
0F0002
0F0002
0F0102
0F0100
0F0100
0F0100
0F0300
0F0700
0FFF00
0F0700
0F0300
0F0100
0F0100
0F0102
0F0102
0F0002
0F0002
0F0006
0F0006
0F0006
0F000E
0F001E
0F003E
FFFFFE
0000C0
000180
000300
000600
000E00
000E00
000F10
0007F0
0003C0
ENDCHAR
STARTCHAR 0119
ENCODING 281
SWIDTH 463 0
DWIDTH 19 0
BBX 15 28 2 -9
BITMAP
07C0
0C70
3838
3818
701C
701C
F01E
F01E
F01E
FFFE
F000
F000
F000
7004
7004
3004
3808
1C18
07E0
00C0
0180
0300
0300
0600
0600
0710
07E0
01C0
ENDCHAR
STARTCHAR 011A
ENCODING 282
SWIDTH 707 0
DWIDTH 29 0
BBX 23 37 3 0
BITMAP
030060
0180C0
00E380
007F00
003E00
001C00
000000
000000
FFFFFE
0F003E
0F000E
0F000E
0F0006
0F0006
0F0002
0F0002
0F0102
0F0100
0F0100
0F0100
0F0300
0F0700
0FFF00
0F0700
0F0300
0F0100
0F0102
0F0102
0F0102
0F0002
0F0006
0F0006
0F0006
0F000E
0F001E
0F007E
FFFFFE
ENDCHAR
STARTCHAR 011B
ENCODING 283
SWIDTH 463 0
DWIDTH 19 0
BBX 15 27 2 1
BITMAP
1018
0C30
0E60
07E0
03C0
0180
0000
0000
07C0
0C70
3838
301C
701C
701C
F01E
F01E
FFFE
F000
F000
F000
F006
7004
7004
3804
3808
1C10
07E0
ENDCHAR
STARTCHAR 011C
ENCODING 284
SWIDTH 707 0
DWIDTH 29 0
BBX 25 38 3 0
BITMAP
00100000
00380000
00780000
006C0000
00C60000
03010000
0600C000
00000000
00100000
01FE0800
06039800
0C00F800
1C00F800
18007800
38003800
38003800
70001800
70001800
70000800
F0000800
F0000000
F0000000
F0000000
F007FF80
F0007800
F0007800
F0007800
F0007800
70007800
70007800
70007800
38007800
38007800
1800F800
1C00C800
0C018800
06030800
01FE0800
ENDCHAR
STARTCHAR 011D
ENCODING 285
SWIDTH 536 0
DWIDTH 22 0
BBX 20 37 2 -9
BITMAP
00C000
01C000
01C000
036000
063000
041800
180C00
000000
000000
07E1C0
1C3A60
381EF0
701EF0
700EE0
F00F00
F00F00
F00F00
700E00
701E00
381C00
1C3800
07E000
380000
400000
C00000
F00000
FFFE00
3FFF00
0F0780
7001C0
4000C0
C000C0
C000C0
C00180
600180
380600
07F800
ENDCHAR
STARTCHAR 011E
ENCODING 286
SWIDTH 707 0
DWIDTH 29 0
BBX 25 38 3 0
BITMAP
02004000
0200C000
0300C000
01018000
01C38000
00FF0000
003C0000
00000000
00100000
01FE0800
06039800
0C00F800
1C00F800
18007800
38003800
38003800
70001800
70001800
70000800
F0000800
F0000000
F0000000
F0000000
F007FF80
F0007800
F0007800
F0007800
F0007800
70007800
70007800
70007800
38007800
38007800
18007800
1C00C800
0C018800
07030800
01FE0800
ENDCHAR
STARTCHAR 011F
ENCODING 287
SWIDTH 536 0
DWIDTH 22 0
BBX 20 37 2 -9
BITMAP
100400
100400
180C00
0C1800
07F000
03E000
000000
000000
000000
07E1C0
1C3A60
381EF0
701EF0
700EE0
F00F00
F00F00
F00F00
700E00
701E00
381C00
1C3800
07E000
380000
400000
C00000
E00000
FFFE00
3FFF00
0F0780
7001C0
4000C0
C000C0
C000C0
C00180
600180
380600
07F800
ENDCHAR
STARTCHAR 0120
ENCODING 288
SWIDTH 707 0
DWIDTH 29 0
BBX 25 37 3 0
BITMAP
00180000
003C0000
003C0000
00180000
00000000
00000000
00000000
00100000
01FE0800
06039800
0C00F800
1C00F800
18007800
38003800
38003800
70001800
70001800
70000800
F0000800
F0000000
F0000000
F0000000
F007FF80
F0007800
F0007800
F0007800
F0007800
70007800
70007800
70007800
38007800
38007800
18007800
1C00C800
0C018800
07030800
01FE0800
ENDCHAR
STARTCHAR 0121
ENCODING 289
SWIDTH 536 0
DWIDTH 22 0
BBX 20 36 2 -9
BITMAP
00C000
01E000
01E000
00C000
000000
000000
000000
000000
07E1C0
1C3A60
381EF0
701EF0
700EE0
F00F00
F00F00
F00F00
700E00
701E00
381C00
1C3800
07E000
380000
400000
C00000
F00000
FFFE00
3FFF00
0F0780
7001C0
4000C0
C000C0
C000C0
C00180
600180
380600
07F800
ENDCHAR
STARTCHAR 0122
ENCODING 290
SWIDTH 707 0
DWIDTH 29 0
BBX 25 40 3 -10
BITMAP
00100000
01FE0800
06039800
0C00F800
1C00F800
18007800
38003800
38003800
70001800
70001800
70000800
F0000800
F0000000
F0000000
F0000000
F007FF80
F0007800
F0007800
F0007800
F0007800
70007800
70007800
70007800
38007800
38007800
18007800
1C00C800
0C018800
07030800
01EE0800
00100000
00000000
00380000
003C0000
003C0000
000C0000
000C0000
00080000
00100000
00200000
ENDCHAR
STARTCHAR 0123
ENCODING 291
SWIDTH 536 0
DWIDTH 22 0
BBX 20 39 2 -9
BITMAP
008000
010000
020000
020000
060000
078000
07C000
07C000
038000
000000
000000
07E1C0
1C3A60
381EF0
701EF0
700EE0
F00F00
F00F00
F00F00
700E00
701E00
381C00
1C3800
07E000
380000
400000
C00000
F00000
FFFE00
3FFF00
0F0780
7001C0
4000C0
C000C0
C000C0
C00180
600180
380600
07F800
ENDCHAR
STARTCHAR 0124
ENCODING 292
SWIDTH 804 0
DWIDTH 33 0
BBX 28 38 3 0
BITMAP
00060000
00060000
000F0000
00198000
0030C000
00606000
01801800
00000000
00000000
FFF0FFF0
0F000F00
0F000F00
0F000F00
0F000F00
0F000F00
0F000F00
0F000F00
0F000F00
0F000F00
0F000F00
0F000F00
0F000F00
0FFFFF00
0F000F00
0F000F00
0F000F00
0F000F00
0F000F00
0F000F00
0F000F00
0F000F00
0F000F00
0F000F00
0F000F00
0F000F00
0F000F00
0F000F00
FFF0FFF0
ENDCHAR
STARTCHAR 0125
ENCODING 293
SWIDTH 536 0
DWIDTH 22 0
BBX 20 38 1 0
BITMAP
004000
00E000
00E000
01B000
031800
060C00
080200
000000
000000
FC0000
1C0000
1C0000
1C0000
1C0000
1C0000
1C0000
1C0000
1C0000
1C0000
1C3C00
1CC700
1D0300
1D0380
1E0380
1E0380
1C0380
1C0380
1C0380
1C0380
1C0380
1C0380
1C0380
1C0380
1C0380
1C0380
1C0380
1C0380
FF9FF0
ENDCHAR
STARTCHAR 0126
ENCODING 294
SWIDTH 780 0
DWIDTH 32 0
BBX 29 29 2 0
BITMAP
7FF87FF8
07800780
07800780
07800780
07800780
07800780
07800780
FFFFFFF8
07800780
07800780
07800780
07800780
07800780
07FFFF80
07800780
07800780
07800780
07800780
07800780
07800780
07800780
07800780
07800780
07800780
07800780
07800780
07800780
07800780
7FF87FF8
ENDCHAR
STARTCHAR 0127
ENCODING 295
SWIDTH 536 0
DWIDTH 22 0
BBX 20 29 1 0
BITMAP
FC0000
1C0000
1C0000
1C0000
1C0000
FFFC00
1C0000
1C0000
1C0000
1C0000
1C3C00
1CC700
1D8300
1D0380
1E0380
1E0380
1C0380
1C0380
1C0380
1C0380
1C0380
1C0380
1C0380
1C0380
1C0380
1C0380
1C0380
1C0380
FF8FF0
ENDCHAR
STARTCHAR 0128
ENCODING 296
SWIDTH 414 0
DWIDTH 17 0
BBX 12 37 3 0
BITMAP
3C10
7F10
CFF0
83E0
0000
0000
0000
0000
FFF0
0F00
0F00
0F00
0F00
0F00
0F00
0F00
0F00
0F00
0F00
0F00
0F00
0F00
0F00
0F00
0F00
0F00
0F00
0F00
0F00
0F00
0F00
0F00
0F00
0F00
0F00
0F00
FFF0
ENDCHAR
STARTCHAR 0129
ENCODING 297
SWIDTH 292 0
DWIDTH 12 0
BBX 11 26 1 0
BITMAP
7C20
FFE0
8FC0
0000
0000
0000
0000
7E00
0E00
0E00
0E00
0E00
0E00
0E00
0E00
0E00
0E00
0E00
0E00
0E00
0E00
0E00
0E00
0E00
0E00
7FC0
ENDCHAR
STARTCHAR 012A
ENCODING 298
SWIDTH 414 0
DWIDTH 17 0
BBX 12 35 3 0
BITMAP
FFE0
FFE0
0000
0000
0000
0000
FFF0
0F00
0F00
0F00
0F00
0F00
0F00
0F00
0F00
0F00
0F00
0F00
0F00
0F00
0F00
0F00
0F00
0F00
0F00
0F00
0F00
0F00
0F00
0F00
0F00
0F00
0F00
0F00
FFF0
ENDCHAR
STARTCHAR 012B
ENCODING 299
SWIDTH 317 0
DWIDTH 13 0
BBX 11 25 1 0
BITMAP
FFE0
FFE0
0000
0000
0000
0000
7E00
0E00
0E00
0E00
0E00
0E00
0E00
0E00
0E00
0E00
0E00
0E00
0E00
0E00
0E00
0E00
0E00
0E00
7FC0
ENDCHAR
STARTCHAR 012C
ENCODING 300
SWIDTH 365 0
DWIDTH 15 0
BBX 12 37 2 0
BITMAP
8010
C010
4020
7060
3FC0
1F80
0000
0000
FFF0
0F00
0F00
0F00
0F00
0F00
0F00
0F00
0F00
0F00
0F00
0F00
0F00
0F00
0F00
0F00
0F00
0F00
0F00
0F00
0F00
0F00
0F00
0F00
0F00
0F00
0F00
0F00
FFF0
ENDCHAR
STARTCHAR 012D
ENCODING 301
SWIDTH 268 0
DWIDTH 11 0
BBX 11 27 0 0
BITMAP
8020
8020
4040
60C0
3F80
0E00
0000
0000
3E00
0E00
0E00
0E00
0E00
0E00
0E00
0E00
0E00
0E00
0E00
0E00
0E00
0E00
0E00
0E00
0E00
0E00
3FC0
ENDCHAR
STARTCHAR 012E
ENCODING 302
SWIDTH 414 0
DWIDTH 17 0
BBX 12 38 3 -9
BITMAP
FFF0
0F00
0F00
0F00
0F00
0F00
0F00
0F00
0F00
0F00
0F00
0F00
0F00
0F00
0F00
0F00
0F00
0F00
0F00
0F00
0F00
0F00
0F00
0F00
0F00
0F00
0F00
0F00
FFF0
00C0
0180
0300
0600
0E00
0E00
0F00
07F0
03C0
ENDCHAR
STARTCHAR 012F
ENCODING 303
SWIDTH 292 0
DWIDTH 12 0
BBX 8 37 2 -9
BITMAP
18
3C
3C
18
00
00
00
00
00
F8
38
38
38
38
38
38
38
38
38
38
38
38
38
38
38
38
38
FF
0C
18
30
30
60
60
61
7E
3C
ENDCHAR
STARTCHAR 0130
ENCODING 304
SWIDTH 414 0
DWIDTH 17 0
BBX 12 37 3 0
BITMAP
0600
0F00
0F00
0600
0000
0000
0000
0000
FFF0
0F00
0F00
0F00
0F00
0F00
0F00
0F00
0F00
0F00
0F00
0F00
0F00
0F00
0F00
0F00
0F00
0F00
0F00
0F00
0F00
0F00
0F00
0F00
0F00
0F00
0F00
0F00
FFF0
ENDCHAR
STARTCHAR 0131
ENCODING 305
SWIDTH 268 0
DWIDTH 11 0
BBX 9 19 1 0
BITMAP
FC00
1C00
1C00
1C00
1C00
1C00
1C00
1C00
1C00
1C00
1C00
1C00
1C00
1C00
1C00
1C00
1C00
1C00
FF80
ENDCHAR
STARTCHAR 0132
ENCODING 306
SWIDTH 878 0
DWIDTH 36 0
BBX 32 29 3 0
BITMAP
FFF00FFF
0F0000F0
0F0000F0
0F0000F0
0F0000F0
0F0000F0
0F0000F0
0F0000F0
0F0000F0
0F0000F0
0F0000F0
0F0000F0
0F0000F0
0F0000F0
0F0000F0
0F0000F0
0F0000F0
0F0000F0
0F0000F0
0F0000F0
0F03C0F0
0F07C0F0
0F07C0F0
0F07C0F0
0F0600E0
0F0600E0
0F0200C0
0F030180
FFF0FF00
ENDCHAR
STARTCHAR 0133
ENCODING 307
SWIDTH 536 0
DWIDTH 22 0
BBX 17 37 1 -9
BITMAP
180300
3C0780
3C0780
180300
000000
000000
000000
000000
000000
FC3F80
1C0380
1C0380
1C0380
1C0380
1C0380
1C0380
1C0380
1C0380
1C0380
1C0380
1C0380
1C0380
1C0380
1C0380
1C0380
1C0380
1C0380
FF0380
000380
000380
000380
018380
03C380
038300
030600
010E00
00F800
ENDCHAR
STARTCHAR 0134
ENCODING 308
SWIDTH 536 0
DWIDTH 22 0
BBX 19 38 2 0
BITMAP
000C00
000C00
001E00
003B00
006180
00C0C0
010020
000000
000000
01FFE0
001E00
001E00
001E00
001E00
001E00
001E00
001E00
001E00
001E00
001E00
001E00
001E00
001E00
001E00
001E00
001E00
001E00
001E00
001E00
781E00
F81E00
F81E00
F81E00
C01C00
C01C00
401800
603000
1FE000
ENDCHAR
STARTCHAR 0135
ENCODING 309
SWIDTH 341 0
DWIDTH 14 0
BBX 14 37 -1 -9
BITMAP
00C0
00E0
01E0
01B0
0318
040C
0800
0000
0000
0FE0
00E0
00E0
00E0
00E0
00E0
00E0
00E0
00E0
00E0
00E0
00E0
00E0
00E0
00E0
00E0
00E0
00E0
00E0
00E0
00E0
00E0
E0E0
F0E0
E0C0
C180
6380
3E00
ENDCHAR
STARTCHAR 0136
ENCODING 310
SWIDTH 780 0
DWIDTH 32 0
BBX 27 38 3 -10
BITMAP
FFF1FFC0
0F007E00
0F003C00
0F003800
0F007000
0F006000
0F00C000
0F018000
0F030000
0F060000
0F0E0000
0F1E0000
0F3F0000
0F7F0000
0FCF8000
0F8F8000
0F07C000
0F07C000
0F03E000
0F03E000
0F01F000
0F01F000
0F00F800
0F00F800
0F007C00
0F007C00
0F003E00
0F003F00
FFF1FFE0
00000000
00000000
001C0000
001E0000
001E0000
00020000
00020000
00040000
00080000
ENDCHAR
STARTCHAR 0137
ENCODING 311
SWIDTH 512 0
DWIDTH 21 0
BBX 19 39 1 -10
BITMAP
FC0000
1C0000
1C0000
1C0000
1C0000
1C0000
1C0000
1C0000
1C0000
1C0000
1C3FC0
1C0E00
1C0C00
1C0800
1C1800
1C3000
1C6000
1CC000
1CE000
1DF000
1F7000
1E7800
1C3C00
1C1C00
1C1E00
1C0F00
1C0F00
1C0F80
FF9FE0
000000
000000
00E000
00F000
00F000
003000
001000
002000
004000
008000
ENDCHAR
STARTCHAR 0138
ENCODING 312
SWIDTH 512 0
DWIDTH 21 0
BBX 19 19 1 0
BITMAP
FC3FC0
1C0E00
1C0C00
1C0800
1C1000
1C3000
1C6000
1CC000
1CE000
1DE000
1EF000
1E7800
1C3C00
1C3C00
1C1E00
1C0F00
1C0F00
1C0F80
FF3FE0
ENDCHAR
STARTCHAR 0139
ENCODING 313
SWIDTH 682 0
DWIDTH 28 0
BBX 23 38 3 0
BITMAP
003000
007000
00E000
01C000
018000
030000
060000
000000
000000
FFF000
0F0000
0F0000
0F0000
0F0000
0F0000
0F0000
0F0000
0F0000
0F0000
0F0000
0F0000
0F0000
0F0000
0F0000
0F0000
0F0000
0F0000
0F0002
0F0002
0F0006
0F0006
0F0006
0F000E
0F000E
0F001E
0F003E
0F00FE
FFFFFE
ENDCHAR
STARTCHAR 013A
ENCODING 314
SWIDTH 268 0
DWIDTH 11 0
BBX 10 38 1 0
BITMAP
00C0
01C0
0380
0700
0600
0C00
1000
0000
0000
FC00
1C00
1C00
1C00
1C00
1C00
1C00
1C00
1C00
1C00
1C00
1C00
1C00
1C00
1C00
1C00
1C00
1C00
1C00
1C00
1C00
1C00
1C00
1C00
1C00
1C00
1C00
1C00
FF80
ENDCHAR
STARTCHAR 013B
ENCODING 315
SWIDTH 682 0
DWIDTH 28 0
BBX 23 38 3 -10
BITMAP
FFF800
0F0000
0F0000
0F0000
0F0000
0F0000
0F0000
0F0000
0F0000
0F0000
0F0000
0F0000
0F0000
0F0000
0F0000
0F0000
0F0000
0F0000
0F0002
0F0004
0F0006
0F0006
0F0006
0F000E
0F000E
0F001E
0F003E
0F00FE
FFFFFE
000000
000000
007000
007800
007800
000800
000800
001000
002000
ENDCHAR
STARTCHAR 013C
ENCODING 316
SWIDTH 268 0
DWIDTH 11 0
BBX 9 39 1 -10
BITMAP
FC00
1C00
1C00
1C00
1C00
1C00
1C00
1C00
1C00
1C00
1C00
1C00
1C00
1C00
1C00
1C00
1C00
1C00
1C00
1C00
1C00
1C00
1C00
1C00
1C00
1C00
1C00
1C00
FF80
0000
0000
3800
3C00
3C00
0400
0400
0800
1000
2000
ENDCHAR
STARTCHAR 013D
ENCODING 317
SWIDTH 707 0
DWIDTH 29 0
BBX 25 29 3 0
BITMAP
FFF80700
0F000F80
0F000F80
0F000780
0F000180
0F000100
0F000100
0F000200
0F000400
0F000000
0F000000
0F000000
0F000000
0F000000
0F000000
0F000000
0F000000
0F000000
0F000200
0F000200
0F000600
0F000600
0F000600
0F000600
0F000E00
0F001E00
0F003E00
0F00FE00
FFFFFE00
ENDCHAR
STARTCHAR 013E
ENCODING 318
SWIDTH 317 0
DWIDTH 13 0
BBX 12 29 1 0
BITMAP
FCE0
1CF0
1CF0
1CF0
1C10
1C10
1C20
1C20
1C40
1C80
1C00
1C00
1C00
1C00
1C00
1C00
1C00
1C00
1C00
1C00
1C00
1C00
1C00
1C00
1C00
1C00
1C00
1C00
FF80
ENDCHAR
STARTCHAR 013F
ENCODING 319
SWIDTH 682 0
DWIDTH 28 0
BBX 23 29 3 0
BITMAP
FFF800
0F0000
0F0000
0F0000
0F0000
0F0000
0F0000
0F0000
0F0000
0F0000
0F0030
0F0078
0F0078
0F0030
0F0000
0F0000
0F0000
0F0006
0F0006
0F0006
0F0006
0F000E
0F000E
0F000E
0F001E
0F001E
0F003E
0F00FE
FFFFFE
ENDCHAR
STARTCHAR 0140
ENCODING 320
SWIDTH 365 0
DWIDTH 15 0
BBX 14 29 1 0
BITMAP
FC00
1C00
1C00
1C00
1C00
1C00
1C00
1C00
1C00
1C00
1C00
1C00
1C18
1C3C
1C3C
1C18
1C00
1C00
1C00
1C00
1C00
1C00
1C00
1C00
1C00
1C00
1C00
1C00
FF80
ENDCHAR
STARTCHAR 0141
ENCODING 321
SWIDTH 707 0
DWIDTH 29 0
BBX 23 29 3 0
BITMAP
FFF800
0F0000
0F0000
0F0000
0F0000
0F0000
0F0000
0F0000
0F0000
0F0400
0F1C00
0F7000
0FC000
0F0000
0F0000
3F0000
EF0000
4F0000
0F0002
0F0002
0F0006
0F0006
0F0006
0F000E
0F000E
0F001E
0F003E
0F00FE
FFFFFE
ENDCHAR
STARTCHAR 0142
ENCODING 322
SWIDTH 268 0
DWIDTH 11 0
BBX 9 28 1 0
BITMAP
FC00
1C00
1C00
1C00
1C00
1C00
1C00
1C00
1C00
1C00
1C80
1F00
1E00
1C00
7C00
9C00
1C00
1C00
1C00
1C00
1C00
1C00
1C00
1C00
1C00
1C00
1C00
FF80
ENDCHAR
STARTCHAR 0143
ENCODING 323
SWIDTH 780 0
DWIDTH 32 0
BBX 28 38 3 0
BITMAP
00003000
00007000
0000F000
0000E000
00018000
00030000
00020000
00000000
00000000
FF003FF0
0F800780
0F800300
0FC00300
0FE00300
0DE00300
0DF00300
0CF80300
0C780300
0C7C0300
0C3C0300
0C1E0300
0C1F0300
0C0F0300
0C078300
0C078300
0C03C300
0C03E300
0C01E300
0C00F300
0C00FB00
0C007B00
0C003F00
0C003F00
0C001F00
0C001F00
0C000F00
1E000700
FFC00700
ENDCHAR
STARTCHAR 0144
ENCODING 324
SWIDTH 536 0
DWIDTH 22 0
BBX 20 28 1 0
BITMAP
000300
000700
000F00
001C00
001800
003000
006000
000000
000000
FC3C00
1CC700
1D0300
1F0380
1E0380
1E0380
1C0380
1C0380
1C0380
1C0380
1C0380
1C0380
1C0380
1C0380
1C0380
1C0380
1C0380
1C0380
FF9FF0
ENDCHAR
STARTCHAR 0145
ENCODING 325
SWIDTH 780 0
DWIDTH 32 0
BBX 28 39 3 -10
BITMAP
FF003FF0
0F800780
0F800300
0FC00300
0FE00300
0DE00300
0DF00300
0CF80300
0C780300
0C7C0300
0C3C0300
0C1E0300
0C1F0300
0C0F0300
0C0F8300
0C078300
0C03C300
0C03E300
0C01E300
0C00F300
0C00FB00
0C007B00
0C007F00
0C003F00
0C001F00
0C001F00
0C000F00
1E000700
FFC00700
00000300
00000000
00070000
00078000
00078000
00018000
00008000
00010000
00020000
00040000
ENDCHAR
STARTCHAR 0146
ENCODING 326
SWIDTH 536 0
DWIDTH 22 0
BBX 20 29 1 -10
BITMAP
FC3C00
1CC700
1D0300
1F0380
1E0380
1E0380
1C0380
1C0380
1C0380
1C0380
1C0380
1C0380
1C0380
1C0380
1C0380
1C0380
1C0380
1C0380
FF9FF0
000000
000000
00E000
00F000
00F000
003000
001000
002000
004000
008000
ENDCHAR
STARTCHAR 0147
ENCODING 327
SWIDTH 780 0
DWIDTH 32 0
BBX 28 37 3 0
BITMAP
00C01800
00703000
0038E000
001FC000
000F8000
00070000
00000000
00000000
FF003FF0
0F800780
0F800300
0FC00300
0FE00300
0DE00300
0DF00300
0CF80300
0C780300
0C7C0300
0C3C0300
0C1E0300
0C1F0300
0C0F0300
0C078300
0C078300
0C03C300
0C03E300
0C01E300
0C00F300
0C00FB00
0C007B00
0C003F00
0C003F00
0C001F00
0C001F00
0C000F00
1E000700
FFC00700
ENDCHAR
STARTCHAR 0148
ENCODING 328
SWIDTH 536 0
DWIDTH 22 0
BBX 20 27 1 0
BITMAP
040200
020600
030C00
01D800
00F000
007000
006000
000000
FC3C00
1CC700
1D0300
1F0380
1E0380
1E0380
1C0380
1C0380
1C0380
1C0380
1C0380
1C0380
1C0380
1C0380
1C0380
1C0380
1C0380
1C0380
FF9FF0
ENDCHAR
STARTCHAR 0149
ENCODING 329
SWIDTH 658 0
DWIDTH 27 0
BBX 25 29 1 0
BITMAP
70000000
F8000000
F8000000
78000000
18000000
10000000
10000000
20000000
40000000
00000000
03E1E000
00E63800
00EC1800
00F81C00
00F01C00
00F01C00
00E01C00
00E01C00
00E01C00
00E01C00
00E01C00
00E01C00
00E01C00
00E01C00
00E01C00
00E01C00
00E01C00
00E01C00
03FCFF80
ENDCHAR
STARTCHAR 014A
ENCODING 330
SWIDTH 780 0
DWIDTH 32 0
BBX 28 38 3 -9
BITMAP
FF003FF0
0F800780
0F800300
0FC00300
0FE00300
0DE00300
0DF00300
0CF80300
0C780300
0C7C0300
0C3C0300
0C1E0300
0C1F0300
0C0F0300
0C0F8300
0C078300
0C03C300
0C03E300
0C01E300
0C00F300
0C00FB00
0C007B00
0C003F00
0C003F00
0C001F00
0C001F00
0C000F00
1E000700
FFC00700
00000300
00000300
00000300
00000300
00030300
00078200
00038600
0003CC00
0000F800
ENDCHAR
STARTCHAR 014B
ENCODING 331
SWIDTH 512 0
DWIDTH 21 0
BBX 17 28 1 -9
BITMAP
FC3C00
1CC700
1D0300
1F0380
1E0380
1E0380
1C0380
1C0380
1C0380
1C0380
1C0380
1C0380
1C0380
1C0380
1C0380
1C0380
1C0380
1C0380
FF8380
000380
000380
000380
000380
020300
070300
070600
038C00
01F000
ENDCHAR
STARTCHAR 014C
ENCODING 332
SWIDTH 707 0
DWIDTH 29 0
BBX 24 35 3 0
BITMAP
03FF80
03FF80
000000
000000
000000
000000
00FF00
0300C0
060060
0C0030
1C0038
38001C
38001C
78001E
70000E
70000E
F0000F
F0000F
F0000F
F0000F
F0000F
F0000F
F0000F
F0000F
F0000F
70000E
70000E
78001E
38001C
38001C
1C0038
0C0030
060060
0300C0
00FF00
ENDCHAR
STARTCHAR 014D
ENCODING 333
SWIDTH 512 0
DWIDTH 21 0
BBX 17 26 2 0
BITMAP
1FFC00
1FFC00
000000
000000
000000
000000
000000
03E000
0C3800
181C00
380E00
700E00
700700
F00700
F00700
F00780
F00780
F00780
F00700
F00700
700700
700E00
380E00
181C00
0C3800
03E000
ENDCHAR
STARTCHAR 014E
ENCODING 334
SWIDTH 707 0
DWIDTH 29 0
BBX 24 38 3 0
BITMAP
020040
020040
0300C0
018180
01C380
00FF00
003C00
000000
000000
00FF00
0300C0
060060
0C0030
1C0038
38001C
38001C
78001E
70000E
70000E
F0000F
F0000F
F0000F
F0000F
F0000F
F0000F
F0000F
F0000F
F0000F
70000E
70000E
78001E
38001C
38001C
1C0038
0C0030
060060
0300C0
00FF00
ENDCHAR
STARTCHAR 014F
ENCODING 335
SWIDTH 512 0
DWIDTH 21 0
BBX 17 28 2 0
BITMAP
100400
100400
100C00
081800
07F000
03E000
000000
000000
000000
03E000
0C3800
181C00
380E00
700E00
700700
F00700
F00700
F00780
F00780
F00780
F00700
F00700
700700
700E00
380E00
181C00
0C3800
03E000
ENDCHAR
STARTCHAR 0150
ENCODING 336
SWIDTH 707 0
DWIDTH 29 0
BBX 24 38 3 1
BITMAP
000E38
000E78
001C70
0038E0
0071C0
006100
008200
000000
000000
00FF00
0300C0
060060
0C0030
1C0038
38001C
38001C
78001E
70000E
70000E
F0000F
F0000F
F0000F
F0000F
F0000F
F0000F
F0000F
F0000F
F0000F
70000E
70000E
78001E
38001C
38001C
1C0038
0C0030
060060
0300C0
00FF00
ENDCHAR
STARTCHAR 0151
ENCODING 337
SWIDTH 512 0
DWIDTH 21 0
BBX 17 28 2 1
BITMAP
00E380
00E780
01E700
038E00
031C00
061800
0C2000
000000
000000
03E000
0C3800
181C00
380E00
700E00
700700
F00700
F00700
F00780
F00780
F00780
F00700
F00700
700700
700E00
380E00
181C00
0C3800
03E000
ENDCHAR
STARTCHAR 0152
ENCODING 338
SWIDTH 1048 0
DWIDTH 43 0
BBX 37 29 3 1
BITMAP
01FFFFFFF8
0300FC00F8
06007C0038
0C003C0038
1C003C0018
38003C0018
38003C0008
78003C0008
70003C0408
70003C0400
F0003C0400
F0003C0400
F0003C0C00
F0003C1C00
F0003FFC00
F0003C1C00
F0003C0C00
F0003C0400
F0003C0408
70003C0408
70003C0408
78003C0008
38003C0008
38003C0018
1C003C0018
0C007C0038
06007C0078
0300FC01F8
01EFFFFFF8
ENDCHAR
STARTCHAR 0153
ENCODING 339
SWIDTH 756 0
DWIDTH 31 0
BBX 27 19 2 0
BITMAP
07E07C00
0C30C700
381D8380
381F81C0
700F01C0
700F01C0
F00F01E0
F00F01E0
F00FFFE0
F00F0000
F00F0000
F00F0000
F00F0060
700F0040
700F8040
381F8040
38198080
0C30C100
07E03E00
ENDCHAR
STARTCHAR 0154
ENCODING 340
SWIDTH 707 0
DWIDTH 29 0
BBX 25 38 3 1
BITMAP
00038000
00078000
00070000
000E0000
001C0000
00100000
00200000
00000000
00000000
FFFF8000
0F01F000
0F007800
0F007800
0F003C00
0F003C00
0F003C00
0F003C00
0F003C00
0F007800
0F00F000
0F01E000
0FFF0000
0F038000
0F01C000
0F00E000
0F00E000
0F00F000
0F00F000
0F00F000
0F00F000
0F00F000
0F00F880
0F007880
0F007880
0F007980
0F007F00
0F003F00
FFF81E00
ENDCHAR
STARTCHAR 0155
ENCODING 341
SWIDTH 390 0
DWIDTH 16 0
BBX 15 28 1 0
BITMAP
000C
001C
003C
0038
0070
00C0
0080
0000
0000
FC38
1CC4
1C8E
1D1E
1F1C
1E0C
1E00
1E00
1C00
1C00
1C00
1C00
1C00
1C00
1C00
1C00
1C00
1C00
FF80
ENDCHAR
STARTCHAR 0156
ENCODING 342
SWIDTH 707 0
DWIDTH 29 0
BBX 25 37 3 -9
BITMAP
FFFF8000
0F01F000
0F007800
0F007800
0F003C00
0F003C00
0F003C00
0F003C00
0F003C00
0F007800
0F00F000
0F01C000
0FFE0000
0F038000
0F01C000
0F01E000
0F00E000
0F00F000
0F00F000
0F00F000
0F00F000
0F00F000
0F00F080
0F00F880
0F00F880
0F007980
0F007F00
0F007F00
FFF81E00
00000000
001C0000
001E0000
001E0000
00020000
00020000
00040000
00080000
ENDCHAR
STARTCHAR 0157
ENCODING 343
SWIDTH 390 0
DWIDTH 16 0
BBX 15 29 1 -10
BITMAP
FC38
1CC4
1D8E
1D1E
1F1C
1E0C
1E00
1E00
1C00
1C00
1C00
1C00
1C00
1C00
1C00
1C00
1C00
1C00
FF80
0000
0000
3800
3C00
3C00
0400
0400
0800
1000
2000
ENDCHAR
STARTCHAR 0158
ENCODING 344
SWIDTH 707 0
DWIDTH 29 0
BBX 25 38 3 0
BITMAP
04008000
06018000
03870000
01CE0000
00FC0000
00780000
00300000
00000000
00000000
FFFF8000
0F01F000
0F007800
0F007800
0F003C00
0F003C00
0F003C00
0F003C00
0F003C00
0F007800
0F00F000
0F01E000
0FFF0000
0F038000
0F01C000
0F00E000
0F00E000
0F00F000
0F00F000
0F00F000
0F00F000
0F00F000
0F00F880
0F007880
0F007880
0F007980
0F007F00
0F003F00
FFF81E00
ENDCHAR
STARTCHAR 0159
ENCODING 345
SWIDTH 390 0
DWIDTH 16 0
BBX 15 27 1 0
BITMAP
1004
0C18
0630
0370
03E0
01C0
00C0
0000
FC38
1CC4
1C8E
1D1E
1F1C
1E0C
1E00
1E00
1C00
1C00
1C00
1C00
1C00
1C00
1C00
1C00
1C00
1C00
FF80
ENDCHAR
STARTCHAR 015A
ENCODING 346
SWIDTH 609 0
DWIDTH 25 0
BBX 19 38 4 1
BITMAP
001C00
003C00
003800
007000
00E000
00C000
010000
000000
000000
0FF0C0
301CC0
600FC0
6007C0
C003C0
C001C0
C001C0
C000C0
E000C0
F000C0
780040
7F0000
3FC000
1FF800
07FE00
01FF80
803F80
800FC0
8003E0
8000E0
C000E0
C00060
E00060
E00060
F00060
F800C0
9C0080
870300
81FE00
ENDCHAR
STARTCHAR 015B
ENCODING 347
SWIDTH 439 0
DWIDTH 18 0
BBX 14 28 2 1
BITMAP
0070
0070
00E0
01C0
0180
0300
0600
0000
0000
1F10
60D0
4070
C030
C010
E010
F000
7E00
3F80
1FE0
03F8
80FC
C01C
C00C
E00C
E00C
F008
8C18
83E0
ENDCHAR
STARTCHAR 015C
ENCODING 348
SWIDTH 609 0
DWIDTH 25 0
BBX 19 38 4 0
BITMAP
018000
018000
03C000
07E000
0C3000
181800
200600
000000
000000
0FF0C0
301CC0
600FC0
6007C0
C003C0
C001C0
C001C0
C000C0
E000C0
F000C0
780040
7F0000
3FC000
1FF800
0FFE00
01FF80
807F80
800FC0
8003E0
8001E0
C000E0
C00060
E00060
E00060
F00060
F800C0
9C0080
860100
83FE00
ENDCHAR
STARTCHAR 015D
ENCODING 349
SWIDTH 439 0
DWIDTH 18 0
BBX 14 28 2 0
BITMAP
0600
0700
0F00
0D80
1880
3040
6030
0000
0000
1F10
60D0
4070
C030
C010
E010
F000
7E00
3F80
1FE0
03F8
80FC
C01C
C00C
E00C
E00C
F008
8C18
83E0
ENDCHAR
STARTCHAR 015E
ENCODING 350
SWIDTH 609 0
DWIDTH 25 0
BBX 19 38 4 -8
BITMAP
0FF0C0
301CC0
600FC0
6007C0
C003C0
C001C0
C001C0
C000C0
E000C0
F000C0
780040
7F0000
3FC000
1FF800
0FFE00
01FF80
807F80
800FC0
8003E0
8001E0
C000E0
C00060
E00060
E00060
F00060
F800C0
9C0080
860180
81DE00
006000
004000
007000
001C00
000E00
000E00
000E00
061C00
01F800
ENDCHAR
STARTCHAR 015F
ENCODING 351
SWIDTH 439 0
DWIDTH 18 0
BBX 14 27 2 -8
BITMAP
1F10
60D0
4030
C010
C010
E010
F000
7E00
3F80
1FE0
03F8
80FC
C01C
C00C
E00C
E00C
F008
CC18
83E0
0200
0200
01C0
0060
0070
0070
10E0
0FC0
ENDCHAR
STARTCHAR 0160
ENCODING 352
SWIDTH 609 0
DWIDTH 25 0
BBX 19 37 4 0
BITMAP
200400
181800
0C3000
07E000
03C000
018000
000000
000000
0FF0C0
301CC0
600FC0
6007C0
C003C0
C001C0
C001C0
C000C0
E000C0
F000C0
780040
7F0000
3FC000
1FF800
0FFE00
01FF80
807F80
800FC0
8003E0
8001E0
C000E0
C00060
E00060
E00060
F00060
F800C0
9C0080
860100
83FE00
ENDCHAR
STARTCHAR 0161
ENCODING 353
SWIDTH 439 0
DWIDTH 18 0
BBX 14 28 2 0
BITMAP
4000
6020
3060
19C0
0F80
0F00
0700
0000
0000
1F10
60D0
4070
C030
C010
E010
F000
7E00
3F80
1FE0
03F8
80FC
C01C
C00C
E00C
E00C
F008
8C18
83E0
ENDCHAR
STARTCHAR 0162
ENCODING 354
SWIDTH 707 0
DWIDTH 29 0
BBX 24 38 3 -9
BITMAP
FFFFFF
F83C1F
F03C0F
E03C07
C03C03
C03C03
C03C03
803C01
803C01
803C01
803C01
003C00
003C00
003C00
003C00
003C00
003C00
003C00
003C00
003C00
003C00
003C00
003C00
003C00
003C00
003C00
003C00
003C00
07FFE0
001800
001000
001C00
000700
000380
000380
000380
008700
007E00
ENDCHAR
STARTCHAR 0163
ENCODING 355
SWIDTH 341 0
DWIDTH 14 0
BBX 12 35 1 -8
BITMAP
0400
0400
0400
0400
0400
0C00
0C00
1C00
FFE0
1C00
1C00
1C00
1C00
1C00
1C00
1C00
1C00
1C00
1C00
1C00
1C10
1C10
1C10
1C30
1E20
0FE0
0780
0200
0200
0380
00C0
00E0
00E0
10E0
0FC0
ENDCHAR
STARTCHAR 0164
ENCODING 356
SWIDTH 707 0
DWIDTH 29 0
BBX 24 37 3 0
BITMAP
020040
018180
00E300
007E00
003C00
001C00
000000
000000
FFFFFF
F83C1F
F03C0F
E03C07
C03C03
C03C03
C03C03
803C01
803C01
803C01
803C01
003C00
003C00
003C00
003C00
003C00
003C00
003C00
003C00
003C00
003C00
003C00
003C00
003C00
003C00
003C00
003C00
003C00
07FFE0
ENDCHAR
STARTCHAR 0165
ENCODING 357
SWIDTH 341 0
DWIDTH 14 0
BBX 13 29 1 0
BITMAP
0030
0078
0078
0438
0408
0410
0410
0C20
0C40
1C00
FFE0
1C00
1C00
1C00
1C00
1C00
1C00
1C00
1C00
1C00
1C00
1C00
1C10
1C10
1C10
1C30
1E20
0FE0
07C0
ENDCHAR
STARTCHAR 0166
ENCODING 358
SWIDTH 707 0
DWIDTH 29 0
BBX 24 29 3 0
BITMAP
FFFFFF
F83C1F
F03C0F
E03C07
C03C03
C03C03
C03C03
803C01
803C01
803C01
803C01
003C00
003C00
0FFFF8
003C00
003C00
003C00
003C00
003C00
003C00
003C00
003C00
003C00
003C00
003C00
003C00
003C00
003C00
07FFE0
ENDCHAR
STARTCHAR 0167
ENCODING 359
SWIDTH 341 0
DWIDTH 14 0
BBX 12 27 1 0
BITMAP
0400
0400
0400
0400
0400
0C00
0C00
1C00
FFE0
1C00
1C00
1C00
1C00
FFE0
1C00
1C00
1C00
1C00
1C00
1C00
1C10
1C10
1C10
1C10
1E30
0FE0
07C0
ENDCHAR
STARTCHAR 0168
ENCODING 360
SWIDTH 829 0
DWIDTH 34 0
BBX 29 37 3 0
BITMAP
003C0800
007F9800
0047F000
0041F000
00000000
00000000
00000000
00000000
FFF01FF8
0F0003C0
0F000180
0F000180
0F000180
0F000180
0F000180
0F000180
0F000180
0F000180
0F000180
0F000180
0F000180
0F000180
0F000180
0F000180
0F000180
0F000180
0F000180
0F000180
0F000180
0F000180
0F000180
07000100
07000300
03800200
01C00600
00E01800
003FF000
ENDCHAR
STARTCHAR 0169
ENCODING 361
SWIDTH 536 0
DWIDTH 22 0
BBX 20 27 1 0
BITMAP
038200
07F200
0CFE00
083C00
000000
000000
000000
000000
FC1F80
1C0380
1C0380
1C0380
1C0380
1C0380
1C0380
1C0380
1C0380
1C0380
1C0380
1C0380
1C0380
1C0780
1C0780
1C0F80
0C0B80
0E3380
03C3F0
ENDCHAR
STARTCHAR 016A
ENCODING 362
SWIDTH 829 0
DWIDTH 34 0
BBX 29 35 3 0
BITMAP
007FF000
007FF000
00000000
00000000
00000000
00000000
FFF01FF8
0F0003C0
0F000180
0F000180
0F000180
0F000180
0F000180
0F000180
0F000180
0F000180
0F000180
0F000180
0F000180
0F000180
0F000180
0F000180
0F000180
0F000180
0F000180
0F000180
0F000180
0F000180
0F000180
07000100
07000300
03800200
01C00600
00E01800
003FF000
ENDCHAR
STARTCHAR 016B
ENCODING 363
SWIDTH 536 0
DWIDTH 22 0
BBX 20 26 1 0
BITMAP
0FFE00
0FFE00
000000
000000
000000
000000
000000
FC1F80
1C0380
1C0380
1C0380
1C0380
1C0380
1C0380
1C0380
1C0380
1C0380
1C0380
1C0380
1C0380
1C0780
1C0780
1C0F80
0C0B80
0E3380
03C3F0
ENDCHAR
STARTCHAR 016C
ENCODING 364
SWIDTH 829 0
DWIDTH 34 0
BBX 29 38 3 0
BITMAP
00400800
00400800
00601800
00303000
00387000
001FE000
00078000
00000000
00000000
FFF01FF8
0F0003C0
0F000180
0F000180
0F000180
0F000180
0F000180
0F000180
0F000180
0F000180
0F000180
0F000180
0F000180
0F000180
0F000180
0F000180
0F000180
0F000180
0F000180
0F000180
0F000180
0F000180
0F000180
07000100
07000300
03800200
01C00600
00E01800
003FF000
ENDCHAR
STARTCHAR 016D
ENCODING 365
SWIDTH 536 0
DWIDTH 22 0
BBX 20 28 1 0
BITMAP
080200
080200
0C0200
060C00
03F800
01F000
000000
000000
000000
FC1F80
1C0380
1C0380
1C0380
1C0380
1C0380
1C0380
1C0380
1C0380
1C0380
1C0380
1C0380
1C0380
1C0780
1C0780
1C0F80
0C0B80
0E3380
03C3F0
ENDCHAR
STARTCHAR 016E
ENCODING 366
SWIDTH 829 0
DWIDTH 34 0
BBX 29 39 3 0
BITMAP
00078000
00084000
00102000
00102000
00102000
00102000
00084000
00078000
00000000
00000000
FFF01FF8
0F0003C0
0F000180
0F000180
0F000180
0F000180
0F000180
0F000180
0F000180
0F000180
0F000180
0F000180
0F000180
0F000180
0F000180
0F000180
0F000180
0F000180
0F000180
0F000180
0F000180
0F000180
0F000180
07000100
07000300
03800200
01C00600
00E01800
003FF000
ENDCHAR
STARTCHAR 016F
ENCODING 367
SWIDTH 536 0
DWIDTH 22 0
BBX 20 28 1 0
BITMAP
00F000
010800
020400
020400
020400
010800
00F000
000000
000000
FC0F80
1C0380
1C0380
1C0380
1C0380
1C0380
1C0380
1C0380
1C0380
1C0380
1C0380
1C0380
1C0380
1C0780
1C0780
1C0F80
0C0B80
0E3380
03C3F0
ENDCHAR
STARTCHAR 0170
ENCODING 368
SWIDTH 829 0
DWIDTH 34 0
BBX 29 38 3 1
BITMAP
0001C600
0003CE00
00039E00
00071800
000E3000
00086000
00104000
00000000
00000000
FFF01FF8
0F0003C0
0F000180
0F000180
0F000180
0F000180
0F000180
0F000180
0F000180
0F000180
0F000180
0F000180
0F000180
0F000180
0F000180
0F000180
0F000180
0F000180
0F000180
0F000180
0F000180
0F000180
0F000180
07000100
07000300
03800200
01C00600
00E01800
003FF000
ENDCHAR
STARTCHAR 0171
ENCODING 369
SWIDTH 536 0
DWIDTH 22 0
BBX 20 28 1 1
BITMAP
0038C0
0079C0
0073C0
00E300
018600
010C00
020800
000000
000000
FC1F80
1C0380
1C0380
1C0380
1C0380
1C0380
1C0380
1C0380
1C0380
1C0380
1C0380
1C0380
1C0380
1C0780
1C0780
1C0F80
0C0B80
0E3380
03C3F0
ENDCHAR
STARTCHAR 0172
ENCODING 370
SWIDTH 829 0
DWIDTH 34 0
BBX 29 38 3 -9
BITMAP
FFF01FF8
0F0003C0
0F000180
0F000180
0F000180
0F000180
0F000180
0F000180
0F000180
0F000180
0F000180
0F000180
0F000180
0F000180
0F000180
0F000180
0F000180
0F000180
0F000180
0F000180
0F000180
0F000180
0F000180
07000100
07000300
03800200
01C00400
00E01800
003DE000
00028000
00010000
00070000
00060000
000E0000
000E0000
000F1000
0007F000
0003C000
ENDCHAR
STARTCHAR 0173
ENCODING 371
SWIDTH 536 0
DWIDTH 22 0
BBX 20 28 1 -9
BITMAP
FC0F80
1C0380
1C0380
1C0380
1C0380
1C0380
1C0380
1C0380
1C0380
1C0380
1C0380
1C0380
1C0380
1C0780
1C0780
1C0F80
0C0B80
0E3380
03C3F0
0000C0
000180
000300
000600
000600
000600
000620
0007E0
0003C0
ENDCHAR
STARTCHAR 0174
ENCODING 372
SWIDTH 1073 0
DWIDTH 44 0
BBX 41 38 2 0
BITMAP
00000C000000
00001C000000
00001E000000
000037000000
000061800000
0000C0C00000
000100200000
000000000000
000000000000
FFF1FFE3FF80
0F803F007C00
07801E003800
07801E003000
07801F003000
03C01F003000
03C01F006000
03C037006000
01E037806000
01E037804000
01E02780C000
01E063C0C000
00F063C08000
00F043C18000
00F0C1C18000
0078C1E10000
0078C1E30000
007881E30000
007D80F20000
003D80F60000
003D00F60000
003D00740000
001F007C0000
001F007C0000
001E003C0000
000E00380000
000E00380000
000C00380000
000C00100000
ENDCHAR
STARTCHAR 0175
ENCODING 373
SWIDTH 756 0
DWIDTH 31 0
BBX 30 28 1 0
BITMAP
00030000
00070000
00078000
000D8000
0008C000
00102000
00201000
00000000
00000000
FF1FF3FC
3C0780E0
1C0380C0
1C0380C0
0E03C080
0E03C080
0F07C180
0705E100
0704E100
038CE300
03887200
01C87200
01D87600
01F03C00
00F03C00
00F03C00
00601800
00601800
00201800
ENDCHAR
STARTCHAR 0176
ENCODING 374
SWIDTH 731 0
DWIDTH 30 0
BBX 27 38 2 0
BITMAP
00020000
00070000
000F0000
001D8000
0030C000
00602000
00801000
00000000
00000000
FFF87FE0
0F801F00
0F800E00
07800C00
03C00C00
03C00800
01E01800
01F01000
00F03000
00782000
00786000
003C4000
003C8000
001E8000
000F0000
000F0000
000F0000
000F0000
000F0000
000F0000
000F0000
000F0000
000F0000
000F0000
000F0000
000F0000
000F0000
000F0000
01FFF800
ENDCHAR
STARTCHAR 0177
ENCODING 375
SWIDTH 536 0
DWIDTH 22 0
BBX 20 37 1 -9
BITMAP
006000
007000
00F000
00D800
018C00
030600
040100
000000
000000
FF8FF0
1E0180
1E0180
0E0100
0E0100
0F0300
070200
070200
038600
038400
038400
01CC00
01C800
01C800
00F800
00F000
00F000
007000
006000
006000
006000
004000
304000
78C000
788000
718000
330000
1E0000
ENDCHAR
STARTCHAR 0178
ENCODING 376
SWIDTH 731 0
DWIDTH 30 0
BBX 27 37 2 0
BITMAP
00603000
00F07800
00F07800
00603000
00000000
00000000
00000000
00000000
FFF87FE0
0F800F00
0F800600
07800400
03C00C00
03E00800
01E00800
01F01000
00F03000
00F82000
00786000
003C4000
003CC000
001E8000
001F0000
000F0000
000F0000
000F0000
000F0000
000F0000
000F0000
000F0000
000F0000
000F0000
000F0000
000F0000
000F0000
000F0000
01FFF800
ENDCHAR
STARTCHAR 0179
ENCODING 377
SWIDTH 658 0
DWIDTH 27 0
BBX 22 38 3 0
BITMAP
0000C0
0001C0
000380
000700
000600
000C00
001000
000000
000000
3FFFFC
3E0078
3C00F8
3801F0
3001E0
3003E0
6003C0
600780
400F80
400F00
001F00
003E00
003C00
007C00
007800
00F000
01F000
01E000
03E004
07C004
07800C
0F800C
1F000C
1E001C
3E001C
3C003C
7C0078
F800F8
FFFFF8
ENDCHAR
STARTCHAR 017A
ENCODING 378
SWIDTH 439 0
DWIDTH 18 0
BBX 14 28 2 0
BITMAP
0018
0038
0078
00E0
00C0
0180
0200
0000
0000
FFFC
E03C
C038
C078
80F0
80E0
81E0
01C0
0380
0780
0700
0F00
1E04
1C04
3C04
380C
700C
F01C
FFFC
ENDCHAR
STARTCHAR 017B
ENCODING 379
SWIDTH 658 0
DWIDTH 27 0
BBX 22 37 3 0
BITMAP
001800
003C00
003C00
001800
000000
000000
000000
000000
3FFFFC
3E0078
3C00F8
3801F0
3001E0
2003E0
6007C0
600780
400F80
400F00
001F00
003E00
003C00
007C00
00F800
00F000
01F000
01E000
03E004
07C004
07800C
0F800C
1F000C
1E001C
3E001C
3C003C
7C0078
F800F8
FFFFF8
ENDCHAR
STARTCHAR 017C
ENCODING 380
SWIDTH 439 0
DWIDTH 18 0
BBX 14 26 2 0
BITMAP
0300
0780
0780
0300
0000
0000
0000
FFFC
E03C
C078
C078
80F0
80E0
81E0
03C0
0380
0780
0F00
0E00
1E04
1C04
3C04
780C
700C
F01C
FFFC
ENDCHAR
STARTCHAR 017D
ENCODING 381
SWIDTH 658 0
DWIDTH 27 0
BBX 22 37 3 0
BITMAP
020040
018180
00E300
007E00
003C00
001800
000000
000000
3FFFFC
3E0078
3C00F8
3800F0
3001E0
3003E0
6003C0
600780
400F80
400F00
001F00
003E00
003C00
007C00
007800
00F000
01F000
01E000
03E004
07C004
07800C
0F800C
1F000C
1F001C
3E001C
3C003C
7C0078
F800F8
FFFFF8
ENDCHAR
STARTCHAR 017E
ENCODING 382
SWIDTH 439 0
DWIDTH 18 0
BBX 14 27 2 0
BITMAP
2018
1030
0C60
0EC0
07C0
0380
0100
0000
FFFC
E03C
C038
C078
80F0
80E0
81E0
01C0
0380
0780
0700
0F00
1E04
1C04
3C04
380C
700C
F01C
FFFC
ENDCHAR
STARTCHAR 017F
ENCODING 383
SWIDTH 341 0
DWIDTH 14 0
BBX 14 29 1 0
BITMAP
01E0
0718
0E18
0C3C
1C3C
1C38
1C00
1C00
1C00
1C00
1C00
1C00
1C00
1C00
1C00
1C00
1C00
1C00
1C00
1C00
1C00
1C00
1C00
1C00
1C00
1C00
1C00
1C00
FFC0
ENDCHAR
STARTCHAR 0180
ENCODING 384
SWIDTH 512 0
DWIDTH 21 0
BBX 18 29 1 0
BITMAP
FC0000
1C0000
1C0000
1C0000
1C0000
FFFC00
1C0000
1C0000
1C0000
1C0000
1C7800
1C8600
1D0700
1E0380
1E0380
1C0380
1C03C0
1C03C0
1C03C0
1C03C0
1C03C0
1C03C0
1C03C0
1C0380
1C0380
1E0380
1B0700
118600
10F800
ENDCHAR
STARTCHAR 0186
ENCODING 390
SWIDTH 658 0
DWIDTH 27 0
BBX 22 29 3 1
BITMAP
03FE00
060180
0C00C0
180060
300070
200070
600038
400038
400038
C0003C
00003C
00003C
00003C
00003C
00003C
00003C
00003C
00003C
40003C
400038
600038
600078
700070
700070
780060
7C00E0
7C01C0
670380
41FE00
ENDCHAR
STARTCHAR 018E
ENCODING 398
SWIDTH 707 0
DWIDTH 29 0
BBX 23 29 4 0
BITMAP
FFFFFE
F801E0
E001E0
E001E0
C001E0
C001E0
8001E0
8001E0
8101E0
0101E0
0101E0
0101E0
0181E0
01C1E0
01FFE0
01C1E0
0181E0
0101E0
8101E0
8101E0
8101E0
8001E0
C001E0
C001E0
C001E0
E001E0
F001E0
FC01E0
FFFFFE
ENDCHAR
STARTCHAR 018F
ENCODING 399
SWIDTH 658 0
DWIDTH 27 0
BBX 22 30 3 0
BITMAP
002000
03DE00
060380
0801C0
1000E0
300060
200070
600070
400078
400038
400038
00003C
00003C
00003C
00003C
FFFFFC
F0003C
F0003C
F0003C
F0003C
F00038
700038
780078
780070
380070
380060
1C00E0
0E01C0
070380
03FE00
ENDCHAR
STARTCHAR 0190
ENCODING 400
SWIDTH 634 0
DWIDTH 26 0
BBX 21 29 3 1
BITMAP
07FC30
0E0330
1C01F0
3800F0
780070
780070
780030
780030
780030
780030
380010
1C0000
0E0000
03FC00
0E0000
1C0000
380000
780000
F00070
F000F8
F000F8
F00078
F00078
F00038
700030
780030
3C0060
1E00C0
07EF00
ENDCHAR
STARTCHAR 0192
ENCODING 402
SWIDTH 585 0
DWIDTH 24 0
BBX 26 37 -3 -9
BITMAP
00000F80
000038C0
000071C0
000063C0
0000C180
0001C000
0001C000
00018000
00038000
003FF800
00030000
00070000
00070000
00070000
00060000
000E0000
000E0000
000C0000
001C0000
001C0000
001C0000
00180000
00380000
00380000
00380000
00300000
00700000
00700000
00600000
00E00000
00E00000
00C00000
F1C00000
E1800000
E3000000
C6000000
7C000000
ENDCHAR
STARTCHAR 0195
ENCODING 405
SWIDTH 707 0
DWIDTH 29 0
BBX 26 29 1 0
BITMAP
FC000000
1C000000
1C000000
1C000000
1C000000
1C000000
1C000000
1C000000
1C000000
1C000000
1C3C0700
1CC70780
1D030780
1D038380
1E0383C0
1E0381C0
1C0380C0
1C0380C0
1C038040
1C038040
1C038040
1C038040
1C038040
1C0380C0
1C038080
1C038080
1C01C100
1C00E200
FF807C00
ENDCHAR
STARTCHAR 01A6
ENCODING 422
SWIDTH 731 0
DWIDTH 30 0
BBX 26 36 3 -7
BITMAP
FFF80000
0F000000
0F000000
0F000000
0F000000
0FFF8000
0F01E000
0F007800
0F007800
0F003C00
0F003C00
0F003C00
0F003C00
0F003C00
0F003800
0F007800
0F00F000
0F01E000
0FFF0000
0F038000
0F01C000
0F00E000
0F00E000
0F00F000
0F00F000
0F00F000
0F00F000
0F00F000
FFF8F800
0000F840
0000F840
00007840
00007880
00007C80
00003F00
00001E00
ENDCHAR
STARTCHAR 01B7
ENCODING 439
SWIDTH 634 0
DWIDTH 26 0
BBX 21 29 3 0
BITMAP
7FFFF0
7FFFF0
7FFFE0
7FFFC0
780080
700100
600200
600400
401800
003000
006000
00C000
01FE00
038380
0201E0
0000F0
0000F0
000078
100078
7C0078
FC0078
FC0078
FC0078
F000F0
E000F0
6001E0
7003C0
380780
0FFE00
ENDCHAR
STARTCHAR 01BF
ENCODING 447
SWIDTH 512 0
DWIDTH 21 0
BBX 18 29 1 -10
BITMAP
0C1E00
3C7F00
FCC780
1D0380
1F03C0
1E03C0
1E0380
1C0380
1C0380
1C0700
1C0700
1C0600
1C0E00
1C0C00
1C1800
1C3000
1C6000
1D8000
1E0000
1C0000
1C0000
1C0000
1C0000
1C0000
1C0000
1C0000
1C0000
3C0000
E00000
ENDCHAR
STARTCHAR 01C4
ENCODING 452
SWIDTH 682 0
DWIDTH 28 0
BBX 55 37 3 0
BITMAP
00000000030060
000000000180C0
0000000000E380
00000000007F00
00000000003E00
00000000001C00
00000000000000
00000000000000
FFFFC0003FFFFC
0F0070003E007C
0F001C003C0078
0F000E003800F0
0F0007003001F0
0F0007803001E0
0F0003806003C0
0F0003C06007C0
0F0003C0400780
0F0001C0400F80
0F0001E0001F00
0F0001E0001E00
0F0001E0003E00
0F0001E0007C00
0F0001E0007800
0F0001E000F800
0F0001E001F000
0F0001E001E000
0F0001E003E002
0F0003C007C006
0F0003C0078004
0F0003C00F8004
0F0003800F000C
0F0007001F000C
0F0007003E001C
0F000E003C001C
0F001C007C003C
0F007000F800FC
FFFFC000FFFFFC
ENDCHAR
STARTCHAR 01C5
ENCODING 453
SWIDTH 1219 0
DWIDTH 50 0
BBX 45 29 3 0
BITMAP
FFFFC0000000
0F0070004000
0F001C002020
0F000E003040
0F00070019C0
0F0007800F80
0F0003800700
0F0003C00700
0F0003C00000
0F0001C00000
0F0001E1FFF8
0F0001E1C078
0F0001E18070
0F0001E180F0
0F0001E101E0
0F0001E101C0
0F0001E103C0
0F0001E00380
0F0001E00700
0F0003C00F00
0F0003C00E00
0F0003C01E00
0F0003803C08
0F0007003808
0F0007007808
0F000E007018
0F001C00E018
0F007001E038
FFFFC001FFF8
ENDCHAR
STARTCHAR 01C6
ENCODING 454
SWIDTH 951 0
DWIDTH 39 0
BBX 35 29 2 0
BITMAP
00FE000000
000E000000
000E018080
000E00C180
000E006300
000E007600
000E003E00
000E001C00
000E000000
000E000000
0F8E07FFE0
1C6E0701E0
383E0601C0
701E0603C0
701E040780
700E040700
F00E040F00
F00E000E00
F00E001C00
F00E003C00
F00E003800
F00E007800
F00E00F020
700E00E020
700E01E020
701E01C060
383E038060
186E0780E0
07CFC7FFE0
ENDCHAR
STARTCHAR 01C7
ENCODING 455
SWIDTH 1219 0
DWIDTH 50 0
BBX 46 29 3 0
BITMAP
FFF800003FFC
0F00000003C0
0F00000003C0
0F00000003C0
0F00000003C0
0F00000003C0
0F00000003C0
0F00000003C0
0F00000003C0
0F00000003C0
0F00000003C0
0F00000003C0
0F00000003C0
0F00000003C0
0F00000003C0
0F00000003C0
0F00000003C0
0F00000003C0
0F00040003C0
0F00040003C0
0F00040F03C0
0F00041F03C0
0F00041F03C0
0F000C1F0380
0F000C180380
0F001C180380
0F003C080700
0F00FC0C0E00
FFFFFC03BC00
ENDCHAR
STARTCHAR 01C8
ENCODING 456
SWIDTH 1000 0
DWIDTH 41 0
BBX 34 38 3 -9
BITMAP
FFF8000000
0F00000180
0F000003C0
0F000003C0
0F00000180
0F00000000
0F00000000
0F00000000
0F00000000
0F00000000
0F00001FC0
0F000001C0
0F000001C0
0F000001C0
0F000001C0
0F000001C0
0F000001C0
0F000001C0
0F000401C0
0F000401C0
0F000401C0
0F000401C0
0F000401C0
0F000C01C0
0F000C01C0
0F001C01C0
0F003C01C0
0F00FC01C0
FFFFFC01C0
00000001C0
00000001C0
00000001C0
000000E1C0
000001E1C0
000001E180
000000C380
000000C700
0000007C00
ENDCHAR
STARTCHAR 01C9
ENCODING 457
SWIDTH 585 0
DWIDTH 24 0
BBX 19 38 1 -9
BITMAP
FC0000
1C00C0
1C01E0
1C01E0
1C00C0
1C0000
1C0000
1C0000
1C0000
1C0000
1C0FE0
1C00E0
1C00E0
1C00E0
1C00E0
1C00E0
1C00E0
1C00E0
1C00E0
1C00E0
1C00E0
1C00E0
1C00E0
1C00E0
1C00E0
1C00E0
1C00E0
1C00E0
FF80E0
0000E0
0000E0
0000E0
0070E0
00F0E0
00F0C0
0061C0
006380
003E00
ENDCHAR
STARTCHAR 01CA
ENCODING 458
SWIDTH 1317 0
DWIDTH 54 0
BBX 50 29 3 0
BITMAP
FF003FF003FFC0
0F800780003C00
0FC00300003C00
0FC00300003C00
0FE00300003C00
0DE00300003C00
0CF00300003C00
0CF80300003C00
0C780300003C00
0C7C0300003C00
0C3E0300003C00
0C1E0300003C00
0C1F0300003C00
0C0F0300003C00
0C078300003C00
0C07C300003C00
0C03C300003C00
0C03E300003C00
0C01F300003C00
0C00F300003C00
0C00FB00F03C00
0C007B01F03C00
0C003F01F03C00
0C003F01F03800
0C001F01803800
0C001F01803800
0C000F00807000
1E000700C0E000
FFC007003BC000
ENDCHAR
STARTCHAR 01CB
ENCODING 459
SWIDTH 1097 0
DWIDTH 45 0
BBX 38 38 3 -9
BITMAP
FF003FF000
0F80078018
0F8003003C
0FC003003C
0FE0030018
0DE0030000
0CF0030000
0CF8030000
0C78030000
0C7C030000
0C3C0301FC
0C1E03001C
0C1F03001C
0C0F03001C
0C0783001C
0C0783001C
0C03C3001C
0C03E3001C
0C01E3001C
0C00F3001C
0C00FB001C
0C007B001C
0C003F001C
0C003F001C
0C001F001C
0C001F001C
0C000F001C
1E0007001C
FFC007001C
000003001C
000000001C
000000001C
0000000E1C
0000001E1C
0000001E18
0000000C38
0000000C70
00000007C0
ENDCHAR
STARTCHAR 01CC
ENCODING 460
SWIDTH 853 0
DWIDTH 35 0
BBX 30 37 1 -9
BITMAP
00000018
0000003C
0000003C
00000018
00000000
00000000
00000000
00000000
00000000
FC3C01F8
1CC70038
1D030038
1F038038
1E038038
1E038038
1C038038
1C038038
1C038038
1C038038
1C038038
1C038038
1C038038
1C038038
1C038038
1C038038
1C038038
1C038038
FF9FF038
00000038
00000038
00000038
00000C38
00001E38
00001C30
00001870
00000860
00000780
ENDCHAR
STARTCHAR 01DD
ENCODING 477
SWIDTH 463 0
DWIDTH 19 0
BBX 15 19 2 0
BITMAP
0FC0
1070
2038
4018
401C
401C
001E
001E
001E
FFFE
F01E
F01E
F01E
701C
701C
3038
3838
1C70
07C0
ENDCHAR
STARTCHAR 01E2
ENCODING 482
SWIDTH 1000 0
DWIDTH 41 0
BBX 37 35 1 0
BITMAP
00000FFE00
00000FFE00
0000000000
0000000000
0000000000
0000000000
0003FFFFF8
00007C00F8
00007C0038
00007C0038
0000FC0018
0001BC0018
0001BC0008
00033C0008
00033C0408
00063C0400
00063C0400
000C3C0400
000C3C0C00
00183C1C00
00183FFC00
00303C1C00
00303C0C00
00603C0400
00603C0408
00FFFC0408
00803C0408
01803C0008
01003C0018
03003C0018
02003C0018
06003C0038
0E003C0078
1F003C01F8
FFE1FFFFF8
ENDCHAR
STARTCHAR 01E3
ENCODING 483
SWIDTH 707 0
DWIDTH 29 0
BBX 25 26 2 0
BITMAP
01FFC000
01FFC000
00000000
00000000
00000000
00000000
00000000
0FC1F000
38731C00
201E0E00
601E0700
781C0700
781C0700
381C0780
001C0780
03FFFF80
1C1C0000
701C0000
701C0000
E01C0180
E01C0100
E03E0100
E02E0100
E0460200
70830400
1F00F800
ENDCHAR
STARTCHAR 01EA
ENCODING 490
SWIDTH 707 0
DWIDTH 29 0
BBX 24 38 3 -8
BITMAP
00FF00
0300C0
060060
0C0030
1C0038
38001C
38001C
78001E
70000E
70000E
F0000F
F0000F
F0000F
F0000F
F0000F
F0000F
F0000F
F0000F
F0000F
70000E
78001E
78001E
38001C
180038
1C0038
0E0070
0700E0
03C3C0
00FF00
003000
006000
00C000
01C000
01C000
01C000
01C200
00FC00
007800
ENDCHAR
STARTCHAR 01EB
ENCODING 491
SWIDTH 512 0
DWIDTH 21 0
BBX 17 28 2 -9
BITMAP
03E000
0C3800
181C00
380E00
700E00
700700
F00700
F00700
F00780
F00780
F00780
F00780
F00700
700700
700700
380E00
380C00
1C1800
077000
00C000
030000
060000
040000
0C0000
0C0000
0C6000
0FC000
078000
ENDCHAR
STARTCHAR 01EC
ENCODING 492
SWIDTH 707 0
DWIDTH 29 0
BBX 24 45 3 -9
BITMAP
03FF80
03FF80
000000
000000
000000
000000
000000
00FF00
0300C0
060060
0C0030
1C0038
38001C
38001C
78001E
70000E
70000E
F0000F
F0000F
F0000F
F0000F
F0000F
F0000F
F0000F
F0000F
F0000F
70000E
78001E
78001E
38001C
180038
1C0038
0E0070
0700E0
03C3C0
00FF00
003000
006000
00C000
01C000
01C000
01C000
01C200
00FC00
007800
ENDCHAR
STARTCHAR 01ED
ENCODING 493
SWIDTH 512 0
DWIDTH 21 0
BBX 17 34 2 -9
BITMAP
1FFC00
1FFC00
000000
000000
000000
000000
03E000
0C3800
181C00
380E00
700E00
700700
F00700
F00700
F00780
F00780
F00780
F00780
F00700
700700
700700
380E00
380C00
1C1800
077000
00C000
030000
060000
040000
0C0000
0C0000
0C6000
0FC000
078000
ENDCHAR
STARTCHAR 01F0
ENCODING 496
SWIDTH 341 0
DWIDTH 14 0
BBX 14 37 -1 -9
BITMAP
0804
0C0C
0618
03B0
01F0
00E0
00C0
0000
0000
0FE0
00E0
00E0
00E0
00E0
00E0
00E0
00E0
00E0
00E0
00E0
00E0
00E0
00E0
00E0
00E0
00E0
00E0
00E0
00E0
00E0
00E0
E0E0
F0E0
E0C0
C180
6380
3E00
ENDCHAR
STARTCHAR 01F1
ENCODING 497
SWIDTH 1463 0
DWIDTH 60 0
BBX 55 29 3 0
BITMAP
FFFFC0003FFFFC
0F0070003E007C
0F001C003C0078
0F000E003800F0
0F0007003001F0
0F0007803001E0
0F0003806003C0
0F0003C06007C0
0F0003C0400780
0F0001C0400F80
0F0001E0001F00
0F0001E0001E00
0F0001E0003E00
0F0001E0007C00
0F0001E0007800
0F0001E000F800
0F0001E001F000
0F0001E001E000
0F0001E003E002
0F0003C007C006
0F0003C0078004
0F0003C00F8004
0F0003800F000C
0F0007001F000C
0F0007003E001C
0F000E003C001C
0F001C007C003C
0F007000F800FC
FFFFC000FFFFFC
ENDCHAR
STARTCHAR 01F2
ENCODING 498
SWIDTH 1219 0
DWIDTH 50 0
BBX 45 29 3 0
BITMAP
FFFFC0000000
0F0070000000
0F001C000000
0F000E000000
0F0007000000
0F0007800000
0F0003800000
0F0003C00000
0F0003C00000
0F0001C00000
0F0001E1FFF8
0F0001E1C078
0F0001E18070
0F0001E180F0
0F0001E101E0
0F0001E101C0
0F0001E103C0
0F0001E00380
0F0001E00700
0F0003C00F00
0F0003C00E00
0F0003C01E00
0F0003803C08
0F0007003808
0F0007007808
0F000E007018
0F001C00E018
0F007001E038
FFFFC001FFF8
ENDCHAR
STARTCHAR 01F3
ENCODING 499
SWIDTH 951 0
DWIDTH 39 0
BBX 35 29 2 0
BITMAP
00FE000000
000E000000
000E000000
000E000000
000E000000
000E000000
000E000000
000E000000
000E000000
000E000000
0F8E07FFE0
1C6E0701E0
383E0601C0
701E0603C0
701E040780
700E040700
F00E040F00
F00E000E00
F00E001C00
F00E003C00
F00E003800
F00E007800
F00E00F020
700E00E020
700E01E020
701E01C060
383E038060
186E0780E0
07CFC7FFE0
ENDCHAR
STARTCHAR 01F4
ENCODING 500
SWIDTH 707 0
DWIDTH 29 0
BBX 25 38 3 1
BITMAP
00038000
00038000
00078000
000E0000
000C0000
00180000
00300000
00000000
00100000
01FE0800
06039800
0C00F800
1C00F800
18007800
38003800
38003800
70001800
70001800
70000800
F0000800
F0000000
F0000000
F0000000
F007FF80
F0007800
F0007800
F0007800
F0007800
70007800
70007800
70007800
38007800
38007800
1800F800
1C00C800
0C018800
06030800
01FE0800
ENDCHAR
STARTCHAR 01F5
ENCODING 501
SWIDTH 536 0
DWIDTH 22 0
BBX 20 37 2 -8
BITMAP
000E00
001E00
003C00
003800
006000
00C000
008000
000000
000000
07E1C0
1C3A60
381EF0
701EF0
700EE0
F00F00
F00F00
F00F00
700E00
701E00
381C00
1C3800
07E000
380000
400000
C00000
E00000
FFFE00
3FFF00
0F0780
7001C0
4000C0
C000C0
C000C0
C00180
600180
380600
07F800
ENDCHAR
STARTCHAR 01F6
ENCODING 502
SWIDTH 975 0
DWIDTH 40 0
BBX 35 29 3 0
BITMAP
FFF0FFF000
0F000F0000
0F000F0000
0F000F0000
0F000F0000
0F000F0000
0F000F0000
0F000F0000
0F000F0000
0F000F0000
0F000F0000
0F000F0000
0F000F0000
0FFFFF0780
0F000F07C0
0F000F07C0
0F000F03C0
0F000F01E0
0F000F00E0
0F000F0060
0F000F0060
0F000F0060
0F000F0060
0F00070060
0F000700C0
0F000700C0
0F00038180
0F0003E700
FFF000FE00
ENDCHAR
STARTCHAR 01F7
ENCODING 503
SWIDTH 609 0
DWIDTH 25 0
BBX 21 36 3 -6
BITMAP
0E0F80
3E1FC0
FE7FE0
9EFFE0
1F81F0
1E01F0
1E00F0
1E00F8
1E0078
1E0078
1E0070
1E0070
1E0070
1E0070
1E0070
1E00E0
1E00E0
1E00C0
1E01C0
1E0380
1E0300
1E0600
1E1C00
1E3000
1FE000
1F0000
1E0000
1E0000
1E0000
1E0000
1E0000
1E0000
1E0000
1C0000
700000
C00000
ENDCHAR
STARTCHAR 01FA
ENCODING 506
SWIDTH 780 0
DWIDTH 32 0
BBX 29 38 2 1
BITMAP
0000C000
00018000
00020000
000F8000
0010C000
00104000
0010C000
000F8000
00000000
00020000
00070000
00070000
00070000
000F8000
000F8000
000F8000
001BC000
001BC000
0013C000
0031E000
0031E000
0061E000
0060F000
0060F000
00C0F000
00C07800
00C07800
01807800
01FFFC00
01803C00
03001E00
03001E00
02001E00
06000F00
06000F00
0E000F00
1F000F80
FFE0FFF8
ENDCHAR
STARTCHAR 01FB
ENCODING 507
SWIDTH 512 0
DWIDTH 21 0
BBX 18 36 2 0
BITMAP
001800
003800
007800
00F000
00C000
018000
030000
000000
078000
084000
102000
102000
102000
102000
084000
078000
000000
0FC000
387000
203800
601C00
701C00
781C00
381C00
001C00
00FC00
0F1C00
381C00
701C00
E01C00
E01C40
E03C40
E05C40
E09CC0
709F80
1F0F00
ENDCHAR
STARTCHAR 01FC
ENCODING 508
SWIDTH 1000 0
DWIDTH 41 0
BBX 37 38 1 0
BITMAP
0000000600
0000000E00
0000001E00
0000001800
0000003000
0000006000
000000C000
0000000000
0000000000
0003FFFFF8
00007C00F8
00007C0038
00007C0038
0000FC0018
0001BC0018
0001BC0008
00033C0008
00033C0408
00063C0400
00063C0400
000C3C0400
000C3C0C00
00183C1C00
00183FFC00
00303C1C00
00303C0C00
00603C0400
00603C0408
00FFFC0408
00803C0408
01803C0008
01003C0018
03003C0018
02003C0018
06003C0038
0E003C0078
1F003C01F8
FFE1FFFFF8
ENDCHAR
STARTCHAR 01FD
ENCODING 509
SWIDTH 707 0
DWIDTH 29 0
BBX 25 28 2 1
BITMAP
0000E000
0001E000
0001C000
00038000
00070000
00040000
00080000
00000000
00000000
0FC1F000
38731C00
201E0E00
601E0700
781C0700
781C0700
381C0780
001C0780
03FFFF80
1C1C0000
701C0000
701C0000
E01C0180
E01C0100
E03E0100
E02E0100
E0460200
70830400
1F00F800
ENDCHAR
STARTCHAR 01FE
ENCODING 510
SWIDTH 707 0
DWIDTH 29 0
BBX 24 38 3 1
BITMAP
0000E0
0001C0
0003C0
000700
000600
000C00
001800
000000
000000
00FF83
0300E6
06007C
0C003C
1C0038
38003C
38007C
7800FE
7000CE
70018E
F0030F
F0060F
F00E0F
F00C0F
F0180F
F0300F
F0600F
F0E00F
F0C00F
71800E
73000E
7E001E
3E001C
3C001C
1C0038
3C0030
3E0060
6700C0
C1FF00
ENDCHAR
STARTCHAR 01FF
ENCODING 511
SWIDTH 512 0
DWIDTH 21 0
BBX 17 28 2 1
BITMAP
001C00
001C00
003800
007000
006000
00C000
018000
000000
000000
03E100
0C3B00
181E00
380E00
700E00
701F00
F03700
F06700
F0C780
F08780
F10780
F20700
F40700
7C0700
780E00
380E00
781C00
4C3800
83E000
ENDCHAR
STARTCHAR 0200
ENCODING 512
SWIDTH 780 0
DWIDTH 32 0
BBX 29 38 2 0
BITMAP
031C0000
039E0000
03CE0000
01C70000
00638000
0030C000
00104000
00000000
00000000
00020000
00060000
00070000
00070000
000F8000
000F8000
000F8000
001FC000
0013C000
0033C000
0031E000
0021E000
0061E000
0060F000
0040F000
00C0F000
00C07800
00807800
01807800
01FFFC00
01003C00
03001C00
03001E00
06001E00
06000F00
06000F00
0E000F00
1E000F80
FFE0FFF8
ENDCHAR
STARTCHAR 0201
ENCODING 513
SWIDTH 512 0
DWIDTH 21 0
BBX 19 28 1 1
BITMAP
E70000
E78000
73C000
39C000
186000
0C3000
041000
000000
000000
07E000
1C3800
101C00
300E00
3C0E00
3C0E00
1C0E00
000E00
007E00
078E00
1C0E00
380E00
700E00
700E20
701E20
701E20
702E60
384FC0
0F8780
ENDCHAR
STARTCHAR 0202
ENCODING 514
SWIDTH 780 0
DWIDTH 32 0
BBX 29 37 2 0
BITMAP
000F8000
001FC000
0030E000
00603000
00401000
00801800
00000000
00000000
00020000
00060000
00070000
00070000
000F8000
000F8000
000F8000
001FC000
0013C000
0033C000
0031E000
0021E000
0061E000
0060F000
0040F000
00C0F000
00C07800
00807800
01807800
01FFFC00
01003C00
03001C00
03001E00
06001E00
06000F00
06000F00
0E000F00
1E000F80
FFE0FFF8
ENDCHAR
STARTCHAR 0203
ENCODING 515
SWIDTH 512 0
DWIDTH 21 0
BBX 18 28 2 0
BITMAP
038000
0FC000
0C6000
103000
301000
200800
000800
000000
000000
0FC000
387000
203800
601C00
781C00
781C00
381C00
001C00
00FC00
0F1C00
381C00
701C00
E01C00
E01C40
E03C40
E03C40
E05CC0
709F80
1F0F00
ENDCHAR
STARTCHAR 0204
ENCODING 516
SWIDTH 682 0
DWIDTH 28 0
BBX 23 38 2 0
BITMAP
0C7000
0E7800
073800
039C00
018600
00C300
002100
000000
000000
FFFFFE
0F003E
0F000E
0F000E
0F0006
0F0006
0F0002
0F0002
0F0102
0F0100
0F0100
0F0100
0F0300
0F0700
0FFF00
0F0700
0F0300
0F0100
0F0102
0F0102
0F0102
0F0002
0F0006
0F0006
0F0006
0F000E
0F001E
0F007E
FFFFFE
ENDCHAR
STARTCHAR 0205
ENCODING 517
SWIDTH 463 0
DWIDTH 19 0
BBX 16 28 1 1
BITMAP
E380
F380
71C0
38E0
1C60
0430
0218
0000
0000
03E0
0638
1C1C
180E
380E
380E
780F
780F
7FFF
7800
7800
7800
7803
3802
3802
1C02
1C04
0E08
03F0
ENDCHAR
STARTCHAR 0206
ENCODING 518
SWIDTH 707 0
DWIDTH 29 0
BBX 23 37 3 0
BITMAP
003E00
007F00
00C180
0180C0
010040
020020
000000
000000
FFFFFE
0F003E
0F000E
0F000E
0F0006
0F0006
0F0002
0F0002
0F0102
0F0100
0F0100
0F0100
0F0300
0F0700
0FFF00
0F0700
0F0300
0F0100
0F0102
0F0102
0F0102
0F0002
0F0006
0F0006
0F0006
0F000E
0F001E
0F007E
FFFFFE
ENDCHAR
STARTCHAR 0207
ENCODING 519
SWIDTH 463 0
DWIDTH 19 0
BBX 15 28 2 0
BITMAP
03C0
07E0
0C70
0810
1008
1008
0000
0000
0000
07C0
0C70
3838
301C
701C
701C
F01E
F01E
FFFE
F000
F000
F000
F006
7004
7004
3804
3808
1C10
07E0
ENDCHAR
STARTCHAR 0208
ENCODING 520
SWIDTH 390 0
DWIDTH 16 0
BBX 14 38 0 0
BITMAP
C600
E700
E780
71C0
38C0
0860
0430
0000
0000
3FFC
03C0
03C0
03C0
03C0
03C0
03C0
03C0
03C0
03C0
03C0
03C0
03C0
03C0
03C0
03C0
03C0
03C0
03C0
03C0
03C0
03C0
03C0
03C0
03C0
03C0
03C0
03C0
3FFC
ENDCHAR
STARTCHAR 0209
ENCODING 521
SWIDTH 268 0
DWIDTH 11 0
BBX 13 28 -3 0
BITMAP
C300
E780
7380
39C0
1860
0C30
0210
0000
0000
0FC0
01C0
01C0
01C0
01C0
01C0
01C0
01C0
01C0
01C0
01C0
01C0
01C0
01C0
01C0
01C0
01C0
01C0
0FF8
ENDCHAR
STARTCHAR 020A
ENCODING 522
SWIDTH 414 0
DWIDTH 17 0
BBX 12 37 3 0
BITMAP
0F00
3FC0
30C0
6060
C030
8010
0000
0000
FFF0
0F00
0F00
0F00
0F00
0F00
0F00
0F00
0F00
0F00
0F00
0F00
0F00
0F00
0F00
0F00
0F00
0F00
0F00
0F00
0F00
0F00
0F00
0F00
0F00
0F00
0F00
0F00
FFF0
ENDCHAR
STARTCHAR 020B
ENCODING 523
SWIDTH 268 0
DWIDTH 11 0
BBX 11 27 0 0
BITMAP
1E00
3F80
3180
4040
8020
8020
0000
0000
7E00
0E00
0E00
0E00
0E00
0E00
0E00
0E00
0E00
0E00
0E00
0E00
0E00
0E00
0E00
0E00
0E00
0E00
7FC0
ENDCHAR
STARTCHAR 020C
ENCODING 524
SWIDTH 707 0
DWIDTH 29 0
BBX 24 38 3 1
BITMAP
1C7000
1E7000
0E3800
071C00
038E00
008600
004100
000000
000000
00FF00
0300C0
060060
0C0030
1C0038
38001C
38001C
78001E
70000E
70000E
F0000F
F0000F
F0000F
F0000F
F0000F
F0000F
F0000F
F0000F
F0000F
70000E
70000E
78001E
38001C
38001C
1C0038
0C0030
060060
0300C0
00FF00
ENDCHAR
STARTCHAR 020D
ENCODING 525
SWIDTH 512 0
DWIDTH 21 0
BBX 17 28 2 1
BITMAP
C70000
E78000
F38000
31C000
18E000
0C2000
041000
000000
000000
03E000
0C3800
181C00
380E00
700E00
700700
F00700
F00700
F00780
F00780
F00780
F00700
F00700
700700
700E00
380E00
181C00
0C3800
03E000
ENDCHAR
STARTCHAR 020E
ENCODING 526
SWIDTH 707 0
DWIDTH 29 0
BBX 24 37 3 0
BITMAP
003C00
00FF00
01C380
010080
0300C0
020040
000000
000000
00FF00
0300C0
060060
0C0030
1C0038
38001C
38001C
78001E
70000E
70000E
F0000F
F0000F
F0000F
F0000F
F0000F
F0000F
F0000F
F0000F
F0000F
70000E
70000E
78001E
38001C
38001C
1C0038
0C0030
060060
0300C0
00FF00
ENDCHAR
STARTCHAR 020F
ENCODING 527
SWIDTH 512 0
DWIDTH 21 0
BBX 17 28 2 0
BITMAP
01C000
07E000
063000
081800
180800
100400
100400
000000
000000
03E000
0C3800
181C00
380E00
700E00
700700
F00700
F00700
F00780
F00780
F00780
F00700
F00700
700700
700E00
380E00
181C00
0C3800
03E000
ENDCHAR
STARTCHAR 0210
ENCODING 528
SWIDTH 707 0
DWIDTH 29 0
BBX 25 38 3 1
BITMAP
38E00000
1CF00000
1E700000
06380000
031C0000
01840000
00820000
00000000
00000000
FFFF8000
0F01F000
0F007800
0F007800
0F003C00
0F003C00
0F003C00
0F003C00
0F003C00
0F007800
0F00F000
0F01E000
0FFF0000
0F038000
0F01C000
0F00E000
0F00E000
0F00F000
0F00F000
0F00F000
0F00F000
0F00F000
0F00F880
0F007880
0F007880
0F007980
0F007F00
0F003F00
FFF81E00
ENDCHAR
STARTCHAR 0211
ENCODING 529
SWIDTH 390 0
DWIDTH 16 0
BBX 15 28 1 0
BITMAP
C300
E780
F380
39C0
18E0
0C20
0610
0000
0000
7C38
1CC4
1C8E
1D1E
1F1C
1E0C
1E00
1E00
1C00
1C00
1C00
1C00
1C00
1C00
1C00
1C00
1C00
1C00
7F80
ENDCHAR
STARTCHAR 0212
ENCODING 530
SWIDTH 707 0
DWIDTH 29 0
BBX 25 38 3 0
BITMAP
00780000
00FC0000
01860000
03030000
02010000
04008000
04008000
00000000
00000000
FFFF8000
0F01F000
0F007800
0F007800
0F003C00
0F003C00
0F003C00
0F003C00
0F003C00
0F007800
0F00F000
0F01E000
0FFF0000
0F038000
0F01C000
0F00E000
0F00E000
0F00F000
0F00F000
0F00F000
0F00F000
0F00F000
0F00F880
0F007880
0F007880
0F007980
0F007F00
0F003F00
FFF81E00
ENDCHAR
STARTCHAR 0213
ENCODING 531
SWIDTH 390 0
DWIDTH 16 0
BBX 15 27 1 0
BITMAP
03C0
07F0
0630
0808
1008
1004
0000
0000
FC38
1CC4
1C8E
1D1E
1F1C
1E0C
1E00
1E00
1C00
1C00
1C00
1C00
1C00
1C00
1C00
1C00
1C00
1C00
FF80
ENDCHAR
STARTCHAR 0214
ENCODING 532
SWIDTH 829 0
DWIDTH 34 0
BBX 29 38 3 1
BITMAP
038E0000
03CE0000
01C70000
00E38000
00718000
0010C000
00082000
00000000
00000000
FFF01FF8
0F0003C0
0F000180
0F000180
0F000180
0F000180
0F000180
0F000180
0F000180
0F000180
0F000180
0F000180
0F000180
0F000180
0F000180
0F000180
0F000180
0F000180
0F000180
0F000180
0F000180
0F000180
0F000180
07000100
07000300
03800200
01C00600
00E01800
003FF000
ENDCHAR
STARTCHAR 0215
ENCODING 533
SWIDTH 536 0
DWIDTH 22 0
BBX 20 28 1 1
BITMAP
71C000
79C000
38E000
1C7000
063000
021800
010000
000000
000000
FC1F80
1C0380
1C0380
1C0380
1C0380
1C0380
1C0380
1C0380
1C0380
1C0380
1C0380
1C0380
1C0380
1C0780
1C0780
1C0F80
0C0B80
0E3380
03C3F0
ENDCHAR
STARTCHAR 0216
ENCODING 534
SWIDTH 829 0
DWIDTH 34 0
BBX 29 37 3 0
BITMAP
000F8000
001FC000
00386000
00203000
00401000
00400800
00000000
00000000
FFF01FF8
0F0003C0
0F000180
0F000180
0F000180
0F000180
0F000180
0F000180
0F000180
0F000180
0F000180
0F000180
0F000180
0F000180
0F000180
0F000180
0F000180
0F000180
0F000180
0F000180
0F000180
0F000180
0F000180
07000100
07000300
03800200
01C00600
00E01800
003FF000
ENDCHAR
STARTCHAR 0217
ENCODING 535
SWIDTH 536 0
DWIDTH 22 0
BBX 20 28 1 0
BITMAP
00F000
01F800
031800
060400
040200
080200
000000
000000
000000
FC1F80
1C0380
1C0380
1C0380
1C0380
1C0380
1C0380
1C0380
1C0380
1C0380
1C0380
1C0380
1C0380
1C0780
1C0780
1C0F80
0C0B80
0E3380
03C3F0
ENDCHAR
STARTCHAR 0218
ENCODING 536
SWIDTH 609 0
DWIDTH 25 0
BBX 19 39 4 -9
BITMAP
0FF0C0
301CC0
600FC0
6007C0
C003C0
C001C0
C001C0
C000C0
E000C0
F000C0
780040
7F0000
3FC000
1FF800
0FFE00
01FF80
807F80
800FC0
8003E0
8001E0
C000E0
C00060
E00060
E00060
F00060
F800C0
9C0080
860100
83DE00
002000
000000
00E000
00F000
00F000
003000
001000
002000
004000
008000
ENDCHAR
STARTCHAR 0219
ENCODING 537
SWIDTH 439 0
DWIDTH 18 0
BBX 14 28 2 -9
BITMAP
1F10
60D0
4070
C030
C010
E010
F000
7E00
3F80
1FE0
03F8
80FC
C01C
C00C
E00C
E00C
F008
8C18
83E0
0000
0380
03C0
03C0
00C0
0040
0080
0100
0200
ENDCHAR
STARTCHAR 021A
ENCODING 538
SWIDTH 707 0
DWIDTH 29 0
BBX 24 39 3 -10
BITMAP
FFFFFF
F83C1F
F03C0F
E03C07
C03C03
C03C03
C03C03
803C01
803C01
803C01
803C01
003C00
003C00
003C00
003C00
003C00
003C00
003C00
003C00
003C00
003C00
003C00
003C00
003C00
003C00
003C00
003C00
003C00
07FFE0
000000
000000
003800
003C00
003C00
000C00
000C00
000800
001000
002000
ENDCHAR
STARTCHAR 021B
ENCODING 539
SWIDTH 341 0
DWIDTH 14 0
BBX 12 35 1 -9
BITMAP
0400
0400
0400
0400
0400
0C00
0C00
1C00
FFE0
1C00
1C00
1C00
1C00
1C00
1C00
1C00
1C00
1C00
1C00
1C00
1C10
1C10
1C10
1C30
1E20
0FE0
07C0
0000
0700
0780
0780
0080
0080
0100
0200
ENDCHAR
STARTCHAR 021C
ENCODING 540
SWIDTH 512 0
DWIDTH 21 0
BBX 16 35 3 -5
BITMAP
03F8
07FC
1FFE
381E
601F
400F
000F
000E
001E
001C
0038
0070
00E0
01F0
07FC
0FFE
3FFE
303F
001F
000F
000F
000F
000F
000E
001E
001C
003C
0038
0070
00E0
03C0
0700
1E00
7800
C000
ENDCHAR
STARTCHAR 021D
ENCODING 541
SWIDTH 390 0
DWIDTH 16 0
BBX 14 29 1 -10
BITMAP
03C0
0FE0
1FF0
3878
6038
4038
0038
0030
0070
00E0
01C0
03C0
07F0
0FF8
38F8
607C
003C
0038
0038
0038
0070
0070
00E0
01C0
0380
0700
1C00
7000
8000
ENDCHAR
STARTCHAR 0224
ENCODING 548
SWIDTH 634 0
DWIDTH 26 0
BBX 22 38 3 -10
BITMAP
3FFFF8
3E0078
3C00F0
3801F0
3001E0
3003C0
6003C0
600780
400F80
400F00
001E00
003E00
003C00
007800
007800
00F000
01F000
01E000
03C000
07C000
078000
0F8000
1F0000
1E0000
3E0000
3C0000
7C0000
F80000
FFFFF0
0001F8
00007C
00003C
00003C
00003C
000078
000070
0001E0
000700
ENDCHAR
STARTCHAR 0225
ENCODING 549
SWIDTH 439 0
DWIDTH 18 0
BBX 15 26 2 -7
BITMAP
FFFC
E03C
C038
C078
80F0
80E0
81E0
03C0
0380
0780
0700
0F00
1E00
1C00
3C00
3800
7000
F000
FFFC
003E
001E
001E
001C
001C
0070
01C0
ENDCHAR
STARTCHAR 0228
ENCODING 552
SWIDTH 707 0
DWIDTH 29 0
BBX 23 38 3 -9
BITMAP
FFFFFE
0F003E
0F000E
0F0006
0F0006
0F0002
0F0002
0F0102
0F0100
0F0100
0F0100
0F0300
0F0700
0FFF00
0F0700
0F0300
0F0100
0F0102
0F0102
0F0102
0F0002
0F0002
0F0006
0F0006
0F0006
0F000E
0F001E
0F007E
FFFFFE
000400
000C00
000E00
000380
0001C0
0001E0
0001E0
0043C0
003F00
ENDCHAR
STARTCHAR 0229
ENCODING 553
SWIDTH 463 0
DWIDTH 19 0
BBX 15 27 2 -8
BITMAP
07C0
0C70
3838
301C
701C
701C
F01E
F00E
FFFE
F000
F000
F000
F004
7004
7004
3804
3808
1C10
07E0
0100
0200
01C0
0060
0070
0070
08F0
07C0
ENDCHAR
STARTCHAR 0232
ENCODING 562
SWIDTH 731 0
DWIDTH 30 0
BBX 27 35 2 0
BITMAP
007FF000
007FF000
00000000
00000000
00000000
00000000
FFF87FE0
0F800F00
0F800E00
07C00C00
03C00C00
03E00800
01E01800
01F01000
00F03000
00F82000
00786000
003C4000
003EC000
001E8000
001F0000
000F0000
000F0000
000F0000
000F0000
000F0000
000F0000
000F0000
000F0000
000F0000
000F0000
000F0000
000F0000
000F0000
01FFF800
ENDCHAR
STARTCHAR 0233
ENCODING 563
SWIDTH 536 0
DWIDTH 22 0
BBX 20 35 1 -9
BITMAP
07FF00
07FF00
000000
000000
000000
000000
000000
FF87F0
1E01C0
1C0180
0E0100
0E0100
0E0300
070200
070200
038600
038400
038400
01CC00
01C800
01C800
00F800
00F000
00F000
007000
006000
006000
006000
006000
304000
78C000
78C000
718000
330000
1E0000
ENDCHAR
STARTCHAR 0237
ENCODING 567
SWIDTH 341 0
DWIDTH 14 0
BBX 11 28 -1 -9
BITMAP
0FE0
00E0
00E0
00E0
00E0
00E0
00E0
00E0
00E0
00E0
00E0
00E0
00E0
00E0
00E0
00E0
00E0
00E0
00E0
00E0
00E0
00E0
E0E0
F0E0
E0C0
C180
6380
3E00
ENDCHAR
STARTCHAR 0243
ENCODING 579
SWIDTH 707 0
DWIDTH 29 0
BBX 24 29 3 0
BITMAP
FFFF80
0F00E0
0F0078
0F003C
0F001C
0F001C
0F001E
0F001E
0F001C
0F001C
0F0038
0F0030
0F00E0
0FFF00
0F00E0
0F0078
0F003C
0F003E
0F001F
0F001F
FFF01F
0F001F
0F001F
0F001F
0F003E
0F003E
0F007C
0F00F0
FFFFC0
ENDCHAR
STARTCHAR 0254
ENCODING 596
SWIDTH 439 0
DWIDTH 18 0
BBX 14 19 3 0
BITMAP
0F80
30E0
6070
C038
8038
8038
803C
003C
003C
003C
003C
603C
F03C
F038
E038
C030
6070
30E0
1F80
ENDCHAR
STARTCHAR 0259
ENCODING 601
SWIDTH 463 0
DWIDTH 19 0
BBX 15 19 2 0
BITMAP
0FC0
1070
2038
4018
401C
401C
001E
001E
001E
FFFE
F01E
F01E
F01E
701C
701C
3038
3838
1C70
07C0
ENDCHAR
STARTCHAR 025B
ENCODING 603
SWIDTH 439 0
DWIDTH 18 0
BBX 15 19 2 0
BITMAP
0FE0
3C18
700C
F00E
F01E
F01E
F004
7000
3800
0FC0
3800
7000
F00E
F01E
F00E
F006
7004
3C18
0FE0
ENDCHAR
STARTCHAR 0280
ENCODING 640
SWIDTH 512 0
DWIDTH 21 0
BBX 19 19 1 0
BITMAP
FFF800
1C1C00
1C0E00
1C0F00
1C0F00
1C0E00
1C0E00
1C1C00
1FE000
1C1800
1C0C00
1C0E00
1C0E00
1C0E00
1C0F20
1C0F20
1C0F20
1C0740
FF8380
ENDCHAR
STARTCHAR 0292
ENCODING 658
SWIDTH 439 0
DWIDTH 18 0
BBX 16 28 1 -9
BITMAP
7FFE
7FFE
7FFC
7008
6010
4030
4060
4040
0080
0180
0100
0200
07F0
0C38
081C
000E
000E
000F
000F
000F
780F
F80F
F80F
E00E
E01E
601C
3078
0FC0
ENDCHAR
STARTCHAR 02BB
ENCODING 699
SWIDTH 219 0
DWIDTH 9 0
BBX 5 9 2 20
BITMAP
10
20
40
40
C0
F0
F8
F8
70
ENDCHAR
STARTCHAR 02BC
ENCODING 700
SWIDTH 219 0
DWIDTH 9 0
BBX 5 9 2 20
BITMAP
70
F8
F8
78
18
10
10
20
40
ENDCHAR
STARTCHAR 02BD
ENCODING 701
SWIDTH 219 0
DWIDTH 9 0
BBX 5 9 2 20
BITMAP
70
F8
F8
F0
C0
40
40
20
10
ENDCHAR
STARTCHAR 02BE
ENCODING 702
SWIDTH 195 0
DWIDTH 8 0
BBX 5 9 1 20
BITMAP
C0
30
18
08
08
08
18
30
C0
ENDCHAR
STARTCHAR 02BF
ENCODING 703
SWIDTH 219 0
DWIDTH 9 0
BBX 5 9 2 20
BITMAP
18
60
C0
80
80
80
C0
60
18
ENDCHAR
STARTCHAR 02C6
ENCODING 710
SWIDTH 439 0
DWIDTH 18 0
BBX 10 7 4 20
BITMAP
0C00
0C00
1E00
3300
2100
40C0
8000
ENDCHAR
STARTCHAR 02C7
ENCODING 711
SWIDTH 439 0
DWIDTH 18 0
BBX 10 6 4 22
BITMAP
C040
6180
3300
3F00
1E00
0C00
ENDCHAR
STARTCHAR 02C9
ENCODING 713
SWIDTH 463 0
DWIDTH 19 0
BBX 11 2 4 23
BITMAP
FFE0
FFE0
ENDCHAR
STARTCHAR 02CA
ENCODING 714
SWIDTH 439 0
DWIDTH 18 0
BBX 7 7 8 21
BITMAP
06
0E
1C
38
30
60
80
ENDCHAR
STARTCHAR 02CB
ENCODING 715
SWIDTH 439 0
DWIDTH 18 0
BBX 7 7 3 21
BITMAP
C0
E0
70
38
18
0C
02
ENDCHAR
STARTCHAR 02D8
ENCODING 728
SWIDTH 414 0
DWIDTH 17 0
BBX 11 6 3 21
BITMAP
8020
8020
C060
60C0
3F80
1F00
ENDCHAR
STARTCHAR 02D9
ENCODING 729
SWIDTH 439 0
DWIDTH 18 0
BBX 4 4 7 22
BITMAP
60
F0
F0
60
ENDCHAR
STARTCHAR 02DA
ENCODING 730
SWIDTH 439 0
DWIDTH 18 0
BBX 8 8 5 20
BITMAP
3C
42
81
81
81
81
42
3C
ENDCHAR
STARTCHAR 02DB
ENCODING 731
SWIDTH 439 0
DWIDTH 18 0
BBX 7 9 4 -8
BITMAP
08
30
60
60
C0
C0
C2
FC
78
ENDCHAR
STARTCHAR 02DC
ENCODING 732
SWIDTH 439 0
DWIDTH 18 0
BBX 11 4 3 23
BITMAP
3820
7F20
CFE0
83C0
ENDCHAR
STARTCHAR 02DD
ENCODING 733
SWIDTH 439 0
DWIDTH 18 0
BBX 12 7 5 21
BITMAP
0630
0E70
1C70
38E0
31C0
6300
8200
ENDCHAR
STARTCHAR 0300
ENCODING 768
SWIDTH 0 0
DWIDTH 0 0
BBX 7 7 -17 21
BITMAP
C0
E0
70
38
18
0C
02
ENDCHAR
STARTCHAR 0301
ENCODING 769
SWIDTH 0 0
DWIDTH 0 0
BBX 7 7 -12 21
BITMAP
06
0E
1C
38
30
60
80
ENDCHAR
STARTCHAR 0302
ENCODING 770
SWIDTH 0 0
DWIDTH 0 0
BBX 10 7 -16 20
BITMAP
0C00
0E00
1E00
1B00
3180
40C0
8000
ENDCHAR
STARTCHAR 0303
ENCODING 771
SWIDTH 0 0
DWIDTH 0 0
BBX 11 4 -16 23
BITMAP
3820
7F20
CFE0
83C0
ENDCHAR
STARTCHAR 0304
ENCODING 772
SWIDTH 0 0
DWIDTH 0 0
BBX 11 2 -16 23
BITMAP
FFE0
FFE0
ENDCHAR
STARTCHAR 0305
ENCODING 773
SWIDTH 0 0
DWIDTH 0 0
BBX 21 2 -21 33
BITMAP
FFFFF8
FFFFF8
ENDCHAR
STARTCHAR 0306
ENCODING 774
SWIDTH 0 0
DWIDTH 0 0
BBX 11 6 -16 21
BITMAP
8020
8020
C060
60C0
3F80
1F00
ENDCHAR
STARTCHAR 0307
ENCODING 775
SWIDTH 0 0
DWIDTH 0 0
BBX 4 4 -13 22
BITMAP
60
F0
F0
60
ENDCHAR
STARTCHAR 0308
ENCODING 776
SWIDTH 0 0
DWIDTH 0 0
BBX 12 4 -17 22
BITMAP
6060
F0F0
F0F0
6060
ENDCHAR
STARTCHAR 030A
ENCODING 778
SWIDTH 0 0
DWIDTH 0 0
BBX 8 8 -15 20
BITMAP
3C
42
81
81
81
81
42
3C
ENDCHAR
STARTCHAR 030B
ENCODING 779
SWIDTH 0 0
DWIDTH 0 0
BBX 12 7 -15 21
BITMAP
0630
0E70
1C70
38E0
31C0
6300
8200
ENDCHAR
STARTCHAR 030C
ENCODING 780
SWIDTH 0 0
DWIDTH 0 0
BBX 10 7 -16 21
BITMAP
8000
C040
6080
3380
1F00
1E00
0C00
ENDCHAR
STARTCHAR 030F
ENCODING 783
SWIDTH 0 0
DWIDTH 0 0
BBX 12 7 -19 21
BITMAP
C300
E380
7380
39C0
1860
0C30
0210
ENDCHAR
STARTCHAR 0311
ENCODING 785
SWIDTH 0 0
DWIDTH 0 0
BBX 11 6 -16 21
BITMAP
1E00
3F00
6180
40C0
8040
8020
ENDCHAR
STARTCHAR 0312
ENCODING 786
SWIDTH 0 0
DWIDTH 0 0
BBX 5 9 -13 20
BITMAP
10
20
40
40
C0
F0
F8
F8
70
ENDCHAR
STARTCHAR 0313
ENCODING 787
SWIDTH 0 0
DWIDTH 0 0
BBX 5 9 -13 20
BITMAP
70
F8
F8
78
18
10
10
20
40
ENDCHAR
STARTCHAR 0314
ENCODING 788
SWIDTH 0 0
DWIDTH 0 0
BBX 5 9 -13 20
BITMAP
70
F8
F8
F0
C0
40
40
20
10
ENDCHAR
STARTCHAR 0316
ENCODING 790
SWIDTH 0 0
DWIDTH 0 0
BBX 7 7 -17 -10
BITMAP
C0
E0
70
38
18
0C
02
ENDCHAR
STARTCHAR 0317
ENCODING 791
SWIDTH 0 0
DWIDTH 0 0
BBX 7 7 -12 -10
BITMAP
06
0E
1C
38
30
60
80
ENDCHAR
STARTCHAR 0323
ENCODING 803
SWIDTH 0 0
DWIDTH 0 0
BBX 4 4 -13 -8
BITMAP
60
F0
F0
60
ENDCHAR
STARTCHAR 0324
ENCODING 804
SWIDTH 0 0
DWIDTH 0 0
BBX 12 4 -17 -8
BITMAP
6060
F0F0
F0F0
6060
ENDCHAR
STARTCHAR 0325
ENCODING 805
SWIDTH 0 0
DWIDTH 0 0
BBX 8 8 -15 -9
BITMAP
3C
42
81
81
81
81
42
3C
ENDCHAR
STARTCHAR 0326
ENCODING 806
SWIDTH 0 0
DWIDTH 0 0
BBX 4 8 -13 -10
BITMAP
E0
F0
F0
30
10
20
40
80
ENDCHAR
STARTCHAR 0327
ENCODING 807
SWIDTH 0 0
DWIDTH 0 0
BBX 8 8 -14 -8
BITMAP
30
20
3C
06
07
07
0F
FC
ENDCHAR
STARTCHAR 0328
ENCODING 808
SWIDTH 0 0
DWIDTH 0 0
BBX 7 9 -16 -8
BITMAP
08
30
60
60
C0
C0
C2
FC
78
ENDCHAR
STARTCHAR 032C
ENCODING 812
SWIDTH 0 0
DWIDTH 0 0
BBX 10 7 -16 -9
BITMAP
8000
C040
6080
3380
1F00
1E00
0C00
ENDCHAR
STARTCHAR 032D
ENCODING 813
SWIDTH 0 0
DWIDTH 0 0
BBX 10 7 -16 -10
BITMAP
0C00
0E00
1E00
1B00
3180
40C0
8000
ENDCHAR
STARTCHAR 032E
ENCODING 814
SWIDTH 0 0
DWIDTH 0 0
BBX 11 6 -16 -9
BITMAP
8020
8020
C060
60C0
3F80
1F00
ENDCHAR
STARTCHAR 032F
ENCODING 815
SWIDTH 0 0
DWIDTH 0 0
BBX 11 6 -16 -9
BITMAP
1E00
3F00
6180
40C0
8040
8020
ENDCHAR
STARTCHAR 0330
ENCODING 816
SWIDTH 0 0
DWIDTH 0 0
BBX 11 4 -16 -8
BITMAP
3820
7F20
CFE0
83C0
ENDCHAR
STARTCHAR 0331
ENCODING 817
SWIDTH 0 0
DWIDTH 0 0
BBX 11 2 -16 -7
BITMAP
FFE0
FFE0
ENDCHAR
STARTCHAR 0332
ENCODING 818
SWIDTH 0 0
DWIDTH 0 0
BBX 21 2 -21 -6
BITMAP
FFFFF8
FFFFF8
ENDCHAR
STARTCHAR 0333
ENCODING 819
SWIDTH 0 0
DWIDTH 0 0
BBX 21 6 -21 -11
BITMAP
FFFFF8
FFFFF8
000000
000000
FFFFF8
FFFFF8
ENDCHAR
STARTCHAR 033E
ENCODING 830
SWIDTH 0 0
DWIDTH 0 0
BBX 3 8 -12 22
BITMAP
C0
60
60
60
C0
C0
C0
60
ENDCHAR
STARTCHAR 0342
ENCODING 834
SWIDTH 0 0
DWIDTH 0 0
BBX 14 5 -18 22
BITMAP
3C18
CE3C
E31C
F1CC
60F0
ENDCHAR
STARTCHAR 0343
ENCODING 835
SWIDTH 0 0
DWIDTH 0 0
BBX 5 8 -13 21
BITMAP
F0
F8
F8
08
08
08
10
30
ENDCHAR
STARTCHAR 0344
ENCODING 836
SWIDTH 0 0
DWIDTH 0 0
BBX 13 10 -17 21
BITMAP
00E0
01E0
01C0
01C0
0380
0300
6330
F678
F478
6030
ENDCHAR
STARTCHAR 0345
ENCODING 837
SWIDTH 0 0
DWIDTH 0 0
BBX 4 8 -12 -11
BITMAP
40
60
60
E0
E0
F0
F0
60
ENDCHAR
STARTCHAR 0351
ENCODING 849
SWIDTH 0 0
DWIDTH 0 0
BBX 5 9 -13 20
BITMAP
18
60
C0
80
80
80
C0
60
18
ENDCHAR
STARTCHAR 0357
ENCODING 855
SWIDTH 0 0
DWIDTH 0 0
BBX 5 9 -13 20
BITMAP
C0
30
18
08
08
08
18
30
C0
ENDCHAR
STARTCHAR 0359
ENCODING 857
SWIDTH 0 0
DWIDTH 0 0
BBX 9 10 -15 -11
BITMAP
1800
1800
D980
EB80
2C00
1C00
EB80
C980
1800
1800
ENDCHAR
STARTCHAR 035C
ENCODING 860
SWIDTH 0 0
DWIDTH 0 0
BBX 24 5 -12 -9
BITMAP
C00003
30000C
1F00F8
07FFE0
00FF00
ENDCHAR
STARTCHAR 035D
ENCODING 861
SWIDTH 0 0
DWIDTH 0 0
BBX 24 6 -12 27
BITMAP
800001
600006
38001C
0FFFF0
03FFC0
003C00
ENDCHAR
STARTCHAR 0361
ENCODING 865
SWIDTH 0 0
DWIDTH 0 0
BBX 24 5 -12 28
BITMAP
00FF00
07FFE0
1E0078
70000E
C00003
ENDCHAR
STARTCHAR 0363
ENCODING 867
SWIDTH 0 0
DWIDTH 0 0
BBX 11 11 -16 21
BITMAP
1E00
6300
6180
7180
3180
0F80
7180
C180
C1A0
E7A0
78C0
ENDCHAR
STARTCHAR 0364
ENCODING 868
SWIDTH 0 0
DWIDTH 0 0
BBX 9 11 -16 21
BITMAP
1E00
3300
6180
E180
E180
FF80
E000
E000
6080
7100
1E00
ENDCHAR
STARTCHAR 0365
ENCODING 869
SWIDTH 0 0
DWIDTH 0 0
BBX 5 16 -13 22
BITMAP
70
70
70
00
00
F0
30
30
30
30
30
30
30
30
30
F8
ENDCHAR
STARTCHAR 0366
ENCODING 870
SWIDTH 0 0
DWIDTH 0 0
BBX 10 11 -16 21
BITMAP
1E00
3300
6180
E1C0
E1C0
E1C0
E1C0
E1C0
6180
3300
1E00
ENDCHAR
STARTCHAR 0367
ENCODING 871
SWIDTH 0 0
DWIDTH 0 0
BBX 13 11 -18 21
BITMAP
F1E0
3060
3060
3060
3060
3060
3060
3060
30E0
3960
1E78
ENDCHAR
STARTCHAR 0368
ENCODING 872
SWIDTH 0 0
DWIDTH 0 0
BBX 9 11 -16 21
BITMAP
1E00
3100
6080
E180
E100
E000
E000
E080
6080
3100
1E00
ENDCHAR
STARTCHAR 0369
ENCODING 873
SWIDTH 0 0
DWIDTH 0 0
BBX 11 16 -17 21
BITMAP
0780
0180
0180
0180
0180
3D80
7380
6380
E180
E180
E180
E180
E180
6180
7380
3DE0
ENDCHAR
STARTCHAR 036A
ENCODING 874
SWIDTH 0 0
DWIDTH 0 0
BBX 13 16 -17 22
BITMAP
F000
3000
3000
3000
3000
33C0
34E0
3860
3060
3060
3060
3060
3060
3060
3060
FDF8
ENDCHAR
STARTCHAR 036B
ENCODING 875
SWIDTH 0 0
DWIDTH 0 0
BBX 18 11 -20 22
BITMAP
F39E00
3CE300
38E300
30C300
30C300
30C300
30C300
30C300
30C300
30C300
F9E7C0
ENDCHAR
STARTCHAR 036C
ENCODING 876
SWIDTH 0 0
DWIDTH 0 0
BBX 9 11 -15 22
BITMAP
F380
3480
3980
3800
3000
3000
3000
3000
3000
3000
FC00
ENDCHAR
STARTCHAR 036D
ENCODING 877
SWIDTH 0 0
DWIDTH 0 0
BBX 8 13 -15 22
BITMAP
10
10
30
FE
30
30
30
30
30
31
31
31
1E
ENDCHAR
STARTCHAR 036E
ENCODING 878
SWIDTH 0 0
DWIDTH 0 0
BBX 12 11 -17 21
BITMAP
F8F0
3040
3040
1880
1880
0C80
0D00
0F00
0700
0600
0200
ENDCHAR
STARTCHAR 036F
ENCODING 879
SWIDTH 0 0
DWIDTH 0 0
BBX 11 11 -16 22
BITMAP
FBC0
7180
3900
1A00
1C00
0E00
0E00
1300
2380
2180
F3E0
ENDCHAR
STARTCHAR 0374
ENCODING 884
SWIDTH 243 0
DWIDTH 10 0
BBX 6 8 3 21
BITMAP
1C
3C
38
30
70
60
C0
80
ENDCHAR
STARTCHAR 0375
ENCODING 885
SWIDTH 243 0
DWIDTH 10 0
BBX 7 9 1 -11
BITMAP
06
04
0C
18
38
70
F0
E0
E0
ENDCHAR
STARTCHAR 037A
ENCODING 890
SWIDTH 439 0
DWIDTH 18 0
BBX 4 8 7 -11
BITMAP
60
60
60
60
F0
F0
F0
60
ENDCHAR
STARTCHAR 037E
ENCODING 894
SWIDTH 292 0
DWIDTH 12 0
BBX 6 26 3 -7
BITMAP
70
F8
F8
F8
70
00
00
00
00
00
00
00
00
00
70
F8
FC
7C
0C
0C
0C
08
18
30
20
40
ENDCHAR
STARTCHAR 0384
ENCODING 900
SWIDTH 243 0
DWIDTH 10 0
BBX 5 9 4 21
BITMAP
38
38
70
70
60
C0
C0
80
80
ENDCHAR
STARTCHAR 0385
ENCODING 901
SWIDTH 463 0
DWIDTH 19 0
BBX 13 10 3 21
BITMAP
00E0
01E0
01C0
01C0
0380
0300
6330
F678
F478
6030
ENDCHAR
STARTCHAR 0386
ENCODING 902
SWIDTH 804 0
DWIDTH 33 0
BBX 29 29 3 1
BITMAP
1C020000
1C060000
38070000
38070000
300F8000
200F8000
600F8000
401FC000
0013C000
0033C000
0031E000
0021E000
0061E000
0060F000
0040F000
00C0F000
00C07800
00807800
01807800
01FFFC00
03003C00
03001E00
03001E00
06001E00
06000F00
06000F00
0E000F00
1F001FC0
FFE0FFF8
ENDCHAR
STARTCHAR 0387
ENCODING 903
SWIDTH 292 0
DWIDTH 12 0
BBX 6 6 3 15
BITMAP
78
FC
FC
FC
FC
78
ENDCHAR
STARTCHAR 0388
ENCODING 904
SWIDTH 951 0
DWIDTH 39 0
BBX 32 29 4 1
BITMAP
187FFFFF
387FFFFF
3807800F
30078007
70078003
60078003
40078001
C0078001
00078081
00078080
00078080
00078180
00078180
0007FF80
0007FF80
00078380
00078180
00078080
00078081
00078081
00078081
00078001
00078001
00078003
00078003
00078007
0007800F
0007803F
007FFFFF
ENDCHAR
STARTCHAR 0389
ENCODING 905
SWIDTH 1048 0
DWIDTH 43 0
BBX 37 29 4 1
BITMAP
187FF87FF8
387FF87FF8
3807800780
3007800780
7007800780
6007800780
4007800780
C007800780
0007800780
0007800780
0007800780
0007800780
0007800780
0007FFFF80
0007FFFF80
0007800780
0007800780
0007800780
0007800780
0007800780
0007800780
0007800780
0007800780
0007800780
0007800780
0007800780
0007800780
007FF87FF8
007FF87FF8
ENDCHAR
STARTCHAR 038A
ENCODING 906
SWIDTH 658 0
DWIDTH 27 0
BBX 21 29 4 1
BITMAP
187FF8
387FF8
380780
300780
700780
600780
400780
C00780
000780
000780
000780
000780
000780
000780
000780
000780
000780
000780
000780
000780
000780
000780
000780
000780
000780
000780
000780
007FF8
007FF8
ENDCHAR
STARTCHAR 038C
ENCODING 908
SWIDTH 853 0
DWIDTH 35 0
BBX 29 29 4 1
BITMAP
3807F800
381F3E00
70380700
70700380
60E001C0
61E001E0
C1C000E0
83C000F0
83C000F0
03800070
07800078
07800078
07800078
07800078
07800078
07800078
07800078
07800078
07800078
03800070
03C000F0
03C000F0
01C000E0
01E001E0
00E001C0
00700380
00380700
001F3E00
0007F800
ENDCHAR
STARTCHAR 038E
ENCODING 910
SWIDTH 878 0
DWIDTH 36 0
BBX 31 29 4 1
BITMAP
18E000FC
383801DE
381C031E
3007063E
7007043E
60038C3C
4001C818
C001D800
8001F800
0000F000
0000F000
0000F000
0000F000
0000F000
0000F000
0000F000
0000F000
0000F000
0000F000
0000F000
0000F000
0000F000
0000F000
0000F000
0000F000
0000F000
0000F000
0000F000
001FFF80
ENDCHAR
STARTCHAR 038F
ENCODING 911
SWIDTH 878 0
DWIDTH 36 0
BBX 30 29 4 1
BITMAP
1807FE00
381F9F80
383C03C0
307801E0
70F000F0
61E00078
61E00078
C3C0003C
83C0003C
03C0003C
03C0003C
03C0003C
03C0003C
03C0003C
01C00038
01C00078
01E00070
00E00070
007000E0
003801C0
001C0380
02030C0C
01010808
01010808
01010808
01010808
01FF0FF8
01FF0FF8
01FF0FF8
ENDCHAR
STARTCHAR 0390
ENCODING 912
SWIDTH 292 0
DWIDTH 12 0
BBX 13 31 -1 0
BITMAP
00E0
00E0
01C0
01C0
0180
0300
6330
F278
F678
6030
0000
0000
0700
0F00
0F00
0F00
0E00
0E00
0E00
0C00
0C00
0C00
0800
0800
0800
0800
0840
0C40
0FE0
07C0
0380
ENDCHAR
STARTCHAR 0391
ENCODING 913
SWIDTH 780 0
DWIDTH 32 0
BBX 29 29 2 0
BITMAP
00020000
00070000
00070000
00070000
000F8000
000F8000
001F8000
001FC000
0013C000
0033C000
0031E000
0021E000
0061E000
0060F000
0040F000
00C0F800
00C07800
01807800
01807C00
01FFFC00
03003C00
03001E00
03001E00
06001E00
06000F00
0E000F00
1E000F80
FFE0FFF8
FFE0FFF8
ENDCHAR
STARTCHAR 0392
ENCODING 914
SWIDTH 682 0
DWIDTH 28 0
BBX 23 29 3 0
BITMAP
FFFF00
FFFFE0
0F00F0
0F0038
0F0038
0F001C
0F001C
0F001C
0F001C
0F001C
0F0038
0F0030
0F00E0
0FFF80
0FFFC0
0F00F0
0F0038
0F003C
0F001C
0F001E
0F001E
0F001E
0F001E
0F001E
0F003C
0F003C
0F00F8
FFFFE0
FFFF80
ENDCHAR
STARTCHAR 0393
ENCODING 915
SWIDTH 658 0
DWIDTH 27 0
BBX 22 29 3 0
BITMAP
FFFFFC
FFFFFC
0F007C
0F003C
0F001C
0F001C
0F000C
0F000C
0F000C
0F0004
0F0004
0F0000
0F0000
0F0000
0F0000
0F0000
0F0000
0F0000
0F0000
0F0000
0F0000
0F0000
0F0000
0F0000
0F0000
0F0000
0F0000
FFF800
FFF800
ENDCHAR
STARTCHAR 0394
ENCODING 916
SWIDTH 634 0
DWIDTH 26 0
BBX 23 29 2 0
BITMAP
003000
003000
003800
007800
007800
007C00
00FC00
009E00
019E00
019E00
010F00
030F00
020F00
060780
060780
0403C0
0C03C0
0C03C0
0801E0
1801E0
1001F0
3000F0
3000F0
200078
600078
40007C
7FFFFC
FFFFFC
FFFFFE
ENDCHAR
STARTCHAR 0395
ENCODING 917
SWIDTH 707 0
DWIDTH 29 0
BBX 23 29 3 0
BITMAP
FFFFFE
FFFFFE
0F001E
0F000E
0F0006
0F0006
0F0002
0F0002
0F0102
0F0100
0F0100
0F0300
0F0300
0FFF00
0FFF00
0F0700
0F0300
0F0100
0F0102
0F0102
0F0102
0F0002
0F0002
0F0006
0F0006
0F000E
0F001E
0F007E
FFFFFE
ENDCHAR
STARTCHAR 0396
ENCODING 918
SWIDTH 658 0
DWIDTH 27 0
BBX 22 29 3 0
BITMAP
3FFFFC
3FFFFC
3E0078
3C00F0
3801F0
3001E0
6003C0
6007C0
600780
400F00
401F00
001E00
003C00
007C00
007800
00F000
01F000
01E004
03C004
07C004
0F800C
0F000C
1F000C
3E001C
3C003C
7C007C
F800F8
FFFFF8
FFFFF8
ENDCHAR
STARTCHAR 0397
ENCODING 919
SWIDTH 804 0
DWIDTH 33 0
BBX 28 29 3 0
BITMAP
FFF0FFF0
FFF0FFF0
0F000F00
0F000F00
0F000F00
0F000F00
0F000F00
0F000F00
0F000F00
0F000F00
0F000F00
0F000F00
0F000F00
0FFFFF00
0FFFFF00
0F000F00
0F000F00
0F000F00
0F000F00
0F000F00
0F000F00
0F000F00
0F000F00
0F000F00
0F000F00
0F000F00
0F000F00
FFF0FFF0
FFF0FFF0
ENDCHAR
STARTCHAR 0398
ENCODING 920
SWIDTH 707 0
DWIDTH 29 0
BBX 24 29 3 1
BITMAP
00FF00
03E7C0
0700E0
0E0070
1C0038
3C003C
38001C
78001E
78001E
72008E
F2008F
F2008F
F3FF8F
F3FF8F
F3FF8F
F2008F
F2008F
F2008F
F2008F
70000E
78001E
78001E
38001C
3C003C
1C0038
0E0070
0700E0
03E7C0
00FF00
ENDCHAR
STARTCHAR 0399
ENCODING 921
SWIDTH 414 0
DWIDTH 17 0
BBX 12 29 3 0
BITMAP
FFF0
FFF0
0F00
0F00
0F00
0F00
0F00
0F00
0F00
0F00
0F00
0F00
0F00
0F00
0F00
0F00
0F00
0F00
0F00
0F00
0F00
0F00
0F00
0F00
0F00
0F00
0F00
FFF0
FFF0
ENDCHAR
STARTCHAR 039A
ENCODING 922
SWIDTH 780 0
DWIDTH 32 0
BBX 27 29 3 0
BITMAP
FFF1FFC0
FFF1FFC0
0F003E00
0F003C00
0F003800
0F007000
0F00E000
0F01C000
0F038000
0F070000
0F0E0000
0F1E0000
0F3E0000
0F6F0000
0FCF8000
0F878000
0F07C000
0F03C000
0F03E000
0F01E000
0F01F000
0F00F000
0F00F800
0F007C00
0F007C00
0F003E00
0F003E00
FFF1FFE0
FFF1FFE0
ENDCHAR
STARTCHAR 039B
ENCODING 923
SWIDTH 780 0
DWIDTH 32 0
BBX 29 29 2 0
BITMAP
00020000
00070000
00070000
00070000
000F8000
000F8000
001F8000
001FC000
0013C000
0033C000
0031E000
0021E000
0061E000
0060F000
0040F000
00C0F800
00C07800
01807800
01803C00
01803C00
03003C00
03001E00
02001E00
06001E00
06000F00
0E000F00
1E000F80
FFE0FFF8
FFE0FFF8
ENDCHAR
STARTCHAR 039C
ENCODING 924
SWIDTH 853 0
DWIDTH 35 0
BBX 30 29 3 0
BITMAP
FF8007FC
FF8007FC
0FC007C0
0FC00FC0
0FC00FC0
0DE00BC0
0DE00BC0
0DE01BC0
0CE013C0
0CF013C0
0CF033C0
0CF033C0
0C7823C0
0C7823C0
0C7863C0
0C3863C0
0C3C43C0
0C3C43C0
0C1CC3C0
0C1E83C0
0C1E83C0
0C0F83C0
0C0F83C0
0C0F03C0
0C0F03C0
0C0703C0
1E0603C0
FFC63FFC
FFC23FFC
ENDCHAR
STARTCHAR 039D
ENCODING 925
SWIDTH 780 0
DWIDTH 32 0
BBX 28 29 3 0
BITMAP
FF003FF0
FF803FF0
0FC00780
0FC00300
0FE00300
0DE00300
0DF00300
0CF80300
0C780300
0C7C0300
0C3E0300
0C3E0300
0C1F0300
0C0F0300
0C0F8300
0C07C300
0C03C300
0C03E300
0C01F300
0C00F300
0C00FB00
0C007B00
0C003F00
0C003F00
0C001F00
0C000F00
1E000F00
FFC00700
FFC00300
ENDCHAR
STARTCHAR 039E
ENCODING 926
SWIDTH 658 0
DWIDTH 27 0
BBX 22 29 3 0
BITMAP
FFFFFC
FFFFFC
FFFFFC
800004
800004
800004
800004
800004
800004
040080
040080
040080
07FF80
07FF80
07FF80
040080
040080
040080
040080
000000
800004
800004
800004
800004
800004
800004
FFFFFC
FFFFFC
FFFFFC
ENDCHAR
STARTCHAR 039F
ENCODING 927
SWIDTH 707 0
DWIDTH 29 0
BBX 24 29 3 1
BITMAP
00FF00
03E7C0
0700E0
0E0070
1C0038
3C003C
38001C
78001E
78001E
70000E
F0000F
F0000F
F0000F
F0000F
F0000F
F0000F
F0000F
F0000F
F0000F
70000E
78001E
78001E
38001C
3C003C
1C0038
0E0070
0700E0
03E7C0
00FF00
ENDCHAR
STARTCHAR 03A0
ENCODING 928
SWIDTH 804 0
DWIDTH 33 0
BBX 28 29 3 0
BITMAP
FFFFFFF0
FFFFFFF0
0F000F00
0F000F00
0F000F00
0F000F00
0F000F00
0F000F00
0F000F00
0F000F00
0F000F00
0F000F00
0F000F00
0F000F00
0F000F00
0F000F00
0F000F00
0F000F00
0F000F00
0F000F00
0F000F00
0F000F00
0F000F00
0F000F00
0F000F00
0F000F00
0F000F00
FFF0FFF0
FFF0FFF0
ENDCHAR
STARTCHAR 03A1
ENCODING 929
SWIDTH 682 0
DWIDTH 28 0
BBX 23 29 3 0
BITMAP
FFFF80
FFFFE0
0F00F8
0F003C
0F003C
0F001E
0F001E
0F001E
0F001E
0F001E
0F001E
0F003C
0F0078
0F00F8
0FFFE0
0FFF80
0F0000
0F0000
0F0000
0F0000
0F0000
0F0000
0F0000
0F0000
0F0000
0F0000
0F0000
FFF800
FFF800
ENDCHAR
STARTCHAR 03A3
ENCODING 931
SWIDTH 634 0
DWIDTH 26 0
BBX 21 29 3 0
BITMAP
7FFFF8
7FFFF8
7C00F8
3E0038
1E0018
1F0018
0F8008
078008
07C008
03E008
01E000
01F000
00F800
007800
007C00
003800
003000
006000
00C000
018008
030008
030008
060008
0C0018
180018
300038
7FFFF8
FFFFF8
FFFFF8
ENDCHAR
STARTCHAR 03A4
ENCODING 932
SWIDTH 707 0
DWIDTH 29 0
BBX 24 29 3 0
BITMAP
FFFFFF
FFFFFF
F83C1F
E03C07
E03C07
C03C03
C03C03
C03C03
803C01
803C01
803C01
003C00
003C00
003C00
003C00
003C00
003C00
003C00
003C00
003C00
003C00
003C00
003C00
003C00
003C00
003C00
003C00
07FFE0
07FFE0
ENDCHAR
STARTCHAR 03A5
ENCODING 933
SWIDTH 634 0
DWIDTH 26 0
BBX 23 29 2 1
BITMAP
E000FC
3801DE
1C031E
07063E
07043E
038C3C
01C818
01D800
01F800
00F000
00F000
00F000
00F000
00F000
00F000
00F000
00F000
00F000
00F000
00F000
00F000
00F000
00F000
00F000
00F000
00F000
00F000
00F000
1FFF80
ENDCHAR
STARTCHAR 03A6
ENCODING 934
SWIDTH 829 0
DWIDTH 34 0
BBX 30 29 2 0
BITMAP
00FFFC00
00FFFC00
00078000
00078000
00078000
01FFFE00
0FFFFFC0
1E0781E0
3C0780F0
78078078
78078078
F007803C
F007803C
F007803C
F007803C
F007803C
F007803C
F007803C
78078078
78078078
3C0780F0
1E0781E0
0FFFFFC0
01FFFE00
00078000
00078000
00078000
00FFFC00
00FFFC00
ENDCHAR
STARTCHAR 03A7
ENCODING 935
SWIDTH 756 0
DWIDTH 31 0
BBX 28 29 2 0
BITMAP
FFF8FFE0
FFF8FFE0
07C01E00
03C01C00
03E01800
01E01000
01F03000
00F06000
0078C000
007CC000
003D8000
003F0000
001F0000
001F0000
000F0000
000F8000
001FC000
0033C000
0063E000
0061E000
00C1F000
0180F000
01807800
03007C00
06003C00
06003E00
0E003F00
FFE1FFF0
FFE1FFF0
ENDCHAR
STARTCHAR 03A8
ENCODING 936
SWIDTH 853 0
DWIDTH 35 0
BBX 33 29 1 1
BITMAP
F83FFC3F00
FC3FFC7F80
1E03C07F80
0E03C06F80
0F03C0C780
0F03C0C700
0F03C0C000
0F03C0C000
0F03C0C000
0F03C0C000
0F03C0C000
0F03C0C000
0F03C0C000
0F03C0C000
0703C0C000
0703C18000
0783C18000
0383C38000
03C3C70000
01E3CE0000
007FFC0000
001FF00000
0003C00000
0003C00000
0003C00000
0003C00000
0003C00000
003FFC0000
003FFC0000
ENDCHAR
STARTCHAR 03A9
ENCODING 937
SWIDTH 707 0
DWIDTH 29 0
BBX 24 29 3 1
BITMAP
01FF80
07E7E0
0F00F0
1E0078
3C003C
78001E
78001E
F0000F
F0000F
F0000F
F0000F
F0000F
F0000F
F0000F
70000E
70001E
78001C
38001C
1C0038
0E0070
0700E0
80C303
404202
404202
404202
404202
7FC3FE
7FC3FE
7FC3FE
ENDCHAR
STARTCHAR 03AA
ENCODING 938
SWIDTH 365 0
DWIDTH 15 0
BBX 12 37 2 0
BITMAP
6060
F0F0
F0F0
6060
0000
0000
0000
0000
FFF0
FFF0
0F00
0F00
0F00
0F00
0F00
0F00
0F00
0F00
0F00
0F00
0F00
0F00
0F00
0F00
0F00
0F00
0F00
0F00
0F00
0F00
0F00
0F00
0F00
0F00
0F00
FFF0
FFF0
ENDCHAR
STARTCHAR 03AB
ENCODING 939
SWIDTH 634 0
DWIDTH 26 0
BBX 23 37 2 0
BITMAP
030300
078780
078780
030300
000000
000000
000000
000000
E000FC
3801DE
1E031E
07063E
07043E
038C3C
01C818
01C800
01F800
00F000
00F000
00F000
00F000
00F000
00F000
00F000
00F000
00F000
00F000
00F000
00F000
00F000
00F000
00F000
00F000
00F000
00F000
00F000
1FFF80
ENDCHAR
STARTCHAR 03AC
ENCODING 940
SWIDTH 560 0
DWIDTH 23 0
BBX 19 29 2 1
BITMAP
001C00
001C00
003800
003800
003000
006000
006000
004000
000000
000000
0781C0
0FC3C0
1FE380
3C6380
303700
701700
601700
C01E00
C01E00
C01C00
801C00
803800
803C00
807400
807600
40E700
41E7E0
3F83E0
1F01C0
ENDCHAR
STARTCHAR 03AD
ENCODING 941
SWIDTH 439 0
DWIDTH 18 0
BBX 14 29 2 1
BITMAP
0070
0070
00E0
00E0
00C0
0180
0180
0100
0000
0000
0FC0
3FF0
7FF8
F038
E000
C000
C000
43E0
3FF0
3FF0
63E0
C000
C000
C000
E004
F818
7FF8
3FF0
0FC0
ENDCHAR
STARTCHAR 03AE
ENCODING 942
SWIDTH 585 0
DWIDTH 24 0
BBX 20 40 1 -10
BITMAP
000E00
000E00
000E00
001C00
001800
001800
003000
002000
000000
000000
780780
7C1FC0
FC3FE0
867860
027030
02E010
01E010
01C010
01C010
01C010
018010
038010
038030
038030
038030
078030
078070
070070
070070
000070
0000E0
0000E0
0000E0
0000E0
0001E0
0001E0
0001E0
0001E0
0001E0
0000C0
ENDCHAR
STARTCHAR 03AF
ENCODING 943
SWIDTH 268 0
DWIDTH 11 0
BBX 6 29 3 1
BITMAP
0C
1C
1C
18
38
30
20
60
00
00
70
F0
F0
F0
E0
E0
E0
C0
C0
C0
80
80
80
80
84
84
FC
7C
38
ENDCHAR
STARTCHAR 03B0
ENCODING 944
SWIDTH 487 0
DWIDTH 20 0
BBX 16 31 2 0
BITMAP
0060
00E0
00E0
01C0
0180
0180
7330
FA78
FA78
7030
0000
0000
3010
7818
7808
780C
7006
3006
2006
6007
6007
4007
4007
4007
400F
400E
401E
201C
107C
0FF8
07E0
ENDCHAR
STARTCHAR 03B1
ENCODING 945
SWIDTH 560 0
DWIDTH 23 0
BBX 19 19 2 0
BITMAP
0781C0
0FC3C0
1FE380
3C6380
303780
701700
601F00
C01E00
C01E00
C01C00
801C00
803800
803C00
807400
807600
40E720
41C3E0
3F83E0
1F01C0
ENDCHAR
STARTCHAR 03B2
ENCODING 946
SWIDTH 536 0
DWIDTH 22 0
BBX 17 42 3 -11
BITMAP
07C000
1FF000
3E0800
3C0400
780400
700400
F00200
E00200
E00200
E00200
E00600
C00600
C78C00
C7FC00
C7F800
C3E800
C00400
C00600
C00600
C00300
C00300
C00380
C00380
C00380
E00380
E00380
E00780
D00F00
CC1F00
C7FE00
C0F800
C00000
E00000
E00000
E00000
E00000
E00000
E00000
F00000
F00000
F00000
600000
ENDCHAR
STARTCHAR 03B3
ENCODING 947
SWIDTH 536 0
DWIDTH 22 0
BBX 20 30 1 -11
BITMAP
3C0070
7F00F0
7F00F0
FF81E0
C3C1C0
01C380
00C300
004200
006600
002400
002C00
002800
002800
001000
001000
001000
001000
001000
003000
003000
003000
003000
003800
007800
007800
007800
007800
007800
007800
003000
ENDCHAR
STARTCHAR 03B4
ENCODING 948
SWIDTH 439 0
DWIDTH 18 0
BBX 14 31 2 0
BITMAP
3C00
7F00
4780
43C0
41E0
60F0
2078
1038
0818
0400
0200
0100
0080
0FC0
1FE0
3C30
7810
7808
F008
E00C
E00C
E00C
C01C
C01C
C01C
403C
4078
2078
30F0
1FE0
07C0
ENDCHAR
STARTCHAR 03B5
ENCODING 949
SWIDTH 439 0
DWIDTH 18 0
BBX 14 19 2 0
BITMAP
0FC0
3FF0
7FF8
F038
E000
C000
C000
43E0
3FF0
3FF0
63E0
C000
C000
C000
E004
F818
7FF8
3FF0
0FC0
ENDCHAR
STARTCHAR 03B6
ENCODING 950
SWIDTH 487 0
DWIDTH 20 0
BBX 17 35 2 -5
BITMAP
1F1C00
3C7E00
38FE00
31FC00
33F000
1F8000
080000
180000
100000
300000
200000
600000
400000
400000
400000
800000
800000
800000
800000
800000
800000
800000
800000
400000
400000
307C00
1FFF00
0FFF00
07FF80
000080
000080
000180
003F00
007F00
003C00
ENDCHAR
STARTCHAR 03B7
ENCODING 951
SWIDTH 585 0
DWIDTH 24 0
BBX 20 30 1 -11
BITMAP
780780
7C1FC0
FC3FE0
867860
027030
02E010
01E010
01C010
01C010
01C010
018010
038010
038030
038030
038030
078030
078070
070070
070070
000070
0000E0
0000E0
0000E0
0000E0
0001E0
0001E0
0001E0
0001E0
0001E0
0000C0
ENDCHAR
STARTCHAR 03B8
ENCODING 952
SWIDTH 560 0
DWIDTH 23 0
BBX 21 31 1 0
BITMAP
03E000
063800
0C0C00
1C0E00
1C0600
1C0700
1C0300
1C0300
0E0380
0E0380
070380
038380
01E380
007F80
0003E0
380390
4C0388
8E0380
8E0380
8E0380
0E0380
0E0380
0E0380
0E0380
0E0380
0E0380
0E0300
0E0300
060600
030C00
00F800
ENDCHAR
STARTCHAR 03B9
ENCODING 953
SWIDTH 292 0
DWIDTH 12 0
BBX 6 19 3 0
BITMAP
70
F0
F0
F0
E0
E0
E0
C0
C0
C0
80
80
80
80
84
84
FC
7C
38
ENDCHAR
STARTCHAR 03BA
ENCODING 954
SWIDTH 512 0
DWIDTH 21 0
BBX 19 19 1 0
BITMAP
380300
7C0780
FC0780
0E0700
060E00
021E00
023C00
023800
027800
02E800
03C800
07C800
078800
0F0800
1E0C00
3C0E20
3C07E0
7807C0
3803C0
ENDCHAR
STARTCHAR 03BB
ENCODING 955
SWIDTH 512 0
DWIDTH 21 0
BBX 18 29 2 1
BITMAP
F80000
FC0000
FE0000
3F0000
030000
010000
008000
008000
008000
004000
00C000
00C000
01C000
01E000
03E000
03A000
07A000
072000
0F3000
0E1000
1E1000
1C1000
3C1800
380C00
780E00
700F00
700780
E007C0
E001C0
ENDCHAR
STARTCHAR 03BC
ENCODING 956
SWIDTH 609 0
DWIDTH 25 0
BBX 21 30 3 -11
BITMAP
600600
F00F00
F00F00
F00F00
F00F00
F00F00
F00F00
E00F00
E00F00
E00F00
E00600
600600
400600
400600
600C08
700E18
5839F8
4FF1F8
43E070
C00000
C00000
C00000
C00000
E00000
E00000
E00000
F00000
F00000
700000
700000
ENDCHAR
STARTCHAR 03BD
ENCODING 957
SWIDTH 439 0
DWIDTH 18 0
BBX 14 19 2 0
BITMAP
C010
E008
F008
780C
380C
1C0C
0C0C
0C0C
061C
061C
063C
0238
0278
02F0
03F0
03E0
03C0
0380
0200
ENDCHAR
STARTCHAR 03BE
ENCODING 958
SWIDTH 439 0
DWIDTH 18 0
BBX 14 36 3 -6
BITMAP
1000
7800
E0F8
C3FC
CFF8
3FE0
6000
4000
C000
8000
8000
8000
8000
41F8
47F8
3FF8
1FE0
2000
4000
4000
8000
8000
8000
8000
8000
C000
4000
7FE0
3FF8
1FFC
0004
0004
000C
03F8
03F8
01E0
ENDCHAR
STARTCHAR 03BF
ENCODING 959
SWIDTH 463 0
DWIDTH 19 0
BBX 15 19 2 0
BITMAP
07C0
0FF0
3E18
3C0C
7804
7804
F006
E006
E006
E00E
C00E
C01E
C01E
403C
403C
6078
30F8
1FF0
07C0
ENDCHAR
STARTCHAR 03C0
ENCODING 960
SWIDTH 609 0
DWIDTH 25 0
BBX 23 19 1 0
BITMAP
1FFFFE
7FFFFE
7FFFFE
C10400
810400
010400
010400
010400
010400
010400
010400
010400
030400
030600
070608
0F0718
1F03F8
1E03F8
0C01F0
ENDCHAR
STARTCHAR 03C1
ENCODING 961
SWIDTH 487 0
DWIDTH 20 0
BBX 16 30 2 -11
BITMAP
03E0
0FF8
1F0C
1E04
3C02
3C02
7803
7003
7003
7007
6007
600F
600F
601E
601E
503C
58FC
4FF0
63E0
6000
6000
6000
E000
E000
E000
F000
F000
F000
F000
6000
ENDCHAR
STARTCHAR 03C2
ENCODING 962
SWIDTH 414 0
DWIDTH 17 0
BBX 14 25 2 -6
BITMAP
00F8
03FC
0FFC
1FF8
3C00
3000
6000
4000
8000
8000
8000
8000
8000
C000
6000
3E00
1FE0
07F8
0078
000C
0004
0704
0FCC
0FF8
03E0
ENDCHAR
STARTCHAR 03C3
ENCODING 963
SWIDTH 512 0
DWIDTH 21 0
BBX 17 19 2 0
BITMAP
07FF80
1FFF80
3FFF80
382000
601800
400800
C00C00
800600
800600
800700
800700
800700
C00F00
400F00
601F00
383E00
1FFE00
0FF800
03F000
ENDCHAR
STARTCHAR 03C4
ENCODING 964
SWIDTH 463 0
DWIDTH 19 0
BBX 16 19 1 0
BITMAP
3FFF
7FFF
7FFF
C100
8100
0100
0100
0100
0100
0100
0100
0100
0100
0102
0182
01C6
01FE
00FC
0078
ENDCHAR
STARTCHAR 03C5
ENCODING 965
SWIDTH 487 0
DWIDTH 20 0
BBX 15 19 3 0
BITMAP
6020
F030
F010
F018
E00C
600C
400C
C00E
C00E
800E
800E
800E
801E
801C
803C
4038
20F8
1FF0
0FC0
ENDCHAR
STARTCHAR 03C6
ENCODING 966
SWIDTH 609 0
DWIDTH 25 0
BBX 21 30 2 -11
BITMAP
1C0F80
3E1FE0
7E3C30
783810
707008
E07008
C06008
806008
806008
806018
806018
806030
C04030
404070
7040E0
3C43C0
1FFFC0
0FFF00
03FC00
004000
006000
006000
006000
006000
006000
00F000
00F000
00F000
00F000
007000
ENDCHAR
STARTCHAR 03C7
ENCODING 967
SWIDTH 560 0
DWIDTH 23 0
BBX 21 30 1 -11
BITMAP
7800C0
FC01E0
FE01C0
F203C0
010380
010780
008700
008F00
004E00
005E00
005C00
007C00
003800
007800
007000
00F000
00F000
01F000
01D000
03D000
038800
078800
070800
0F0800
0E0400
1E0400
1C0638
3C03F8
3801F8
1800F0
ENDCHAR
STARTCHAR 03C8
ENCODING 968
SWIDTH 585 0
DWIDTH 24 0
BBX 20 40 2 -10
BITMAP
00F000
00F000
00F000
00F000
00F000
007000
007000
007000
006000
006000
386040
386060
782020
782020
F02030
E02030
E02030
C02030
C02030
C02070
C02070
402070
6020E0
6021E0
3023C0
1E27C0
0FFF80
07FF00
01FC00
002000
002000
002000
006000
006000
007000
00F000
00F000
00F000
00F000
006000
ENDCHAR
STARTCHAR 03C9
ENCODING 969
SWIDTH 682 0
DWIDTH 28 0
BBX 24 19 2 0
BITMAP
0C0020
1E0030
3C0018
78000C
78180C
703C0E
F03C06
E03C07
E03C07
E03C07
E03C07
E03807
E01807
60180F
70180E
30101E
38183C
1E27F8
07C3E0
ENDCHAR
STARTCHAR 03CA
ENCODING 970
SWIDTH 292 0
DWIDTH 12 0
BBX 12 27 0 0
BITMAP
6060
F0F0
F0F0
6060
0000
0000
0000
0000
0E00
1F00
1F00
1E00
1E00
1C00
1C00
1C00
1800
1800
1800
1000
1000
1000
1040
18C0
1FC0
0FC0
0780
ENDCHAR
STARTCHAR 03CB
ENCODING 971
SWIDTH 463 0
DWIDTH 19 0
BBX 15 27 2 0
BITMAP
6060
F0F0
F0F0
6060
0000
0000
0000
0000
6020
F010
F018
F018
E00C
600C
400C
C00E
C00E
800E
800E
800E
801E
801C
803C
4038
20F8
1FF0
0FC0
ENDCHAR
STARTCHAR 03CC
ENCODING 972
SWIDTH 463 0
DWIDTH 19 0
BBX 15 29 2 1
BITMAP
0060
00E0
00E0
00C0
01C0
0180
0100
0300
0000
0000
07C0
0FF0
3E18
3C0C
7804
7804
F006
E006
E006
E00E
C00E
C01E
C01E
403C
403C
6078
30F8
1FF0
07C0
ENDCHAR
STARTCHAR 03CD
ENCODING 973
SWIDTH 487 0
DWIDTH 20 0
BBX 15 29 3 1
BITMAP
01C0
01C0
0180
0380
0300
0300
0600
0400
0000
0000
6020
F030
F010
F018
E00C
600C
400C
C00E
C00E
800E
800E
800E
801E
801C
403C
4078
3BF8
1FF0
0FC0
ENDCHAR
STARTCHAR 03CE
ENCODING 974
SWIDTH 682 0
DWIDTH 28 0
BBX 24 29 2 1
BITMAP
000700
000700
000E00
000E00
000C00
001800
001800
001000
000000
000000
0C0020
1E0030
3C0018
78000C
78180C
703C0E
F03C06
E03C07
E03C07
E03C07
E03C07
E03807
E01807
60180F
70180E
30101E
38183C
1E27F8
07C3E0
ENDCHAR
STARTCHAR 03CF
ENCODING 975
SWIDTH 780 0
DWIDTH 32 0
BBX 26 40 3 -12
BITMAP
FFF1FFC0
FFF1FFC0
0F003E00
0F003800
0F003000
0F006000
0F00C000
0F018000
0F030000
0F060000
0F0C0000
0F1C0000
0F3E0000
0F6F0000
0FCF0000
0F878000
0F078000
0F03C000
0F01E000
0F01E000
0F00F000
0F00F800
0F007800
0F003C00
0F003E00
0F001E00
0F001F00
FFF00F00
FFF00F80
00001F80
00003F00
00003E00
00007C00
0008F800
000DF000
0007E000
0003C000
00018000
00018000
0000C000
ENDCHAR
STARTCHAR 03D0
ENCODING 976
SWIDTH 487 0
DWIDTH 20 0
BBX 16 29 3 1
BITMAP
00FE
01C3
0303
0603
0C06
183C
1FE0
3000
3000
6000
4000
4000
4F80
9FE0
BE30
F810
F808
F008
E00C
E00C
E01C
C01C
C01C
C03C
403C
6078
30F8
1FF0
07C0
ENDCHAR
STARTCHAR 03D1
ENCODING 977
SWIDTH 560 0
DWIDTH 23 0
BBX 21 31 1 0
BITMAP
03E000
063800
0C0C00
1C0E00
1C0600
1C0700
1C0300
1C0300
0E0380
0E0380
070380
038380
01E380
007F80
0003E0
380390
4C0388
8E0380
8E0380
8E0380
0E0380
0E0380
0E0380
0E0380
0E0380
0E0380
0E0300
0E0300
060600
030C00
00F800
ENDCHAR
STARTCHAR 03D2
ENCODING 978
SWIDTH 634 0
DWIDTH 26 0
BBX 23 29 2 1
BITMAP
E000FC
3801DE
1C031E
07063E
07043E
038C3C
01C818
01D800
01F800
00F000
00F000
00F000
00F000
00F000
00F000
00F000
00F000
00F000
00F000
00F000
00F000
00F000
00F000
00F000
00F000
00F000
00F000
00F000
1FFF80
ENDCHAR
STARTCHAR 03D3
ENCODING 979
SWIDTH 878 0
DWIDTH 36 0
BBX 31 29 4 1
BITMAP
18E000FC
383801DE
381C031E
3007063E
7007043E
60038C3C
4001C818
C001D800
8001F800
0000F000
0000F000
0000F000
0000F000
0000F000
0000F000
0000F000
0000F000
0000F000
0000F000
0000F000
0000F000
0000F000
0000F000
0000F000
0000F000
0000F000
0000F000
0000F000
001FFF80
ENDCHAR
STARTCHAR 03D4
ENCODING 980
SWIDTH 634 0
DWIDTH 26 0
BBX 23 37 2 0
BITMAP
030300
078780
078780
030300
000000
000000
000000
000000
E000FC
3801DE
1E031E
07063E
07043E
038C3C
01C818
01C800
01F800
00F000
00F000
00F000
00F000
00F000
00F000
00F000
00F000
00F000
00F000
00F000
00F000
00F000
00F000
00F000
00F000
00F000
00F000
00F000
1FFF80
ENDCHAR
STARTCHAR 03D5
ENCODING 981
SWIDTH 585 0
DWIDTH 24 0
BBX 20 40 2 -10
BITMAP
00F000
00F000
00F000
00F000
00E000
006000
006000
006000
004000
004000
03F800
0FFF00
1FFF80
3F41C0
784060
604020
C04030
C04010
804010
804010
804010
804030
804070
4040E0
4043E0
305FC0
1FFF80
0FFF00
03F800
004000
004000
004000
004000
006000
00E000
00E000
00F000
00F000
00F000
006000
ENDCHAR
STARTCHAR 03D6
ENCODING 982
SWIDTH 707 0
DWIDTH 29 0
BBX 27 19 1 0
BITMAP
3FFFFFE0
7FFFFFE0
FFFFFFE0
8E000200
8E000300
1C060300
1C0F0180
380F0180
380F01C0
380F01C0
380F01C0
380F01C0
380E01C0
380603C0
18060380
1C060780
0E070F00
0709FE00
01F07800
ENDCHAR
STARTCHAR 03D7
ENCODING 983
SWIDTH 512 0
DWIDTH 21 0
BBX 19 26 1 -7
BITMAP
380300
7C0780
FC0780
0E0700
060E00
021E00
023C00
023800
027800
02E800
03C800
07C800
078800
0F0800
1E0C00
3C0E20
3C07E0
7807E0
3803E0
000040
000040
000040
01C080
03E100
01FE00
00F800
ENDCHAR
STARTCHAR 03D8
ENCODING 984
SWIDTH 658 0
DWIDTH 27 0
BBX 23 29 2 1
BITMAP
03FF80
0FC7E0
1E00F0
3C0078
78003C
78003C
F0001E
F0001E
F0001E
F0001E
F0001E
F0001E
70001C
78003C
38003C
3C0078
0E00F0
0783C0
00FF00
003C00
003C00
003C00
003C00
003C00
003C00
003C00
003C00
003C00
03FFC0
ENDCHAR
STARTCHAR 03D9
ENCODING 985
SWIDTH 463 0
DWIDTH 19 0
BBX 15 30 2 -11
BITMAP
07C0
0FF0
1E18
3C0C
7804
7804
F006
E006
E006
E00E
C00E
C01E
C01E
403C
403C
6078
30F8
1FF0
0FC0
0100
0100
0100
0100
0180
0380
0380
03C0
03C0
03C0
01C0
ENDCHAR
STARTCHAR 03DA
ENCODING 986
SWIDTH 585 0
DWIDTH 24 0
BBX 23 29 2 1
BITMAP
07FF06
0FFFFC
1FFFF8
3803F8
700010
600000
E00000
C00000
C00000
C00000
C00000
C00000
600000
600000
300000
1C0000
0F0000
01FE00
003E00
001E00
001E00
001E00
001E00
001E00
001E00
001E00
001E00
001E00
01FFE0
ENDCHAR
STARTCHAR 03DB
ENCODING 987
SWIDTH 512 0
DWIDTH 21 0
BBX 18 29 2 -6
BITMAP
000040
000040
0000C0
000180
00FF80
07FF80
1FFF00
3FFE00
300000
600000
400000
800000
800000
800000
800000
800000
800000
C00000
600000
3E0000
1FE000
07F800
007800
000C00
000400
070400
0FCC00
0FF800
03E000
ENDCHAR
STARTCHAR 03DC
ENCODING 988
SWIDTH 682 0
DWIDTH 28 0
BBX 23 29 3 0
BITMAP
FFFFFE
FFFFFE
0F003E
0F000E
0F0006
0F0006
0F0006
0F0002
0F0002
0F0002
0F0000
0F0000
0FFF80
0F0780
0F0380
0F0180
0F0180
0F0080
0F0080
0F0000
0F0000
0F0000
0F0000
0F0000
0F0000
0F0000
0F0000
FFF000
FFF000
ENDCHAR
STARTCHAR 03DD
ENCODING 989
SWIDTH 487 0
DWIDTH 20 0
BBX 21 30 -3 -11
BITMAP
00FFF8
01FFF8
01FFF8
010000
010000
010000
010000
010000
010000
010000
01FFE0
01FFE0
01FFE0
010000
010000
010000
010000
010000
010000
010000
010000
010000
010000
010000
010000
410000
F10000
F30000
7E0000
3C0000
ENDCHAR
STARTCHAR 03DE
ENCODING 990
SWIDTH 634 0
DWIDTH 26 0
BBX 22 29 2 1
BITMAP
7C0000
FC0000
FE0000
620000
020000
020000
020010
060030
0600E0
0401E0
0407E0
040FE0
043FC0
0C7F40
09FEC0
0BF8C0
0FF080
1FC080
1F8080
1E0180
1C0180
100100
200100
000100
000100
00011C
0001FC
0001FC
0000FC
ENDCHAR
STARTCHAR 03DF
ENCODING 991
SWIDTH 365 0
DWIDTH 15 0
BBX 12 36 1 -7
BITMAP
3800
7C00
FC00
8C00
0C00
0C00
0800
1800
1800
1000
3000
2000
6000
6000
7FF0
FFF0
FFF0
0010
0030
0030
0060
0060
00E0
00C0
01C0
01C0
01C0
0380
0380
0780
0700
0F00
0F00
0E00
1E00
0E00
ENDCHAR
STARTCHAR 03E0
ENCODING 992
SWIDTH 756 0
DWIDTH 31 0
BBX 27 29 2 1
BITMAP
07FC0000
0FFF0000
1EFF8000
381FE000
3007F000
6003F800
6001FC00
6003FE00
60067E00
60043F00
600C3F80
30186F80
3030C7C0
106183C0
006183C0
00C301E0
018600E0
030C00E0
030C00E0
06180060
0C300060
1C600060
18470060
30CF8040
618F80C0
E30F0080
000F0180
00070700
0003FC00
ENDCHAR
STARTCHAR 03E1
ENCODING 993
SWIDTH 536 0
DWIDTH 22 0
BBX 23 34 -3 -7
BITMAP
C00000
FC0000
1F8000
03E000
007800
001C00
000E00
000700
000180
0001C0
0007E0
000E60
003830
00E038
03C018
010018
00003C
0000EC
00038C
000F0E
001C06
003006
000006
000006
000006
000006
000006
000006
00000E
00000C
00000C
00000C
000018
000018
ENDCHAR
STARTCHAR 03F0
ENCODING 1008
SWIDTH 512 0
DWIDTH 21 0
BBX 19 19 1 0
BITMAP
380300
7C0780
FC0780
0E0700
060E00
021E00
023C00
023800
027800
02E800
03C800
07C800
078800
0F0800
1E0C00
3C0E20
3C07E0
7807C0
3803C0
ENDCHAR
STARTCHAR 03F1
ENCODING 1009
SWIDTH 487 0
DWIDTH 20 0
BBX 16 30 2 -11
BITMAP
03E0
0FF8
1F0C
1E04
3C02
3C02
7803
7003
7003
7007
6007
600F
600F
601E
601E
503C
58FC
4FF0
63E0
6000
6000
6000
E000
E000
E000
F000
F000
F000
F000
6000
ENDCHAR
STARTCHAR 03F2
ENCODING 1010
SWIDTH 439 0
DWIDTH 18 0
BBX 14 19 2 0
BITMAP
07E0
0C10
3808
3804
7004
7000
F000
F000
F000
F000
F000
F000
F000
7000
7004
3804
1808
0C10
07E0
ENDCHAR
STARTCHAR 03F3
ENCODING 1011
SWIDTH 341 0
DWIDTH 14 0
BBX 11 36 -1 -9
BITMAP
00C0
01E0
01E0
00C0
0000
0000
0000
0000
0FE0
00E0
00E0
00E0
00E0
00E0
00E0
00E0
00E0
00E0
00E0
00E0
00E0
00E0
00E0
00E0
00E0
00E0
00E0
00E0
00E0
00E0
F0E0
F0C0
F0C0
C180
6300
3E00
ENDCHAR
STARTCHAR 03F4
ENCODING 1012
SWIDTH 707 0
DWIDTH 29 0
BBX 24 29 3 1
BITMAP
00FF00
03E7C0
0700E0
0E0070
1C0038
38001C
38001C
78001E
70000E
70000E
F0000F
F0000F
F0000F
FFFFFF
FFFFFF
F0000F
F0000F
F0000F
F0000F
70000E
70001E
78001E
38001C
38001C
1C0038
0E0070
0700E0
03E7C0
00FF00
ENDCHAR
STARTCHAR 03F5
ENCODING 1013
SWIDTH 439 0
DWIDTH 18 0
BBX 14 19 2 0
BITMAP
07E0
0C10
3808
3804
7004
7000
F000
F000
F000
FFE0
F000
F000
F000
7000
7000
3804
1808
0C10
07E0
ENDCHAR
STARTCHAR 03F6
ENCODING 1014
SWIDTH 439 0
DWIDTH 18 0
BBX 14 19 2 0
BITMAP
1F80
20C0
4060
8070
8078
0038
003C
003C
003C
1FFC
003C
003C
003C
0038
0038
8070
4060
20C0
1F80
ENDCHAR
STARTCHAR 03F9
ENCODING 1017
SWIDTH 634 0
DWIDTH 26 0
BBX 21 29 3 1
BITMAP
01FF00
07CF80
0F00C0
1C0060
1C0030
380030
380018
780000
700000
700000
F00000
F00000
F00000
F00000
F00000
F00000
F00000
F00000
F00000
700000
700000
780000
380018
380030
1C0030
1C0060
0E00C0
07CF80
01FF00
ENDCHAR
STARTCHAR 0400
ENCODING 1024
SWIDTH 707 0
DWIDTH 29 0
BBX 23 38 3 0
BITMAP
018000
01C000
01E000
00E000
003000
001800
000C00
000000
000000
FFFFFE
0F003E
0F000E
0F000E
0F0006
0F0006
0F0002
0F0002
0F0102
0F0100
0F0100
0F0100
0F0300
0F0700
0FFF00
0F0700
0F0300
0F0100
0F0102
0F0102
0F0102
0F0002
0F0006
0F0006
0F0006
0F000E
0F001E
0F007E
FFFFFE
ENDCHAR
STARTCHAR 0401
ENCODING 1025
SWIDTH 707 0
DWIDTH 29 0
BBX 23 37 3 0
BITMAP
0180C0
03C1E0
03C1E0
0180C0
000000
000000
000000
000000
FFFFFE
0F003E
0F000E
0F000E
0F0006
0F0006
0F0002
0F0002
0F0102
0F0100
0F0100
0F0100
0F0300
0F0700
0FFF00
0F0700
0F0300
0F0100
0F0102
0F0102
0F0102
0F0002
0F0006
0F0006
0F0006
0F000E
0F001E
0F007E
FFFFFE
ENDCHAR
STARTCHAR 0402
ENCODING 1026
SWIDTH 853 0
DWIDTH 35 0
BBX 29 29 4 0
BITMAP
FFFFFE00
F0781E00
E0780E00
C0780600
C0780600
80780600
80780200
80780200
00780200
00780200
00780000
00780000
00787E00
00798780
007E01E0
007800E0
007800F0
00780078
00780078
00780078
00780078
00780078
00784078
0078F078
0079F0F0
0079F0F0
0079E0E0
0078E1C0
0FF87F80
ENDCHAR
STARTCHAR 0403
ENCODING 1027
SWIDTH 658 0
DWIDTH 27 0
BBX 22 38 3 0
BITMAP
000180
000380
000380
000700
000E00
000800
001000
000000
000000
FFFFFC
0F00FC
0F003C
0F001C
0F001C
0F000C
0F000C
0F000C
0F000C
0F0004
0F0004
0F0000
0F0000
0F0000
0F0000
0F0000
0F0000
0F0000
0F0000
0F0000
0F0000
0F0000
0F0000
0F0000
0F0000
0F0000
0F0000
0F0000
FFF800
ENDCHAR
STARTCHAR 0404
ENCODING 1028
SWIDTH 634 0
DWIDTH 26 0
BBX 21 29 3 1
BITMAP
03FE10
060390
0C01F0
1C00F0
380070
380070
780030
700030
700030
F00010
F00010
F00000
F00000
FFFF00
F00000
F00000
F00000
F00000
F00040
7000F0
7001F8
7801F8
3800F8
380078
1C0038
1C0030
0E0060
0300C0
01FF80
ENDCHAR
STARTCHAR 0405
ENCODING 1029
SWIDTH 609 0
DWIDTH 25 0
BBX 19 29 4 1
BITMAP
0FF0C0
301CC0
600FC0
6007C0
C003C0
C001C0
C001C0
C000C0
E000C0
F000C0
780040
7F0000
3FC000
1FF800
0FFE00
01FF80
807F80
800FC0
8003E0
8001E0
C000E0
C00060
E00060
E00060
F00060
F800C0
9C0080
860100
83FE00
ENDCHAR
STARTCHAR 0406
ENCODING 1030
SWIDTH 414 0
DWIDTH 17 0
BBX 12 29 3 0
BITMAP
FFF0
0F00
0F00
0F00
0F00
0F00
0F00
0F00
0F00
0F00
0F00
0F00
0F00
0F00
0F00
0F00
0F00
0F00
0F00
0F00
0F00
0F00
0F00
0F00
0F00
0F00
0F00
0F00
FFF0
ENDCHAR
STARTCHAR 0407
ENCODING 1031
SWIDTH 365 0
DWIDTH 15 0
BBX 12 37 2 0
BITMAP
6060
F0F0
F0F0
6060
0000
0000
0000
0000
FFF0
0F00
0F00
0F00
0F00
0F00
0F00
0F00
0F00
0F00
0F00
0F00
0F00
0F00
0F00
0F00
0F00
0F00
0F00
0F00
0F00
0F00
0F00
0F00
0F00
0F00
0F00
0F00
FFF0
ENDCHAR
STARTCHAR 0408
ENCODING 1032
SWIDTH 536 0
DWIDTH 22 0
BBX 19 29 2 0
BITMAP
01FFE0
001E00
001E00
001E00
001E00
001E00
001E00
001E00
001E00
001E00
001E00
001E00
001E00
001E00
001E00
001E00
001E00
001E00
001E00
001E00
781E00
F81E00
F81E00
F81E00
C01C00
C01C00
401800
603000
1FE000
ENDCHAR
STARTCHAR 0409
ENCODING 1033
SWIDTH 1097 0
DWIDTH 45 0
BBX 41 29 2 0
BITMAP
03FFFFF00000
003C0F000000
00180F000000
00100F000000
00100F000000
00100F000000
00100F000000
00100F000000
00100F000000
00100F000000
00100F000000
00100F000000
00100FFFE000
00100F007800
00100F001C00
00300F000E00
00300F000F00
00300F000700
00300F000780
00200F000780
00200F000780
78200F000780
7C600F000780
FC600F000700
FC400F000F00
F8C00F000E00
F0C00F001C00
73800F007800
3E00FFFFE000
ENDCHAR
STARTCHAR 040A
ENCODING 1034
SWIDTH 1097 0
DWIDTH 45 0
BBX 40 29 3 0
BITMAP
FFF0FFF000
0F000F0000
0F000F0000
0F000F0000
0F000F0000
0F000F0000
0F000F0000
0F000F0000
0F000F0000
0F000F0000
0F000F0000
0F000F0000
0F000F0000
0FFFFFFFC0
0F000F0070
0F000F003C
0F000F001C
0F000F001E
0F000F000F
0F000F000F
0F000F000F
0F000F000F
0F000F000F
0F000F000F
0F000F001E
0F000F001E
0F000F003C
0F000F0070
FFF0FFFFC0
ENDCHAR
STARTCHAR 040B
ENCODING 1035
SWIDTH 902 0
DWIDTH 37 0
BBX 31 29 4 0
BITMAP
FFFFFE00
F0781E00
E0780E00
C0780600
C0780600
80780200
80780200
80780200
00780200
00780200
00780000
00780000
00787E00
00798780
007E01C0
007C01E0
007801E0
007801E0
007801E0
007801E0
007801E0
007801E0
007801E0
007801E0
007801E0
007801E0
007801E0
007801E0
0FFF9FFE
ENDCHAR
STARTCHAR 040C
ENCODING 1036
SWIDTH 731 0
DWIDTH 30 0
BBX 26 38 3 1
BITMAP
00018000
00038000
00078000
00060000
000C0000
00180000
00100000
00000000
00000000
FFF07C00
0F00DE00
0F018E00
0F011F00
0F013F00
0F013E00
0F013C00
0F010000
0F010000
0F010000
0F010000
0F030000
0F060000
0FFC0000
0F030000
0F018000
0F01C000
0F00E000
0F00E000
0F00F000
0F00F000
0F00F000
0F00F040
0F00F040
0F00F040
0F00F080
0F007080
0F007900
FFF03E00
ENDCHAR
STARTCHAR 040D
ENCODING 1037
SWIDTH 780 0
DWIDTH 32 0
BBX 27 38 3 0
BITMAP
00C00000
01E00000
00E00000
00700000
00180000
000C0000
00040000
00000000
00000000
FFF1FFE0
0F001E00
0F001E00
0F001E00
0F001E00
0F003E00
0F003E00
0F005E00
0F00DE00
0F009E00
0F019E00
0F011E00
0F021E00
0F061E00
0F041E00
0F0C1E00
0F081E00
0F101E00
0F301E00
0F201E00
0F601E00
0F401E00
0F801E00
0F801E00
0F001E00
0F001E00
0F001E00
0F001E00
FFF1FFE0
ENDCHAR
STARTCHAR 040E
ENCODING 1038
SWIDTH 780 0
DWIDTH 32 0
BBX 29 39 2 0
BITMAP
00E01C00
00F03E00
01F03E00
01F01E00
01C00E00
00C00C00
00400C00
00303000
000FC000
00000000
FFF83FF8
0F800780
07800380
07800300
03C00300
03C00600
01E00600
01E00600
00F00C00
00F00C00
00780800
00781800
003C1800
003E3000
001E3000
001F2000
000F6000
000FE000
0007C000
0007C000
00038000
07838000
0FC18000
0FC30000
0FC30000
0F060000
0E060000
070C0000
03F80000
ENDCHAR
STARTCHAR 040F
ENCODING 1039
SWIDTH 804 0
DWIDTH 33 0
BBX 28 37 3 -8
BITMAP
FFF0FFF0
0F000F00
0F000F00
0F000F00
0F000F00
0F000F00
0F000F00
0F000F00
0F000F00
0F000F00
0F000F00
0F000F00
0F000F00
0F000F00
0F000F00
0F000F00
0F000F00
0F000F00
0F000F00
0F000F00
0F000F00
0F000F00
0F000F00
0F000F00
0F000F00
0F000F00
0F000F00
0F000F00
FFFFFFF0
00060000
00060000
00060000
00070000
00070000
000F0000
000F0000
00070000
ENDCHAR
STARTCHAR 0410
ENCODING 1040
SWIDTH 780 0
DWIDTH 32 0
BBX 29 29 2 0
BITMAP
00020000
00060000
00070000
00070000
000F8000
000F8000
000F8000
001FC000
0013C000
0033C000
0031E000
0021E000
0061E000
0060F000
0040F000
00C0F000
00C07800
00807800
01807800
01FFFC00
01003C00
03001C00
03001E00
06001E00
06000F00
06000F00
0E000F00
1E000F80
FFE0FFF8
ENDCHAR
STARTCHAR 0411
ENCODING 1041
SWIDTH 707 0
DWIDTH 29 0
BBX 24 29 3 0
BITMAP
FFFFFC
0F007C
0F001C
0F001C
0F000C
0F000C
0F0004
0F0004
0F0004
0F0004
0F0004
0F0000
0F0000
0FFFC0
0F0070
0F003C
0F001E
0F001E
0F000F
0F000F
0F000F
0F000F
0F000F
0F000F
0F001E
0F001E
0F003C
0F0070
FFFFC0
ENDCHAR
STARTCHAR 0412
ENCODING 1042
SWIDTH 682 0
DWIDTH 28 0
BBX 23 29 3 0
BITMAP
FFFF80
0F00E0
0F0078
0F003C
0F001C
0F001C
0F001E
0F001E
0F001C
0F001C
0F0038
0F0030
0F00E0
0FFF00
0F00E0
0F0070
0F0038
0F003C
0F001E
0F001E
0F001E
0F001E
0F001E
0F001E
0F003C
0F003C
0F0078
0F00E0
FFFF80
ENDCHAR
STARTCHAR 0413
ENCODING 1043
SWIDTH 658 0
DWIDTH 27 0
BBX 22 29 3 0
BITMAP
FFFFFC
0F00FC
0F003C
0F001C
0F001C
0F000C
0F000C
0F000C
0F000C
0F0004
0F0004
0F0000
0F0000
0F0000
0F0000
0F0000
0F0000
0F0000
0F0000
0F0000
0F0000
0F0000
0F0000
0F0000
0F0000
0F0000
0F0000
0F0000
FFF800
ENDCHAR
STARTCHAR 0414
ENCODING 1044
SWIDTH 731 0
DWIDTH 30 0
BBX 27 37 2 -8
BITMAP
0FFFFFC0
00F03C00
00E03C00
00C03C00
00C03C00
00C03C00
00C03C00
00C03C00
00C03C00
00C03C00
00C03C00
00C03C00
00C03C00
00803C00
01803C00
01803C00
01803C00
01803C00
01803C00
01003C00
03003C00
03003C00
03003C00
06003C00
06003C00
06003C00
0E003C00
0E003E00
FFFFFFE0
F00001E0
E00000E0
C0000060
C0000060
80000020
80000020
80000020
80000020
ENDCHAR
STARTCHAR 0415
ENCODING 1045
SWIDTH 707 0
DWIDTH 29 0
BBX 23 29 3 0
BITMAP
FFFFFE
0F003E
0F000E
0F000E
0F0006
0F0006
0F0002
0F0002
0F0102
0F0100
0F0100
0F0100
0F0300
0F0700
0FFF00
0F0700
0F0300
0F0100
0F0102
0F0102
0F0102
0F0002
0F0006
0F0006
0F0006
0F000E
0F001E
0F007E
FFFFFE
ENDCHAR
STARTCHAR 0416
ENCODING 1046
SWIDTH 1000 0
DWIDTH 41 0
BBX 38 29 2 1
BITMAP
1F87FF8FC0
1CC0780CC0
3860781860
3C207811E0
3E207813E0
3E207813E0
1E207813C0
0020781000
0020781000
0020781000
0020781000
0010782000
0010786000
000FFFC000
0070783000
00E0781C00
01C0780E00
03C0780F00
03C0780F00
07C0780F00
07C0780F80
07C0780F80
87C0780F84
87C0780F84
87C0780F84
8780780784
8780780784
5F00F803E8
3E07FF81F0
ENDCHAR
STARTCHAR 0417
ENCODING 1047
SWIDTH 634 0
DWIDTH 26 0
BBX 21 29 3 1
BITMAP
61FF00
660380
7C01C0
7800E0
7000F0
7000F0
6000F0
6000F0
6000F0
6000E0
4001E0
0001C0
000380
01FE00
000380
0001C0
0000E0
0000F0
380078
7C0078
FC0078
FC0078
FC0078
F00078
E000F0
6000E0
3001C0
180380
0FFE00
ENDCHAR
STARTCHAR 0418
ENCODING 1048
SWIDTH 780 0
DWIDTH 32 0
BBX 27 29 3 0
BITMAP
FFF1FFE0
0F001E00
0F001E00
0F001E00
0F001E00
0F003E00
0F003E00
0F005E00
0F00DE00
0F009E00
0F019E00
0F011E00
0F021E00
0F061E00
0F041E00
0F0C1E00
0F081E00
0F101E00
0F301E00
0F201E00
0F601E00
0F401E00
0F801E00
0F801E00
0F001E00
0F001E00
0F001E00
0F001E00
FFF1FFE0
ENDCHAR
STARTCHAR 0419
ENCODING 1049
SWIDTH 780 0
DWIDTH 32 0
BBX 27 39 3 0
BITMAP
03C07800
03C0F800
07E0FC00
07C07C00
07001C00
03001800
01003000
00C06000
003F8000
00000000
FFF1FFE0
0F001E00
0F001E00
0F001E00
0F001E00
0F003E00
0F003E00
0F005E00
0F00DE00
0F009E00
0F019E00
0F011E00
0F021E00
0F061E00
0F041E00
0F0C1E00
0F081E00
0F101E00
0F301E00
0F201E00
0F601E00
0F401E00
0F801E00
0F801E00
0F001E00
0F001E00
0F001E00
0F001E00
FFF1FFE0
ENDCHAR
STARTCHAR 041A
ENCODING 1050
SWIDTH 731 0
DWIDTH 30 0
BBX 26 29 3 1
BITMAP
FFF07C00
0F00DE00
0F018E00
0F011F00
0F013F00
0F013E00
0F013C00
0F010000
0F010000
0F010000
0F010000
0F030000
0F060000
0FFC0000
0F030000
0F018000
0F01C000
0F00E000
0F00E000
0F00F000
0F00F000
0F00F000
0F00F040
0F00F040
0F00F040
0F00F080
0F007080
0F007900
FFF03E00
ENDCHAR
STARTCHAR 041B
ENCODING 1051
SWIDTH 780 0
DWIDTH 32 0
BBX 28 29 2 0
BITMAP
03FFFFF0
003C0F00
00180F00
00100F00
00100F00
00100F00
00100F00
00100F00
00100F00
00100F00
00100F00
00100F00
00100F00
00100F00
00100F00
00300F00
00300F00
00300F00
00300F00
00200F00
00200F00
10200F00
7C600F00
FC600F00
FC400F00
F8C00F00
F0C00F00
73800F00
3E00FFF0
ENDCHAR
STARTCHAR 041C
ENCODING 1052
SWIDTH 853 0
DWIDTH 35 0
BBX 30 29 3 0
BITMAP
FF8003FC
0F8007C0
0FC007C0
0FC007C0
0FC00FC0
0DC00BC0
0DE00BC0
0DE00BC0
0CE01BC0
0CF013C0
0CF013C0
0C7033C0
0C7023C0
0C7823C0
0C7823C0
0C3863C0
0C3C43C0
0C3C43C0
0C1CC3C0
0C1C83C0
0C1E83C0
0C0E83C0
0C0F83C0
0C0F03C0
0C0F03C0
0C0703C0
0C0603C0
1E0603C0
FFC23FFC
ENDCHAR
STARTCHAR 041D
ENCODING 1053
SWIDTH 804 0
DWIDTH 33 0
BBX 28 29 3 0
BITMAP
FFF0FFF0
0F000F00
0F000F00
0F000F00
0F000F00
0F000F00
0F000F00
0F000F00
0F000F00
0F000F00
0F000F00
0F000F00
0F000F00
0FFFFF00
0F000F00
0F000F00
0F000F00
0F000F00
0F000F00
0F000F00
0F000F00
0F000F00
0F000F00
0F000F00
0F000F00
0F000F00
0F000F00
0F000F00
FFF0FFF0
ENDCHAR
STARTCHAR 041E
ENCODING 1054
SWIDTH 707 0
DWIDTH 29 0
BBX 24 29 3 1
BITMAP
00FF00
0300C0
060060
0C0030
1C0038
38001C
38001C
78001E
70000E
70000E
F0000F
F0000F
F0000F
F0000F
F0000F
F0000F
F0000F
F0000F
F0000F
70000E
70000E
78001E
38001C
38001C
1C0038
0C0030
060060
0300C0
00FF00
ENDCHAR
STARTCHAR 041F
ENCODING 1055
SWIDTH 804 0
DWIDTH 33 0
BBX 28 29 3 0
BITMAP
FFFFFFF0
0F000F00
0F000F00
0F000F00
0F000F00
0F000F00
0F000F00
0F000F00
0F000F00
0F000F00
0F000F00
0F000F00
0F000F00
0F000F00
0F000F00
0F000F00
0F000F00
0F000F00
0F000F00
0F000F00
0F000F00
0F000F00
0F000F00
0F000F00
0F000F00
0F000F00
0F000F00
0F000F00
FFF0FFF0
ENDCHAR
STARTCHAR 0420
ENCODING 1056
SWIDTH 682 0
DWIDTH 28 0
BBX 23 29 3 0
BITMAP
FFFF80
0F00E0
0F0078
0F003C
0F003C
0F001E
0F001E
0F001E
0F001E
0F001E
0F003C
0F003C
0F0078
0F00E0
0FFF80
0F0000
0F0000
0F0000
0F0000
0F0000
0F0000
0F0000
0F0000
0F0000
0F0000
0F0000
0F0000
0F0000
FFF800
ENDCHAR
STARTCHAR 0421
ENCODING 1057
SWIDTH 682 0
DWIDTH 28 0
BBX 22 29 3 1
BITMAP
01FE08
070398
0C00F8
1C00F8
180078
380038
780038
700018
700018
F00008
F00008
F00000
F00000
F00000
F00000
F00000
F00000
F00000
F00000
70000C
70000C
78000C
380018
380018
1C0018
0C0030
060060
0300C0
00FF80
ENDCHAR
STARTCHAR 0422
ENCODING 1058
SWIDTH 707 0
DWIDTH 29 0
BBX 24 29 3 0
BITMAP
FFFFFF
F83C1F
F03C0F
E03C07
C03C03
C03C03
C03C03
803C01
803C01
803C01
803C01
003C00
003C00
003C00
003C00
003C00
003C00
003C00
003C00
003C00
003C00
003C00
003C00
003C00
003C00
003C00
003C00
003C00
07FFE0
ENDCHAR
STARTCHAR 0423
ENCODING 1059
SWIDTH 780 0
DWIDTH 32 0
BBX 29 29 2 0
BITMAP
FFF83FF8
0F800380
0F800380
07800300
03C00300
03C00200
01E00600
01E00600
00F00400
00F00C00
00780800
00781800
003C1800
003C1000
001E3000
001F2000
000F6000
000FE000
0007C000
0007C000
00038000
07838000
0FC18000
0FC30000
0FC30000
0F060000
0E060000
060C0000
03F80000
ENDCHAR
STARTCHAR 0424
ENCODING 1060
SWIDTH 829 0
DWIDTH 34 0
BBX 30 29 2 0
BITMAP
00FFFC00
00078000
00078000
00078000
00078000
01FFFE00
0E0781C0
1C0780E0
38078070
78078078
70078038
F007803C
F007803C
F007803C
F007803C
F007803C
F007803C
70078038
78078078
38078070
1C0780E0
0E0781C0
01FFFF00
00078000
00078000
00078000
00078000
00078000
00FFFC00
ENDCHAR
STARTCHAR 0425
ENCODING 1061
SWIDTH 756 0
DWIDTH 31 0
BBX 28 29 2 0
BITMAP
FFF8FFE0
07C01E00
07C01C00
03E01800
01E01800
01F03000
00F02000
00F86000
0078C000
007C8000
003D8000
003F0000
001E0000
000F0000
000F0000
000F8000
001F8000
0033C000
0033E000
0061E000
00C1F000
00C0F000
0180F800
03007800
03007C00
06003C00
0E003E00
1F003F00
FFE1FFF0
ENDCHAR
STARTCHAR 0426
ENCODING 1062
SWIDTH 804 0
DWIDTH 33 0
BBX 29 37 3 -8
BITMAP
FFF0FFF0
0F000F00
0F000F00
0F000F00
0F000F00
0F000F00
0F000F00
0F000F00
0F000F00
0F000F00
0F000F00
0F000F00
0F000F00
0F000F00
0F000F00
0F000F00
0F000F00
0F000F00
0F000F00
0F000F00
0F000F00
0F000F00
0F000F00
0F000F00
0F000F00
0F000F00
0F000F00
0F000F00
FFFFFFC0
00000078
00000038
00000018
00000018
00000008
00000008
00000008
00000008
ENDCHAR
STARTCHAR 0427
ENCODING 1063
SWIDTH 756 0
DWIDTH 31 0
BBX 27 29 2 0
BITMAP
FFF1FFE0
0F001E00
0F001E00
0F001E00
0F001E00
0F001E00
0F001E00
0F001E00
0F001E00
0F001E00
0F001E00
0F001E00
0F003E00
07005E00
03819E00
00FE1E00
00001E00
00001E00
00001E00
00001E00
00001E00
00001E00
00001E00
00001E00
00001E00
00001E00
00001E00
00001E00
0003FFE0
ENDCHAR
STARTCHAR 0428
ENCODING 1064
SWIDTH 1121 0
DWIDTH 46 0
BBX 41 29 3 0
BITMAP
FFF3FFC7FF80
0F003C007800
0F003C007000
0F003C007000
0F003C007000
0F003C007000
0F003C007000
0F003C007000
0F003C007000
0F003C007000
0F003C007000
0F003C007000
0F003C007000
0F003C007000
0F003C007000
0F003C007000
0F003C007000
0F003C007000
0F003C007000
0F003C007000
0F003C007000
0F003C007000
0F003C007000
0F003C007000
0F003C007000
0F003C007000
0F003C007000
0F003C007800
FFFFFFFFFF80
ENDCHAR
STARTCHAR 0429
ENCODING 1065
SWIDTH 1121 0
DWIDTH 46 0
BBX 42 37 3 -8
BITMAP
FFF3FFC7FF80
0F003C007800
0F003C007800
0F003C007800
0F003C007800
0F003C007800
0F003C007800
0F003C007800
0F003C007800
0F003C007800
0F003C007800
0F003C007800
0F003C007800
0F003C007800
0F003C007800
0F003C007800
0F003C007800
0F003C007800
0F003C007800
0F003C007800
0F003C007800
0F003C007800
0F003C007800
0F003C007800
0F003C007800
0F003C007800
0F003C007800
0F003C007800
FFFFFFFFFC00
0000000003C0
0000000001C0
0000000000C0
0000000000C0
000000000040
000000000040
000000000040
000000000040
ENDCHAR
STARTCHAR 042A
ENCODING 1066
SWIDTH 902 0
DWIDTH 37 0
BBX 32 29 3 0
BITMAP
FFFFF000
F80F0000
E00F0000
C00F0000
C00F0000
800F0000
800F0000
800F0000
800F0000
000F0000
000F0000
000F0000
000F0000
000FFFC0
000F0070
000F003C
000F001C
000F001E
000F000F
000F000F
000F000F
000F000F
000F000F
000F000F
000F001E
000F001E
000F003C
000F0070
00FFFFC0
ENDCHAR
STARTCHAR 042B
ENCODING 1067
SWIDTH 1024 0
DWIDTH 42 0
BBX 37 29 3 0
BITMAP
FFF0007FF8
0F00000780
0F00000780
0F00000780
0F00000780
0F00000780
0F00000780
0F00000780
0F00000780
0F00000780
0F00000780
0F00000780
0F00000780
0FFFC00780
0F00700780
0F003C0780
0F001C0780
0F001E0780
0F000F0780
0F000F0780
0F000F0780
0F000F0780
0F000F0780
0F000F0780
0F001E0780
0F001E0780
0F003C0780
0F00700780
FFFFC07FF8
ENDCHAR
STARTCHAR 042C
ENCODING 1068
SWIDTH 707 0
DWIDTH 29 0
BBX 24 29 3 0
BITMAP
FFF000
0F0000
0F0000
0F0000
0F0000
0F0000
0F0000
0F0000
0F0000
0F0000
0F0000
0F0000
0F0000
0FFFC0
0F0070
0F003C
0F001C
0F001E
0F000F
0F000F
0F000F
0F000F
0F000F
0F000F
0F001E
0F001E
0F003C
0F0070
FFFFC0
ENDCHAR
STARTCHAR 042D
ENCODING 1069
SWIDTH 634 0
DWIDTH 26 0
BBX 21 30 3 0
BITMAP
002000
43DE00
4E0300
7C0180
7801C0
7000E0
7000E0
6000F0
600070
400070
400078
400078
000078
000078
07FFF8
000078
000078
000078
000078
300078
780070
FC00F0
FC00F0
F800E0
F000E0
E001C0
6001C0
300380
180600
0FFC00
ENDCHAR
STARTCHAR 042E
ENCODING 1070
SWIDTH 1000 0
DWIDTH 41 0
BBX 36 30 3 0
BITMAP
0000008000
FFF00F7800
0F00180C00
0F00300600
0F00600300
0F00E00380
0F01C001C0
0F01C001C0
0F03C001E0
0F038000E0
0F038000E0
0F078000F0
0F078000F0
0F078000F0
0F078000F0
0FFF8000F0
0F078000F0
0F078000F0
0F078000F0
0F078000F0
0F038000E0
0F038000E0
0F03C001E0
0F01C001C0
0F01C001C0
0F00E00380
0F00600300
0F00300600
0F00180C00
FFF00FF800
ENDCHAR
STARTCHAR 042F
ENCODING 1071
SWIDTH 756 0
DWIDTH 31 0
BBX 27 29 2 0
BITMAP
003FFFE0
01E01E00
03C01E00
07801E00
07001E00
0F001E00
0F001E00
0F001E00
0F001E00
07001E00
07801E00
03801E00
01E01E00
003FFE00
00701E00
00E01E00
01E01E00
01C01E00
03C01E00
03C01E00
03C01E00
03C01E00
87C01E00
87801E00
87801E00
C7801E00
7F001E00
7F001E00
3E03FFE0
ENDCHAR
STARTCHAR 0430
ENCODING 1072
SWIDTH 512 0
DWIDTH 21 0
BBX 18 19 2 0
BITMAP
0FC000
387000
203800
601C00
781C00
781C00
381C00
001C00
00FC00
0F1C00
381C00
701C00
E01C00
E01C40
E03C40
E03C40
E05CC0
709F80
1F0F00
ENDCHAR
STARTCHAR 0431
ENCODING 1073
SWIDTH 512 0
DWIDTH 21 0
BBX 17 30 2 0
BITMAP
000100
000300
000600
003E00
00FC00
03F800
07E000
0F0000
1C0000
300000
200000
43E000
4C3800
581C00
B80E00
F00E00
F00700
F00700
F00700
F00780
F00780
F00780
F00700
F00700
700700
700E00
380E00
181C00
0C3800
03E000
ENDCHAR
STARTCHAR 0432
ENCODING 1074
SWIDTH 463 0
DWIDTH 19 0
BBX 17 19 1 0
BITMAP
FFF800
1C1E00
1C0E00
1C0F00
1C0F00
1C0F00
1C0F00
1C0E00
1C1C00
1FF000
1C0E00
1C0F00
1C0700
1C0780
1C0780
1C0700
1C0F00
1C1E00
FFF800
ENDCHAR
STARTCHAR 0433
ENCODING 1075
SWIDTH 439 0
DWIDTH 18 0
BBX 15 19 1 0
BITMAP
FFFE
1C0E
1C06
1C06
1C02
1C02
1C02
1C00
1C00
1C00
1C00
1C00
1C00
1C00
1C00
1C00
1C00
1C00
FF80
ENDCHAR
STARTCHAR 0434
ENCODING 1076
SWIDTH 512 0
DWIDTH 21 0
BBX 19 25 1 -6
BITMAP
1FFFC0
030F00
020F00
020F00
020F00
020F00
020F00
020F00
020F00
060F00
040F00
040F00
040F00
040F00
0C0F00
080F00
080F00
180F00
FFFFE0
F000E0
C00060
C00060
800020
800020
800020
ENDCHAR
STARTCHAR 0435
ENCODING 1077
SWIDTH 463 0
DWIDTH 19 0
BBX 15 19 2 0
BITMAP
07C0
0C70
3838
301C
701C
701C
F01E
F01E
FFFE
F000
F000
F000
F006
7004
7004
3804
3808
1C10
07E0
ENDCHAR
STARTCHAR 0436
ENCODING 1078
SWIDTH 731 0
DWIDTH 30 0
BBX 28 19 1 0
BITMAP
1E3FC780
3B0E09C0
3D0E0BC0
3D0E0BC0
190E0980
010E0800
010E0800
008E1000
01FFF800
060E0E00
0E0E0700
1E0E0700
1E0E0780
1E0E0780
9E0E0790
9E0E0790
9E0E0790
5C0E07A0
383FC3C0
ENDCHAR
STARTCHAR 0437
ENCODING 1079
SWIDTH 439 0
DWIDTH 18 0
BBX 14 19 2 0
BITMAP
87C0
D8F0
E038
E038
C03C
C038
8038
0060
07C0
0070
0038
603C
F03C
F03C
E03C
C03C
4038
3070
0FC0
ENDCHAR
STARTCHAR 0438
ENCODING 1080
SWIDTH 536 0
DWIDTH 22 0
BBX 20 19 1 0
BITMAP
FF9FF0
1C0380
1C0380
1C0380
1C0780
1C0F80
1C1B80
1C1380
1C2380
1C6380
1C4380
1C8380
1D0380
1F0380
1E0380
1C0380
1C0380
1C0380
FF9FF0
ENDCHAR
STARTCHAR 0439
ENCODING 1081
SWIDTH 536 0
DWIDTH 22 0
BBX 20 26 1 0
BITMAP
070E00
0F0F00
0F0F00
0C0300
060600
01F800
000000
FF9FF0
1C0380
1C0380
1C0380
1C0780
1C0F80
1C1B80
1C1380
1C2380
1C6380
1C4380
1C8380
1D8380
1F0380
1E0380
1C0380
1C0380
1C0380
FF9FF0
ENDCHAR
STARTCHAR 043A
ENCODING 1082
SWIDTH 512 0
DWIDTH 21 0
BBX 19 19 1 0
BITMAP
FF0F00
1C1380
1C1780
1C1780
1C1300
1C1000
1C3000
1C2000
1FC000
1C3000
1C1800
1C1C00
1C1C00
1C1C00
1C1E20
1C1E20
1C1E20
1C0E40
FF0780
ENDCHAR
STARTCHAR 043B
ENCODING 1083
SWIDTH 512 0
DWIDTH 21 0
BBX 19 19 1 0
BITMAP
07FFE0
01C700
018700
018700
018700
018700
018700
018700
010700
010700
010700
010700
010700
030700
E30700
F20700
E60700
C40700
783FE0
ENDCHAR
STARTCHAR 043C
ENCODING 1084
SWIDTH 585 0
DWIDTH 24 0
BBX 20 19 2 0
BITMAP
F803F0
3C03C0
3C03C0
3C07C0
2E05C0
2E05C0
2E0DC0
2709C0
2709C0
2719C0
2391C0
2391C0
23B1C0
21E1C0
21E1C0
21E1C0
20C1C0
20C1C0
F847F0
ENDCHAR
STARTCHAR 043D
ENCODING 1085
SWIDTH 536 0
DWIDTH 22 0
BBX 20 19 1 0
BITMAP
FF9FF0
1C0380
1C0380
1C0380
1C0380
1C0380
1C0380
1C0380
1C0380
1FFF80
1C0380
1C0380
1C0380
1C0380
1C0380
1C0380
1C0380
1C0380
FF9FF0
ENDCHAR
STARTCHAR 043E
ENCODING 1086
SWIDTH 512 0
DWIDTH 21 0
BBX 17 19 2 0
BITMAP
03E000
0C3800
181C00
380E00
700E00
700700
F00700
F00700
F00780
F00780
F00780
F00700
F00700
700700
700E00
380E00
181C00
0C3800
03E000
ENDCHAR
STARTCHAR 043F
ENCODING 1087
SWIDTH 536 0
DWIDTH 22 0
BBX 20 19 1 0
BITMAP
FFFFF0
1C0380
1C0380
1C0380
1C0380
1C0380
1C0380
1C0380
1C0380
1C0380
1C0380
1C0380
1C0380
1C0380
1C0380
1C0380
1C0380
1C0380
FF9FF0
ENDCHAR
STARTCHAR 0440
ENCODING 1088
SWIDTH 512 0
DWIDTH 21 0
BBX 18 28 1 -9
BITMAP
FC7800
1D8E00
1F0700
1E0380
1E0380
1C0380
1C03C0
1C03C0
1C03C0
1C03C0
1C03C0
1C03C0
1C03C0
1C0380
1C0380
1E0380
1F0700
1D8600
1C7800
1C0000
1C0000
1C0000
1C0000
1C0000
1C0000
1C0000
1C0000
FF8000
ENDCHAR
STARTCHAR 0441
ENCODING 1089
SWIDTH 439 0
DWIDTH 18 0
BBX 15 19 2 0
BITMAP
07E0
1C10
3808
300C
701C
703C
F03C
F018
F000
F000
F000
F000
F006
7004
7004
300C
3808
0C30
07E0
ENDCHAR
STARTCHAR 0442
ENCODING 1090
SWIDTH 463 0
DWIDTH 19 0
BBX 16 19 2 0
BITMAP
FFFF
E38F
C387
8383
8383
8383
0381
0380
0380
0380
0380
0380
0380
0380
0380
0380
0380
0380
1FF0
ENDCHAR
STARTCHAR 0443
ENCODING 1091
SWIDTH 536 0
DWIDTH 22 0
BBX 20 28 1 -9
BITMAP
FF8FF0
1E0180
1E0180
0E0100
0E0100
0F0300
070200
070200
038600
038400
038400
01CC00
01C800
01C800
00F800
00F000
00F000
007000
006000
006000
006000
004000
304000
78C000
788000
718000
330000
1E0000
ENDCHAR
STARTCHAR 0444
ENCODING 1092
SWIDTH 658 0
DWIDTH 27 0
BBX 23 36 2 -8
BITMAP
008200
004400
006C00
002800
002800
003800
003800
003800
0F39E0
18BA30
387C38
707C1C
70381C
70381C
F0381E
F0381E
F0381E
F0381E
F0381E
F0381E
F0381E
70381C
70381C
707C1C
387C38
18BA30
0F39E0
003800
003800
003800
003800
002800
006C00
004400
00C600
008200
ENDCHAR
STARTCHAR 0445
ENCODING 1093
SWIDTH 512 0
DWIDTH 21 0
BBX 18 19 1 0
BITMAP
FF1FC0
1E0E00
1E0C00
0E0800
0F1800
071000
03A000
03E000
01C000
01E000
01E000
017000
037800
023800
041C00
0C1C00
180E00
180F00
FE3FC0
ENDCHAR
STARTCHAR 0446
ENCODING 1094
SWIDTH 560 0
DWIDTH 23 0
BBX 21 25 1 -6
BITMAP
FF9FF0
1C0380
1C0380
1C0380
1C0380
1C0380
1C0380
1C0380
1C0380
1C0380
1C0380
1C0380
1C0380
1C0380
1C0380
1C0380
1C0380
1C0380
FFFFF8
000078
000038
000018
000008
000008
000008
ENDCHAR
STARTCHAR 0447
ENCODING 1095
SWIDTH 512 0
DWIDTH 21 0
BBX 19 19 1 0
BITMAP
FFBFE0
1C0700
1C0700
1C0700
1C0700
1C0700
1C0700
1C0700
1C0700
0E1F00
07E700
000700
000700
000700
000700
000700
000700
000700
003FE0
ENDCHAR
STARTCHAR 0448
ENCODING 1096
SWIDTH 756 0
DWIDTH 31 0
BBX 29 19 1 0
BITMAP
FFBFEFF8
1C0701C0
1C0701C0
1C0701C0
1C0701C0
1C0701C0
1C0701C0
1C0701C0
1C0701C0
1C0701C0
1C0701C0
1C0701C0
1C0701C0
1C0701C0
1C0701C0
1C0701C0
1C0701C0
1C0701C0
FFFFFFF8
ENDCHAR
STARTCHAR 0449
ENCODING 1097
SWIDTH 756 0
DWIDTH 31 0
BBX 30 25 1 -6
BITMAP
FFBFEFF8
1C0701C0
1C0701C0
1C0701C0
1C0701C0
1C0701C0
1C0701C0
1C0701C0
1C0701C0
1C0701C0
1C0701C0
1C0701C0
1C0701C0
1C0701C0
1C0701C0
1C0701C0
1C0701C0
1C0701C0
FFFFFFFC
0000003C
0000001C
0000000C
0000000C
0000000C
00000004
ENDCHAR
STARTCHAR 044A
ENCODING 1098
SWIDTH 585 0
DWIDTH 24 0
BBX 21 19 2 0
BITMAP
FFF800
E1C000
C1C000
C1C000
81C000
81C000
81C000
81C000
01C000
01FF80
01C1E0
01C0F0
01C070
01C078
01C078
01C070
01C0F0
01C1E0
0FFF80
ENDCHAR
STARTCHAR 044B
ENCODING 1099
SWIDTH 658 0
DWIDTH 27 0
BBX 25 19 1 0
BITMAP
FF80FF80
1C001C00
1C001C00
1C001C00
1C001C00
1C001C00
1C001C00
1C001C00
1C001C00
1FF81C00
1C1E1C00
1C0F1C00
1C071C00
1C079C00
1C079C00
1C071C00
1C0F1C00
1C1E1C00
FFF8FF80
ENDCHAR
STARTCHAR 044C
ENCODING 1100
SWIDTH 463 0
DWIDTH 19 0
BBX 17 19 1 0
BITMAP
FF8000
1C0000
1C0000
1C0000
1C0000
1C0000
1C0000
1C0000
1C0000
1FF800
1C1E00
1C0F00
1C0700
1C0780
1C0780
1C0700
1C0F00
1C1E00
FFF800
ENDCHAR
STARTCHAR 044D
ENCODING 1101
SWIDTH 439 0
DWIDTH 18 0
BBX 14 19 2 0
BITMAP
8F80
B0E0
E070
C030
C038
8038
803C
003C
1FFC
003C
003C
003C
F03C
F038
E038
C030
4070
60E0
1F80
ENDCHAR
STARTCHAR 044E
ENCODING 1102
SWIDTH 658 0
DWIDTH 27 0
BBX 25 19 1 0
BITMAP
FF03E000
1C0E1800
1C1C0C00
1C180E00
1C380E00
1C380700
1C780700
1C780700
1C780780
1FF80780
1C780780
1C780700
1C780700
1C380700
1C380E00
1C180E00
1C1C0C00
1C0E1800
FF03E000
ENDCHAR
STARTCHAR 044F
ENCODING 1103
SWIDTH 512 0
DWIDTH 21 0
BBX 19 19 1 0
BITMAP
01FFE0
078700
0F0700
0E0700
1E0700
1E0700
0E0700
0E0700
070700
01FF00
030700
060700
0E0700
0E0700
1E0700
9E0700
9E0700
5C0700
783FE0
ENDCHAR
STARTCHAR 0450
ENCODING 1104
SWIDTH 463 0
DWIDTH 19 0
BBX 15 28 2 1
BITMAP
3800
3C00
1C00
0E00
0700
0300
0080
0000
0000
07C0
0C70
3838
301C
701C
701C
F01E
F01E
FFFE
F000
F000
F000
F002
7004
7004
3804
3808
1C10
07E0
ENDCHAR
STARTCHAR 0451
ENCODING 1105
SWIDTH 463 0
DWIDTH 19 0
BBX 15 27 2 0
BITMAP
1818
3C3C
3C3C
1818
0000
0000
0000
0000
07C0
0C70
3838
301C
701C
701C
F00E
F00E
FFFE
F000
F000
F000
F002
7004
7004
3804
3808
1C10
07E0
ENDCHAR
STARTCHAR 0452
ENCODING 1106
SWIDTH 487 0
DWIDTH 20 0
BBX 16 37 2 -10
BITMAP
8300
4600
4400
6C00
2800
3800
3800
3800
3800
FFF0
3800
3800
3800
3800
39F8
3A1C
3C0E
380E
380F
380F
380F
380F
380F
380F
380F
380F
380E
FF0E
000E
001C
001C
0018
0030
0030
0060
00C0
0180
ENDCHAR
STARTCHAR 0453
ENCODING 1107
SWIDTH 439 0
DWIDTH 18 0
BBX 15 28 1 0
BITMAP
0018
0038
0038
0070
00C0
0180
0100
0000
0000
FFFE
1C1E
1C06
1C06
1C06
1C02
1C02
1C00
1C00
1C00
1C00
1C00
1C00
1C00
1C00
1C00
1C00
1C00
FF80
ENDCHAR
STARTCHAR 0454
ENCODING 1108
SWIDTH 439 0
DWIDTH 18 0
BBX 14 19 2 0
BITMAP
07C4
1C3C
381C
700C
700C
7004
F004
F000
FFE0
F000
F000
F000
F038
703C
701C
300C
3808
1C18
07E0
ENDCHAR
STARTCHAR 0455
ENCODING 1109
SWIDTH 439 0
DWIDTH 18 0
BBX 14 19 2 0
BITMAP
1F10
60D0
4070
C030
C010
E010
F000
7E00
3F80
1FE0
03F8
80FC
C01C
C00C
E00C
E00C
F008
8C18
83E0
ENDCHAR
STARTCHAR 0456
ENCODING 1110
SWIDTH 268 0
DWIDTH 11 0
BBX 8 28 1 0
BITMAP
18
3C
3C
18
00
00
00
00
00
FC
1C
1C
1C
1C
1C
1C
1C
1C
1C
1C
1C
1C
1C
1C
1C
1C
1C
FF
ENDCHAR
STARTCHAR 0457
ENCODING 1111
SWIDTH 317 0
DWIDTH 13 0
BBX 11 26 1 0
BITMAP
60C0
F1E0
F1E0
60C0
0000
0000
0000
3E00
0E00
0E00
0E00
0E00
0E00
0E00
0E00
0E00
0E00
0E00
0E00
0E00
0E00
0E00
0E00
0E00
0E00
3FC0
ENDCHAR
STARTCHAR 0458
ENCODING 1112
SWIDTH 341 0
DWIDTH 14 0
BBX 11 37 -1 -9
BITMAP
00C0
01E0
01E0
00C0
0000
0000
0000
0000
0000
0FE0
00E0
00E0
00E0
00E0
00E0
00E0
00E0
00E0
00E0
00E0
00E0
00E0
00E0
00E0
00E0
00E0
00E0
00E0
00E0
00E0
00E0
E0E0
F0E0
E0C0
C180
6380
3E00
ENDCHAR
STARTCHAR 0459
ENCODING 1113
SWIDTH 707 0
DWIDTH 29 0
BBX 27 19 1 0
BITMAP
07FFE000
01C70000
01870000
01870000
01870000
01870000
01870000
01870000
0107FE00
01070780
010703C0
010701C0
010701E0
630701E0
F30701E0
F20701C0
E60703C0
44070780
783FFE00
ENDCHAR
STARTCHAR 045A
ENCODING 1114
SWIDTH 707 0
DWIDTH 29 0
BBX 27 19 1 0
BITMAP
FFBFE000
1C070000
1C070000
1C070000
1C070000
1C070000
1C070000
1C070000
1C070000
1FFFFE00
1C070780
1C0703C0
1C0701C0
1C0701E0
1C0701E0
1C0701C0
1C0703C0
1C070780
FFBFFE00
ENDCHAR
STARTCHAR 045B
ENCODING 1115
SWIDTH 536 0
DWIDTH 22 0
BBX 19 28 2 0
BITMAP
830000
460000
440000
6C0000
280000
380000
380000
380000
380000
FFF000
380000
380000
380000
380000
38F800
3F0E00
380700
380700
380700
380700
380700
380700
380700
380700
380700
380700
380700
FF3FE0
ENDCHAR
STARTCHAR 045C
ENCODING 1116
SWIDTH 512 0
DWIDTH 21 0
BBX 19 28 1 1
BITMAP
000700
000E00
001E00
003800
003000
006000
00C000
000000
000000
FF0F00
1C1380
1C1780
1C1780
1C1300
1C1000
1C3000
1C2000
1FC000
1C3000
1C1800
1C1C00
1C1C00
1C1C00
1C1E20
1C1E20
1C1E20
1C0E40
FF0780
ENDCHAR
STARTCHAR 045D
ENCODING 1117
SWIDTH 536 0
DWIDTH 22 0
BBX 20 28 1 0
BITMAP
0C0000
0E0000
070000
038000
01C000
00C000
002000
000000
000000
FF9FF0
1C0380
1C0380
1C0380
1C0780
1C0F80
1C1B80
1C1380
1C2380
1C6380
1C4380
1C8380
1D0380
1F0380
1E0380
1C0380
1C0380
1C0380
FF9FF0
ENDCHAR
STARTCHAR 045E
ENCODING 1118
SWIDTH 536 0
DWIDTH 22 0
BBX 20 36 1 -9
BITMAP
038E00
078F00
078F00
060300
020200
01FC00
000000
000000
FF8FF0
1E0180
1E0180
0E0100
0E0300
070300
070200
070200
038600
038400
038400
01CC00
01C800
01C800
00F800
00F000
00F000
007000
006000
006000
006000
004000
304000
78C000
788000
718000
330000
1E0000
ENDCHAR
STARTCHAR 045F
ENCODING 1119
SWIDTH 560 0
DWIDTH 23 0
BBX 21 25 1 -6
BITMAP
FF8FF8
1C01C0
1C01C0
1C01C0
1C01C0
1C01C0
1C01C0
1C01C0
1C01C0
1C01C0
1C01C0
1C01C0
1C01C0
1C01C0
1C01C0
1C01C0
1C01C0
1C01C0
FFFFF8
002000
006000
007000
007000
007000
007000
ENDCHAR
STARTCHAR 0460
ENCODING 1120
SWIDTH 926 0
DWIDTH 38 0
BBX 33 29 3 0
BITMAP
F003E01F80
F003E01F80
F003E00F80
F003E00F80
F003E00F80
F003E00F80
F003E00780
F801E00780
7801E00780
7801F00780
7801F00780
7801F00700
7800F00700
3C00F00700
3C00F80700
3C00F80700
3E00FC0600
1E00FC0600
1F013C0600
1F013E0400
0F831E0400
0F821F0C00
07C60F0800
07C40F8800
03EC07D000
01F807D000
01F803E000
00F001E000
006000C000
ENDCHAR
STARTCHAR 0461
ENCODING 1121
SWIDTH 707 0
DWIDTH 29 0
BBX 25 19 2 0
BITMAP
F03C1F00
F03C0F80
F03C0F80
F03C0F80
F01C0780
F01C0700
701C0700
701C0700
781E0700
780E0700
381E0600
3C170600
1C170400
1E238C00
0E23C800
0F41D800
07C1F000
0380E000
01006000
ENDCHAR
STARTCHAR 0462
ENCODING 1122
SWIDTH 804 0
DWIDTH 33 0
BBX 28 29 3 0
BITMAP
07FF8000
00780000
00780000
FFFFFF00
F0781F00
E0780F00
C0780700
80780300
80780300
80780300
00780100
00780100
00780000
007FFC00
00780700
007803C0
007801C0
007801E0
007800F0
007800F0
007800F0
007800F0
007800F0
007800F0
007801E0
007801E0
007803C0
00780700
07FFFC00
ENDCHAR
STARTCHAR 0463
ENCODING 1123
SWIDTH 585 0
DWIDTH 24 0
BBX 21 28 2 0
BITMAP
041000
063000
022000
036000
014000
01C000
01C000
01C000
01C000
FFFF80
E1C380
C1C180
C1C080
81C080
81C080
81C080
81C000
01C000
01FF80
01C1E0
01C0F0
01C070
01C078
01C078
01C070
01C0F0
01C1E0
0FFF80
ENDCHAR
STARTCHAR 0464
ENCODING 1124
SWIDTH 951 0
DWIDTH 39 0
BBX 34 29 3 1
BITMAP
FFF01FF080
0F00301D80
0F00600F80
0F00E00780
0F01C00380
0F01C00380
0F03800180
0F03800180
0F03800180
0F07800080
0F07800080
0F07800000
0F07800000
0FFFFFF800
0F07800000
0F07800000
0F07800000
0F07800000
0F07800000
0F03800780
0F03800FC0
0F03C00FC0
0F01C007C0
0F01C003C0
0F00E001C0
0F00E00180
0F00700300
0F00380600
FFF00FFC00
ENDCHAR
STARTCHAR 0465
ENCODING 1125
SWIDTH 609 0
DWIDTH 25 0
BBX 23 19 1 0
BITMAP
FF03E2
1C0E1E
1C1C0E
1C3806
1C3806
1C7802
1C7802
1C7800
1FFFF0
1C7800
1C7800
1C7800
1C781C
1C381E
1C380E
1C1806
1C1C04
1C060C
FF03F0
ENDCHAR
STARTCHAR 0466
ENCODING 1126
SWIDTH 853 0
DWIDTH 35 0
BBX 32 29 2 0
BITMAP
00008000
0000C000
0001C000
0001E000
0003E000
0003F000
0007F000
0006F000
000E7800
000C7800
001C3C00
00183C00
00181E00
00301E00
00300F00
00600F00
00600F00
00C00780
00C00780
01FFFFC0
0103C3C0
0303C1E0
0303C1E0
0603C1F0
0603C0F0
0E03C0F0
0E03C078
3E07C0FC
FF9FFBFF
ENDCHAR
STARTCHAR 0467
ENCODING 1127
SWIDTH 609 0
DWIDTH 25 0
BBX 23 19 1 0
BITMAP
001800
001800
003C00
003C00
007C00
004E00
00CE00
008F00
018700
010780
030380
0203C0
0601C0
0787E0
0CCCE0
0878F0
187070
383078
FC30FE
ENDCHAR
STARTCHAR 0468
ENCODING 1128
SWIDTH 1219 0
DWIDTH 50 0
BBX 46 29 3 0
BITMAP
FFF000020000
0F0000060000
0F0000070000
0F00000F0000
0F00000F8000
0F00001F8000
0F00001F8000
0F000033C000
0F000033C000
0F000021E000
0F000061E000
0F000060F000
0F0000C0F000
0F0000C07800
0F0001807800
0F0001803C00
0F0003003C00
0F0003001E00
0F0006001E00
0FFFFFFFFF00
0F000C1E0F00
0F000C1E0700
0F001C1E0780
0F00181E0780
0F00181E03C0
0F00381E03C0
0F00781E01E0
0F00F81F03F0
FFF3FEFFCFFC
ENDCHAR
STARTCHAR 0469
ENCODING 1129
SWIDTH 853 0
DWIDTH 35 0
BBX 33 19 1 0
BITMAP
FF80060000
1C00060000
1C000F0000
1C000F0000
1C001F0000
1C00138000
1C00338000
1C0023C000
1C0061C000
1C0041E000
1C00C0E000
1C0080F000
1C01807000
1FFFC1F800
1C03333800
1C021E3C00
1C061C1C00
1C0E0C1E00
FFBF0C3F80
ENDCHAR
STARTCHAR 046A
ENCODING 1130
SWIDTH 1000 0
DWIDTH 41 0
BBX 38 29 2 0
BITMAP
03FFFFFE00
007C001800
007C003000
003E006000
001F004000
000F00C000
000F818000
0007C10000
0003E30000
0003E60000
0001FC0000
0000FC0000
001FFFE000
0070783800
00E0783C00
01E0781E00
03C0781E00
03C0780F00
03C0780F00
03C0780F00
07C0780F80
0780780F80
8780780F84
8780780784
8780780784
8780780784
8F007807C8
7F00F803F8
3C07FF81F0
ENDCHAR
STARTCHAR 046B
ENCODING 1131
SWIDTH 731 0
DWIDTH 30 0
BBX 28 19 1 0
BITMAP
07FFFE00
03C01800
01E01000
00E02000
00706000
0078C000
003D8000
001F0000
03FFF800
070E0E00
0E0E0E00
0E0E0700
0E0E0700
0C0E0700
8C0E0710
9C0E0710
9C0E0310
5C0E03A0
383FC1C0
ENDCHAR
STARTCHAR 046C
ENCODING 1132
SWIDTH 1341 0
DWIDTH 55 0
BBX 51 29 3 0
BITMAP
FFF01FFFFFF000
0F0003E000C000
0F0003E0018000
0F0001F0030000
0F0000F8020000
0F000078060000
0F00007C0C0000
0F00003E080000
0F00001F180000
0F00001F300000
0F00000FE00000
0F000007E00000
0FFFFFFFFF0000
0F000783C1C000
0F000F03C1E000
0F000F03C0F000
0F001E03C0F000
0F001E03C07800
0F001E03C07800
0F003E03C07800
0F003E03C07C00
0F003C03C07C00
0F043C03C07C20
0F043C03C03C20
0F043C03C03C20
0F043C03C03C20
0F047803C03E40
1F03F807C01FC0
FFF1E03FFC0F80
ENDCHAR
STARTCHAR 046D
ENCODING 1133
SWIDTH 951 0
DWIDTH 39 0
BBX 37 19 1 0
BITMAP
FF03FFFF00
1C01E00C00
1C00F00800
1C00701000
1C00383000
1C003C6000
1C001EC000
1C000F8000
1FFFFFFC00
1C03870700
1C07070700
1C07070380
1C07070380
1C06070380
1C46070388
1C4E070388
1C4E070188
1C2E0701D0
FF1C1FE0E0
ENDCHAR
STARTCHAR 046E
ENCODING 1134
SWIDTH 560 0
DWIDTH 23 0
BBX 18 46 3 -9
BITMAP
1C0600
0E0B00
0E1700
071000
072000
03C000
03C000
0FF800
381E00
700F00
E00780
E00380
F80380
F803C0
7803C0
000380
000380
000700
000E00
001C00
1FF000
1C1C00
180F00
100780
100380
1003C0
1003C0
0003C0
0003C0
0003C0
0007C0
000F80
001F80
00FF00
0FFE00
1FF800
7FE000
7E0000
F00000
E00000
C00E00
C00E00
C01E00
403E00
307800
1FE000
ENDCHAR
STARTCHAR 046F
ENCODING 1135
SWIDTH 414 0
DWIDTH 17 0
BBX 14 31 2 -7
BITMAP
3870
1870
1CB0
0D00
0F00
1F80
60F0
C078
E038
F03C
603C
0038
0070
00E0
3F80
30E0
2078
2038
203C
003C
0038
0078
03F0
1FE0
7F80
F000
C000
80E0
80E0
C1C0
3F00
ENDCHAR
STARTCHAR 0470
ENCODING 1136
SWIDTH 878 0
DWIDTH 36 0
BBX 35 29 1 0
BITMAP
001FFE0000
0000F00000
0000F00380
FF80F00FC0
3E00F01BE0
1E00F013E0
1F00F027E0
0F00F027E0
0780F067C0
0780F04100
03C0F0C000
03E0F08000
01E0F08000
01F0F10000
00F0F10000
00F8F30000
0078F20000
007CF20000
003EF40000
003EF40000
001FFC0000
001FF80000
0000F00000
0000F00000
0000F00000
0000F00000
0000F00000
0000F00000
001FFE0000
ENDCHAR
STARTCHAR 0471
ENCODING 1137
SWIDTH 731 0
DWIDTH 30 0
BBX 29 35 0 -9
BITMAP
003FE000
00070000
00070000
00070000
00070000
00070000
00070000
FF0700F0
1E070198
1E070338
0E070278
0E070638
0F070400
07070400
07070C00
03870800
03870800
03C71800
01C71000
01C71000
00E73000
00E72000
00E72000
00776000
00774000
007FC000
00070000
00070000
00070000
00070000
00070000
00070000
00070000
00070000
003FE000
ENDCHAR
STARTCHAR 0472
ENCODING 1138
SWIDTH 707 0
DWIDTH 29 0
BBX 24 29 3 1
BITMAP
00FF00
0300C0
060060
0C0030
1C0038
38001C
38001C
78001E
70000E
70000E
F0000F
F0000F
F0000F
F0000F
FFFFFF
F0000F
F0000F
F0000F
F0000F
70000E
70000E
78001E
38001C
38001C
1C0038
0C0030
060060
0300C0
00FF00
ENDCHAR
STARTCHAR 0473
ENCODING 1139
SWIDTH 512 0
DWIDTH 21 0
BBX 17 19 2 0
BITMAP
03E000
0C3800
181C00
380E00
700E00
700700
F00700
F00700
F00780
FFFF80
F00780
F00700
F00700
700700
700E00
300E00
181C00
0C3800
03E000
ENDCHAR
STARTCHAR 0474
ENCODING 1140
SWIDTH 804 0
DWIDTH 33 0
BBX 31 29 2 1
BITMAP
FFF800FC
0F8001DE
0780011E
0780033E
0380027E
03C0067C
03C00638
01C00400
01E00C00
01E00C00
00E00800
00F01800
00F01800
00781000
00783000
00783000
003C2000
003C6000
001C6000
001E6000
001E4000
000EC000
000FC000
000F8000
00078000
00078000
00070000
00030000
00030000
ENDCHAR
STARTCHAR 0475
ENCODING 1141
SWIDTH 536 0
DWIDTH 22 0
BBX 21 19 1 0
BITMAP
FF8070
1E00B0
1E0178
0E0170
0E0330
070200
070200
078600
038400
038400
01CC00
01C800
01E800
00F800
00F000
007000
007000
002000
002000
ENDCHAR
STARTCHAR 0476
ENCODING 1142
SWIDTH 804 0
DWIDTH 33 0
BBX 31 39 2 0
BITMAP
00630000
00F38000
0073C000
0039C000
0018E000
000C6000
00063000
00021800
00000000
00000000
FFF800FC
0F8001DE
0780011E
0780033E
0380027E
03C0067C
03C00638
01C00400
01E00C00
01E00C00
00F00800
00F01800
00F01800
00781000
00783000
00383000
003C2000
003C6000
001C6000
001E4000
001EC000
000EC000
000F8000
000F8000
00078000
00070000
00070000
00030000
00030000
ENDCHAR
STARTCHAR 0477
ENCODING 1143
SWIDTH 536 0
DWIDTH 22 0
BBX 21 28 1 1
BITMAP
1C6000
1E7000
0E7800
071800
030C00
018600
00C200
000000
000000
FF80F0
3E00B0
1C0178
0E0170
0E0330
0F0200
070200
070600
038400
038400
01CC00
01C800
01C800
00F800
00F000
007000
007000
006000
002000
ENDCHAR
STARTCHAR 0478
ENCODING 1144
SWIDTH 1195 0
DWIDTH 49 0
BBX 46 38 3 -8
BITMAP
01FE00000000
070300000000
0E01C0000000
0C00C0000000
180060000000
380070000000
380070000000
780078000000
700038000000
700038000000
F0003C7FC038
F0003C1E0058
F0003C0E00BC
F0003C0E00B8
F0003C0701B8
F0003C070100
F0003C038100
F0003C038300
F0003C03C200
70003801C200
70003801C600
78007800E400
38007000E400
380070007400
180060007800
0C00C0007800
0E01C0003800
070380003000
01FE00001000
002000001000
000000002000
000000002000
000000006000
000000006000
000000007000
000000007C00
000000007C00
000000003800
ENDCHAR
STARTCHAR 0479
ENCODING 1145
SWIDTH 951 0
DWIDTH 39 0
BBX 36 28 2 -9
BITMAP
07C1FF00E0
1C703C0130
3838380370
30181C02F0
701C1C0260
701C1E0600
F01E0E0400
F01E0E0400
F01E070C00
F01E070800
F01E038800
F01E039800
F01E03D000
701C01D000
701C01F000
301800E000
383800E000
1C70006000
07C0004000
0000004000
000000C000
0000008000
0000018000
0000018000
000001E000
000001F000
000000F000
0000006000
ENDCHAR
STARTCHAR 047A
ENCODING 1146
SWIDTH 853 0
DWIDTH 35 0
BBX 30 35 3 -3
BITMAP
00078000
000FC000
000FC000
007FF800
01CFCE00
03078300
06000180
0C0000C0
1C0000E0
38000070
38000070
78000078
70000038
F0000038
F000003C
F000003C
F000003C
F000003C
F000003C
F000003C
F000003C
70000038
70000038
78000078
38000070
38000070
1C0000E0
0C0000C0
06000180
03078300
01CFCE00
007FF800
000FC000
000FC000
00078000
ENDCHAR
STARTCHAR 047B
ENCODING 1147
SWIDTH 609 0
DWIDTH 25 0
BBX 21 23 2 -2
BITMAP
007000
00F000
03FE00
0E7300
1801C0
3800C0
7000E0
700070
F00070
F00070
F00078
F00078
F00078
F00070
F00070
700070
7000E0
3800E0
1801C0
0C7300
03FE00
00F000
007000
ENDCHAR
STARTCHAR 047C
ENCODING 1148
SWIDTH 1073 0
DWIDTH 44 0
BBX 39 39 3 0
BITMAP
0000F80000
0007FF8000
001E07E000
003871F800
0071F87F00
00019C1F80
00010C0700
0001040000
0001840000
0000042000
01FF03FE00
0301870180
0E018700C0
1C07CF8060
1C0FCFC070
380FCFC038
380F87C038
780703803C
700000003C
700000001C
F00000001E
F00000001E
F00000001E
F00000001E
F00000001E
F007FF801E
F00078001E
F00078001E
F00078001E
700078001C
700078003C
780078003C
3800780038
3800780038
1C00780070
1C00780060
0E004C00C0
0300CE0180
01FF03FE00
ENDCHAR
STARTCHAR 047D
ENCODING 1149
SWIDTH 756 0
DWIDTH 31 0
BBX 27 26 2 0
BITMAP
001F0000
0061C000
00807000
019E3C00
00230C00
00210000
00010000
03E0F800
0C310E00
18338300
387BC380
7071C1C0
700001C0
F00001E0
F00001E0
F00001E0
F07FC1E0
F00E01E0
F00E01E0
F00E01E0
700E01C0
700E01C0
300E0380
180A0300
0C1B0600
03E0F800
ENDCHAR
STARTCHAR 047E
ENCODING 1150
SWIDTH 926 0
DWIDTH 38 0
BBX 33 37 3 0
BITMAP
1FFFFFF800
1E03C07800
1C03C03800
1803C01800
1803C01800
181FF81800
0000000000
0000000000
F003E01F80
F003E01F80
F003E00F80
F003E00F80
F003E00F80
F003E00F80
F003E00780
F801E00780
7801E00780
7801F00780
7801F00780
7801F00700
7801F00700
3C00F00700
3C00F80700
3C00F80700
3E00F80600
1E01FC0600
1F017C0600
1F013E0400
0F023E0400
0F821F0C00
07C41F0800
07C40F9800
03E8079000
01F807F000
01F003E000
00F003C000
006001C000
ENDCHAR
STARTCHAR 047F
ENCODING 1151
SWIDTH 707 0
DWIDTH 29 0
BBX 25 26 2 0
BITMAP
FFFFFE00
E0380E00
C0380600
C0380200
80380200
00FE0000
00000000
F0381F00
F03C0F80
F03C0F80
F03C0F80
F03C0780
F01C0700
701C0700
701C0700
781E0700
780E0700
381E0600
3C170600
1C170400
1E238C00
0E23C800
0F41D800
07C1F000
0380E000
01006000
ENDCHAR
STARTCHAR 0480
ENCODING 1152
SWIDTH 682 0
DWIDTH 28 0
BBX 25 29 2 0
BITMAP
FFF00000
0F000000
0F000000
0F000000
0F000000
0F000000
0F000000
0F000000
0F000000
0F000000
0F000000
0F000000
0F000000
07000000
03800000
00FFF800
00007800
00007800
00007800
00007800
00007800
00007800
00007800
00007800
00007800
00007800
00007800
00007800
000FFF80
ENDCHAR
STARTCHAR 0481
ENCODING 1153
SWIDTH 463 0
DWIDTH 19 0
BBX 17 19 1 0
BITMAP
FF8000
1C0000
1C0000
1C0000
1C0000
1C0000
1C0000
1C0000
1C0000
0E0000
07FC00
001C00
001C00
001C00
001C00
001C00
001C00
001C00
00FF80
ENDCHAR
STARTCHAR 0482
ENCODING 1154
SWIDTH 390 0
DWIDTH 16 0
BBX 13 15 2 -7
BITMAP
0018
0030
0E60
07C0
03C0
03C0
4360
6630
3C00
1C00
3E00
7700
E100
C000
8000
ENDCHAR
STARTCHAR 0483
ENCODING 1155
SWIDTH 0 0
DWIDTH 0 0
BBX 15 4 -18 21
BITMAP
F00E
EE0E
E1CE
E03E
ENDCHAR
STARTCHAR 0484
ENCODING 1156
SWIDTH 0 0
DWIDTH 0 0
BBX 16 5 -19 22
BITMAP
07E0
1FF8
300E
4003
8001
ENDCHAR
STARTCHAR 0485
ENCODING 1157
SWIDTH 0 0
DWIDTH 0 0
BBX 7 8 -13 21
BITMAP
38
7C
E6
C0
C0
C0
40
60
ENDCHAR
STARTCHAR 0486
ENCODING 1158
SWIDTH 0 0
DWIDTH 0 0
BBX 7 8 -15 21
BITMAP
38
7C
8E
06
06
06
04
08
ENDCHAR
STARTCHAR 0487
ENCODING 1159
SWIDTH 0 0
DWIDTH 0 0
BBX 20 4 -21 33
BITMAP
03FC00
1C0380
300060
C00030
ENDCHAR
STARTCHAR 0488
ENCODING 1160
SWIDTH 0 0
DWIDTH 0 0
BBX 45 41 -33 -10
BITMAP
00000F800000
000018C00000
000010400000
000020200000
000020200000
000000000000
000000000000
03E000003E00
063000006300
0C180000C180
080800008080
000000000000
000000000000
000000000000
000000000000
000000000000
000000000000
000000000000
3E00000003E0
630000000630
C18000000C18
808000000808
808000000808
000000000000
000000000000
000000000000
000000000000
000000000000
000000000000
000000000000
000000000000
07F000007F00
041000004100
08180000C080
080800008080
000000000000
00000F800000
000018C00000
000010400000
000030600000
000020200000
ENDCHAR
STARTCHAR 0489
ENCODING 1161
SWIDTH 0 0
DWIDTH 0 0
BBX 45 44 -33 -12
BITMAP
000001000000
000002000000
000004000000
00000C000000
00000C000000
00800F000000
00800F000000
008007001E00
00D800007000
00FC00006000
007C0000F000
003800007000
000000006000
000000000000
000000000000
000000000000
000000000000
000000000000
000000000000
000000000000
0000000003C0
8700000007A0
478000000790
3F0000000708
0F0000000000
000000000000
000000000000
000000000000
000000000000
000000000000
003000000000
007000007000
00780000F800
00300000F800
003000006C00
03C003000400
000007800400
000007800400
000007800000
000001800000
000001000000
000001000000
000002000000
000004000000
ENDCHAR
STARTCHAR 0490
ENCODING 1168
SWIDTH 609 0
DWIDTH 25 0
BBX 20 38 3 0
BITMAP
000010
000010
000010
000030
000030
000030
000070
0000F0
0001F0
FFFFF0
0F0000
0F0000
0F0000
0F0000
0F0000
0F0000
0F0000
0F0000
0F0000
0F0000
0F0000
0F0000
0F0000
0F0000
0F0000
0F0000
0F0000
0F0000
0F0000
0F0000
0F0000
0F0000
0F0000
0F0000
0F0000
0F0000
0F0000
FFF800
ENDCHAR
STARTCHAR 0491
ENCODING 1169
SWIDTH 414 0
DWIDTH 17 0
BBX 15 25 1 0
BITMAP
0002
0002
0006
0006
000E
001E
FFFE
1C00
1C00
1C00
1C00
1C00
1C00
1C00
1C00
1C00
1C00
1C00
1C00
1C00
1C00
1C00
1C00
1C00
FF80
ENDCHAR
STARTCHAR 04A4
ENCODING 1188
SWIDTH 1024 0
DWIDTH 42 0
BBX 37 29 3 0
BITMAP
FFF0FFFFF8
0F000F01F8
0F000F0078
0F000F0038
0F000F0038
0F000F0018
0F000F0018
0F000F0018
0F000F0018
0F000F0008
0F000F0008
0F000F0000
0F000F0000
0FFFFF0000
0F000F0000
0F000F0000
0F000F0000
0F000F0000
0F000F0000
0F000F0000
0F000F0000
0F000F0000
0F000F0000
0F000F0000
0F000F0000
0F000F0000
0F000F0000
0F000F0000
FFF0FFF000
ENDCHAR
STARTCHAR 04A5
ENCODING 1189
SWIDTH 682 0
DWIDTH 28 0
BBX 26 19 1 0
BITMAP
FF9FFFC0
1C0383C0
1C0381C0
1C0380C0
1C0380C0
1C0380C0
1C038040
1C038040
1C038000
1FFF8000
1C038000
1C038000
1C038000
1C038000
1C038000
1C038000
1C038000
1C038000
FF9FF000
ENDCHAR
STARTCHAR 04D8
ENCODING 1240
SWIDTH 658 0
DWIDTH 27 0
BBX 22 30 3 0
BITMAP
002000
03DE00
060380
0801C0
1000E0
300060
200070
600070
400078
400038
400038
00003C
00003C
00003C
00003C
FFFFFC
F0003C
F0003C
F0003C
F0003C
F00038
700038
780078
780070
380070
380060
1C00E0
0E01C0
070380
03FE00
ENDCHAR
STARTCHAR 04D9
ENCODING 1241
SWIDTH 463 0
DWIDTH 19 0
BBX 15 19 2 0
BITMAP
0FC0
1070
2038
4018
401C
401C
001E
001E
001E
FFFE
F01E
F01E
F01E
701C
701C
3038
3838
1C70
07C0
ENDCHAR
STARTCHAR 0510
ENCODING 1296
SWIDTH 634 0
DWIDTH 26 0
BBX 21 29 3 1
BITMAP
07FC30
0E0330
1C01F0
3800F0
780070
780070
780030
780030
780030
780030
380010
1C0000
0E0000
03FC00
0E0000
1C0000
380000
780000
F00070
F000F8
F000F8
F00078
F00078
F00038
700030
780030
3C0060
1E00C0
07EF00
ENDCHAR
STARTCHAR 0511
ENCODING 1297
SWIDTH 439 0
DWIDTH 18 0
BBX 15 19 2 0
BITMAP
0FE0
3C18
700C
F00E
F01E
F01E
F004
7000
3800
0FC0
3800
7000
F00E
F01E
F00E
F006
7004
3C18
0FE0
ENDCHAR
STARTCHAR 05D0
ENCODING 1488
SWIDTH 585 0
DWIDTH 24 0
BBX 19 23 3 0
BITMAP
600300
600700
600F00
601F80
F01FC0
F80FC0
7C0FE0
7E07E0
3F03C0
3F8780
4FEC00
47F800
C3F800
C0FC00
C07E00
E03F00
F81F80
FC0F80
FE0780
FE0380
FE0180
FE0100
FC0100
ENDCHAR
STARTCHAR 1D79
ENCODING 7545
SWIDTH 463 0
DWIDTH 19 0
BBX 15 25 2 -6
BITMAP
7FFE
7FFC
7FF8
0030
0040
0080
0300
0600
0400
0C00
0E00
0F00
0780
03E0
0DF0
30F8
603C
C01E
C00E
C006
C006
600C
6008
3830
0FC0
ENDCHAR
STARTCHAR 1E80
ENCODING 7808
SWIDTH 1073 0
DWIDTH 44 0
BBX 41 38 2 1
BITMAP
0001C0000000
0001E0000000
0000E0000000
000070000000
000038000000
000008000000
000004000000
000000000000
000000000000
FFF1FFE3FF80
0F803F007C00
07801E003800
07801E003000
07801F003000
03C01F003000
03C01F006000
03C037006000
01E037806000
01E037804000
01E02780C000
01E063C0C000
00F063C08000
00F043C18000
00F0C1C18000
0078C1E10000
0078C1E30000
007881E30000
007980F20000
003D80F60000
003D00F60000
003F00740000
001F007C0000
001E007C0000
001E003C0000
000E00380000
000E00380000
000C00380000
000C00100000
ENDCHAR
ENDFONT
